<svg width="29" height="29" viewBox="0 0 29 29" fill="none" xmlns="http://www.w3.org/2000/svg">
<path fill-rule="evenodd" clip-rule="evenodd" d="M22.691 6.60056C23.1481 7.05759 23.1481 7.7986 22.691 8.25563L8.64726 22.2994C8.19023 22.7564 7.44923 22.7564 6.99219 22.2994C6.53516 21.8423 6.53516 21.1013 6.99219 20.6443L21.0359 6.60056C21.493 6.14352 22.234 6.14352 22.691 6.60056Z" fill="#FAFBFF"/>
<path fill-rule="evenodd" clip-rule="evenodd" d="M6.99219 6.60056C7.44923 6.14352 8.19023 6.14352 8.64726 6.60056L22.691 20.6443C23.1481 21.1013 23.1481 21.8423 22.691 22.2994C22.234 22.7564 21.493 22.7564 21.0359 22.2994L6.99219 8.25563C6.53516 7.7986 6.53516 7.05759 6.99219 6.60056Z" fill="#FAFBFF"/>
</svg>
