<svg width="30" height="34" viewBox="0 0 30 34" fill="none" xmlns="http://www.w3.org/2000/svg">
<path d="M15.529 8.40083C15.2068 6.59311 13.7358 5.08431 12.0127 4.72846C10.1355 4.34414 8.24421 5.11278 7.19352 6.69275C6.15685 8.27273 6.15685 10.294 7.19352 11.8882C7.52974 12.4148 8.0761 12.7991 8.13214 13.4966C8.13214 13.5535 8.17417 13.6105 8.21619 13.6532C8.3703 13.7955 8.32827 13.9806 8.34228 14.1656C8.39831 14.7634 8.42633 15.3613 8.34228 15.9591C8.31426 16.1014 8.37029 16.3007 8.45435 16.4146C8.84661 16.927 9.21084 17.4537 9.71518 17.8664C10.0934 18.1654 10.5697 18.0515 10.962 18.0657C11.0741 18.0657 11.1581 18.0657 11.2282 18.0657C11.9847 18.1227 12.6291 17.9376 12.9513 17.1405C12.9793 17.0836 13.0494 17.0409 13.1054 16.9982C13.6798 16.5427 13.8479 16.016 13.6518 15.3043C13.6237 15.1905 13.5397 15.0908 13.5957 14.9769C13.8479 14.4361 13.5537 13.7528 14.016 13.2546C14.03 13.2404 14.03 13.1977 14.03 13.1692C14.044 12.8845 14.1981 12.6995 14.3802 12.486C15.4169 11.3188 15.8092 9.95234 15.529 8.40083ZM12.3349 15.6744C12.4189 15.7029 12.461 15.7313 12.447 15.8168C12.433 15.9022 12.3629 15.9164 12.2929 15.9306C11.9426 15.9876 11.7885 16.2438 11.7745 16.5712C11.7605 16.7704 11.6765 16.8274 11.5083 16.8131C11.2982 16.8131 11.0741 16.7989 10.8639 16.8131C10.5137 16.8416 10.2335 16.8131 10.2055 16.3434C10.1915 16.1157 9.99536 15.9733 9.77121 15.9306C9.68716 15.9164 9.58909 15.9022 9.58909 15.7883C9.58909 15.6602 9.70117 15.6744 9.77121 15.6459C10.0374 15.5321 10.1915 15.3186 10.1775 15.0339C10.1775 14.7634 10.0234 14.5642 9.77121 14.4645C9.70117 14.4361 9.57508 14.4645 9.58909 14.3364C9.6031 14.1798 9.72918 14.2225 9.82725 14.2225C10.2335 14.2225 10.6258 14.2225 11.032 14.2225V14.2368C11.4523 14.2368 11.8726 14.2368 12.2789 14.2368C12.3489 14.2368 12.433 14.2368 12.447 14.3222C12.475 14.4218 12.3909 14.4361 12.3209 14.4503C12.0267 14.5499 11.8446 14.7492 11.8586 15.0623C11.8726 15.3755 12.0407 15.589 12.3349 15.6744ZM13.5537 11.5323C13.2175 11.9166 12.8532 12.2725 12.8112 12.8276C12.7972 13.0411 12.6291 12.97 12.517 12.97C12.0127 12.97 11.5083 12.97 11.004 12.97C10.5137 12.97 10.0234 12.9557 9.53306 12.97C9.30891 12.97 9.19684 12.913 9.16882 12.671C9.1408 12.301 8.93066 12.0305 8.6785 11.7743C7.66984 10.7352 7.36163 9.49685 7.85196 8.11615C8.34228 6.73545 9.37896 6.00952 10.8079 5.86718C12.0547 5.73907 13.3856 6.52194 13.988 7.7176C14.6324 8.97019 14.4503 10.5217 13.5537 11.5323Z" fill="#5D68C8"/>
<path d="M28.879 18.8484C27.9964 17.0264 27.0999 15.2045 26.2033 13.3825C26.1192 13.2117 26.0632 13.0409 26.0632 12.8416C26.0352 12.1157 25.9511 11.3898 25.797 10.6781C24.298 3.60377 17.3355 -0.780305 10.4149 0.956244C3.63449 2.66432 -0.55425 9.86673 1.28095 16.6991C1.93938 19.1473 3.22823 21.2112 5.04942 22.9478C6.75854 24.5847 7.6131 26.6344 7.64112 29.0257C7.64112 30.1929 7.64112 31.3601 7.64112 32.5273C7.64112 33.2105 7.83725 33.4098 8.50969 33.4098C10.2889 33.4098 12.082 33.4098 13.8612 33.4098C15.6544 33.4098 17.4615 33.4098 19.2547 33.4098C19.9272 33.4098 20.0953 33.239 20.0953 32.5557C20.0953 31.3743 20.0953 30.1929 20.0953 29.0115C20.0953 28.6841 19.9832 28.2428 20.1513 28.0436C20.3474 27.8016 20.7957 27.9724 21.132 27.9581C23.2473 27.8727 24.7743 26.8764 25.6849 24.9263C26.0772 24.0723 26.1332 23.1613 26.0912 22.2361C26.0772 21.9229 26.1753 21.8375 26.4694 21.8518C26.8897 21.866 27.31 21.9087 27.7163 21.7806C28.9351 21.4105 29.4814 20.0867 28.879 18.8484ZM26.9458 20.5992C26.9317 20.5992 26.9177 20.5992 26.9037 20.5992C24.6202 20.5992 24.8724 20.3999 24.8584 22.6489C24.8584 23.0474 24.8304 23.4317 24.7323 23.8161C24.284 25.5668 22.8831 26.6629 21.0479 26.7056C20.6136 26.7198 20.1793 26.7056 19.7591 26.7056C19.0166 26.7056 18.8344 26.8764 18.8344 27.6165C18.8344 28.983 18.8204 30.3637 18.8485 31.7302C18.8485 32.0575 18.7924 32.1714 18.4422 32.1714C16.9152 32.1429 15.3882 32.1572 13.8752 32.1572C12.3342 32.1572 10.7932 32.1429 9.26618 32.1572C8.97199 32.1572 8.87392 32.1002 8.88793 31.7871C8.90194 30.7053 8.91595 29.6235 8.85992 28.5417C8.73383 25.9369 7.69715 23.7306 5.83393 21.9514C4.41901 20.5992 3.35431 19.0192 2.7239 17.1403C0.48243 10.6354 4.51707 3.43296 11.1714 2.0665C17.3495 0.799669 23.2894 4.69979 24.6202 10.9343C24.7323 11.4325 24.8304 11.9307 24.8304 12.4431C24.8304 13.0978 25.0125 13.6814 25.3067 14.2793C26.1472 15.9446 26.9598 17.6243 27.7723 19.3181C28.1225 20.101 27.8143 20.5849 26.9458 20.5992Z" fill="#5D68C8"/>
<path d="M15.529 8.40083C15.2068 6.59311 13.7358 5.08431 12.0127 4.72846C10.1355 4.34414 8.24421 5.11278 7.19352 6.69275C6.15685 8.27273 6.15685 10.294 7.19352 11.8882C7.52974 12.4148 8.0761 12.7991 8.13214 13.4966C8.13214 13.5535 8.17417 13.6105 8.21619 13.6532C8.3703 13.7955 8.32827 13.9806 8.34228 14.1656C8.39831 14.7634 8.42633 15.3613 8.34228 15.9591C8.31426 16.1014 8.37029 16.3007 8.45435 16.4146C8.84661 16.927 9.21084 17.4537 9.71518 17.8664C10.0934 18.1654 10.5697 18.0515 10.962 18.0657C11.0741 18.0657 11.1581 18.0657 11.2282 18.0657C11.9847 18.1227 12.6291 17.9376 12.9513 17.1405C12.9793 17.0836 13.0494 17.0409 13.1054 16.9982C13.6798 16.5427 13.8479 16.016 13.6518 15.3043C13.6237 15.1905 13.5397 15.0908 13.5957 14.9769C13.8479 14.4361 13.5537 13.7528 14.016 13.2546C14.03 13.2404 14.03 13.1977 14.03 13.1692C14.044 12.8845 14.1981 12.6995 14.3802 12.486C15.4169 11.3188 15.8092 9.95234 15.529 8.40083ZM12.3349 15.6744C12.4189 15.7029 12.461 15.7313 12.447 15.8168C12.433 15.9022 12.3629 15.9164 12.2929 15.9306C11.9426 15.9876 11.7885 16.2438 11.7745 16.5712C11.7605 16.7704 11.6765 16.8274 11.5083 16.8131C11.2982 16.8131 11.0741 16.7989 10.8639 16.8131C10.5137 16.8416 10.2335 16.8131 10.2055 16.3434C10.1915 16.1157 9.99536 15.9733 9.77121 15.9306C9.68716 15.9164 9.58909 15.9022 9.58909 15.7883C9.58909 15.6602 9.70117 15.6744 9.77121 15.6459C10.0374 15.5321 10.1915 15.3186 10.1775 15.0339C10.1775 14.7634 10.0234 14.5642 9.77121 14.4645C9.70117 14.4361 9.57508 14.4645 9.58909 14.3364C9.6031 14.1798 9.72918 14.2225 9.82725 14.2225C10.2335 14.2225 10.6258 14.2225 11.032 14.2225V14.2368C11.4523 14.2368 11.8726 14.2368 12.2789 14.2368C12.3489 14.2368 12.433 14.2368 12.447 14.3222C12.475 14.4218 12.3909 14.4361 12.3209 14.4503C12.0267 14.5499 11.8446 14.7492 11.8586 15.0623C11.8726 15.3755 12.0407 15.589 12.3349 15.6744ZM13.5537 11.5323C13.2175 11.9166 12.8532 12.2725 12.8112 12.8276C12.7972 13.0411 12.6291 12.97 12.517 12.97C12.0127 12.97 11.5083 12.97 11.004 12.97C10.5137 12.97 10.0234 12.9557 9.53306 12.97C9.30891 12.97 9.19684 12.913 9.16882 12.671C9.1408 12.301 8.93066 12.0305 8.6785 11.7743C7.66984 10.7352 7.36163 9.49685 7.85196 8.11615C8.34228 6.73545 9.37896 6.00952 10.8079 5.86718C12.0547 5.73907 13.3856 6.52194 13.988 7.7176C14.6324 8.97019 14.4503 10.5217 13.5537 11.5323Z" fill="white"/>
<path d="M15.529 8.40083C15.2068 6.59311 13.7358 5.08431 12.0127 4.72846C10.1355 4.34414 8.24421 5.11278 7.19352 6.69275C6.15685 8.27273 6.15685 10.294 7.19352 11.8882C7.52974 12.4148 8.0761 12.7991 8.13214 13.4966C8.13214 13.5535 8.17417 13.6105 8.21619 13.6532C8.3703 13.7955 8.32827 13.9806 8.34228 14.1656C8.39831 14.7634 8.42633 15.3613 8.34228 15.9591C8.31426 16.1014 8.37029 16.3007 8.45435 16.4146C8.84661 16.927 9.21084 17.4537 9.71518 17.8664C10.0934 18.1654 10.5697 18.0515 10.962 18.0657C11.0741 18.0657 11.1581 18.0657 11.2282 18.0657C11.9847 18.1227 12.6291 17.9376 12.9513 17.1405C12.9793 17.0836 13.0494 17.0409 13.1054 16.9982C13.6798 16.5427 13.8479 16.016 13.6518 15.3043C13.6237 15.1905 13.5397 15.0908 13.5957 14.9769C13.8479 14.4361 13.5537 13.7528 14.016 13.2546C14.03 13.2404 14.03 13.1977 14.03 13.1692C14.044 12.8845 14.1981 12.6995 14.3802 12.486C15.4169 11.3188 15.8092 9.95234 15.529 8.40083ZM12.3349 15.6744C12.4189 15.7029 12.461 15.7313 12.447 15.8168C12.433 15.9022 12.3629 15.9164 12.2929 15.9306C11.9426 15.9876 11.7885 16.2438 11.7745 16.5712C11.7605 16.7704 11.6765 16.8274 11.5083 16.8131C11.2982 16.8131 11.0741 16.7989 10.8639 16.8131C10.5137 16.8416 10.2335 16.8131 10.2055 16.3434C10.1915 16.1157 9.99536 15.9733 9.77121 15.9306C9.68716 15.9164 9.58909 15.9022 9.58909 15.7883C9.58909 15.6602 9.70117 15.6744 9.77121 15.6459C10.0374 15.5321 10.1915 15.3186 10.1775 15.0339C10.1775 14.7634 10.0234 14.5642 9.77121 14.4645C9.70117 14.4361 9.57508 14.4645 9.58909 14.3364C9.6031 14.1798 9.72918 14.2225 9.82725 14.2225C10.2335 14.2225 10.6258 14.2225 11.032 14.2225V14.2368C11.4523 14.2368 11.8726 14.2368 12.2789 14.2368C12.3489 14.2368 12.433 14.2368 12.447 14.3222C12.475 14.4218 12.3909 14.4361 12.3209 14.4503C12.0267 14.5499 11.8446 14.7492 11.8586 15.0623C11.8726 15.3755 12.0407 15.589 12.3349 15.6744ZM13.5537 11.5323C13.2175 11.9166 12.8532 12.2725 12.8112 12.8276C12.7972 13.0411 12.6291 12.97 12.517 12.97C12.0127 12.97 11.5083 12.97 11.004 12.97C10.5137 12.97 10.0234 12.9557 9.53306 12.97C9.30891 12.97 9.19684 12.913 9.16882 12.671C9.1408 12.301 8.93066 12.0305 8.6785 11.7743C7.66984 10.7352 7.36163 9.49685 7.85196 8.11615C8.34228 6.73545 9.37896 6.00952 10.8079 5.86718C12.0547 5.73907 13.3856 6.52194 13.988 7.7176C14.6324 8.97019 14.4503 10.5217 13.5537 11.5323Z" fill="#5D68C8"/>
</svg>
