<svg width="34" height="28" viewBox="0 0 34 28" fill="none" xmlns="http://www.w3.org/2000/svg">
<path d="M22.5102 11.7978C19.7293 10.2019 16.9484 8.60603 14.1675 7.02322C13.5882 6.6962 13.2019 6.93165 13.2019 7.61187C13.2019 9.19468 13.2019 10.7775 13.2019 12.3472C13.2019 13.9431 13.2019 15.5259 13.2019 17.1218C13.2019 17.7366 13.6011 17.9852 14.116 17.6974C16.9227 16.1015 19.7164 14.5056 22.5102 12.8966C23.0509 12.5827 23.038 12.1118 22.5102 11.7978ZM14.3091 16.3108V8.38365C16.6265 9.70484 18.9182 11.0129 21.2485 12.3472C18.9182 13.6815 16.6265 14.9896 14.3091 16.3108ZM22.5102 11.7978C19.7293 10.2019 16.9484 8.60603 14.1675 7.02322C13.5882 6.6962 13.2019 6.93165 13.2019 7.61187C13.2019 9.19468 13.2019 10.7775 13.2019 12.3472C13.2019 13.9431 13.2019 15.5259 13.2019 17.1218C13.2019 17.7366 13.6011 17.9852 14.116 17.6974C16.9227 16.1015 19.7164 14.5056 22.5102 12.8966C23.0509 12.5827 23.038 12.1118 22.5102 11.7978ZM14.3091 16.3108V8.38365C16.6265 9.70484 18.9182 11.0129 21.2485 12.3472C18.9182 13.6815 16.6265 14.9896 14.3091 16.3108ZM16.9742 3.59598C12.3651 3.5829 8.37402 7.33717 8.37402 12.3341C8.37402 17.2526 12.2492 21.0984 16.987 21.0984C21.6605 21.0984 25.5872 17.3311 25.6 12.3603C25.6 7.40257 21.6476 3.5829 16.9742 3.59598ZM16.9742 19.9866C12.687 19.9866 9.45548 16.4678 9.46835 12.3341C9.48123 8.12203 12.8543 4.68171 16.987 4.69479C21.1326 4.70787 24.5057 8.13511 24.4928 12.3472C24.4928 16.5201 21.2227 19.9996 16.9742 19.9866ZM22.5102 11.7978C19.7293 10.2019 16.9484 8.60603 14.1675 7.02322C13.5882 6.6962 13.2019 6.93165 13.2019 7.61187C13.2019 9.19468 13.2019 10.7775 13.2019 12.3472C13.2019 13.9431 13.2019 15.5259 13.2019 17.1218C13.2019 17.7366 13.6011 17.9852 14.116 17.6974C16.9227 16.1015 19.7164 14.5056 22.5102 12.8966C23.0509 12.5827 23.038 12.1118 22.5102 11.7978ZM14.3091 16.3108V8.38365C16.6265 9.70484 18.9182 11.0129 21.2485 12.3472C18.9182 13.6815 16.6265 14.9896 14.3091 16.3108ZM22.5102 11.7978C19.7293 10.2019 16.9484 8.60603 14.1675 7.02322C13.5882 6.6962 13.2019 6.93165 13.2019 7.61187C13.2019 9.19468 13.2019 10.7775 13.2019 12.3472C13.2019 13.9431 13.2019 15.5259 13.2019 17.1218C13.2019 17.7366 13.6011 17.9852 14.116 17.6974C16.9227 16.1015 19.7164 14.5056 22.5102 12.8966C23.0509 12.5827 23.038 12.1118 22.5102 11.7978ZM14.3091 16.3108V8.38365C16.6265 9.70484 18.9182 11.0129 21.2485 12.3472C18.9182 13.6815 16.6265 14.9896 14.3091 16.3108ZM22.5102 11.7978C19.7293 10.2019 16.9484 8.60603 14.1675 7.02322C13.5882 6.6962 13.2019 6.93165 13.2019 7.61187C13.2019 9.19468 13.2019 10.7775 13.2019 12.3472C13.2019 13.9431 13.2019 15.5259 13.2019 17.1218C13.2019 17.7366 13.6011 17.9852 14.116 17.6974C16.9227 16.1015 19.7164 14.5056 22.5102 12.8966C23.0509 12.5827 23.038 12.1118 22.5102 11.7978ZM14.3091 16.3108V8.38365C16.6265 9.70484 18.9182 11.0129 21.2485 12.3472C18.9182 13.6815 16.6265 14.9896 14.3091 16.3108Z" fill="#684FBF"/>
<path d="M30.9306 24.3166C30.789 24.4866 30.4542 24.3689 30.2096 24.3689C27.2356 24.3689 24.2616 24.3689 21.2876 24.3689C18.172 24.3689 15.0435 24.3689 11.9279 24.3689C11.6704 24.3689 11.5803 24.4212 11.606 24.6959C11.6318 24.9314 11.6833 25.2584 11.5674 25.4023C11.4258 25.5854 11.0911 25.4284 10.8464 25.4677C10.5761 25.5069 10.486 25.4154 10.4988 25.1276C10.5246 24.3689 10.5117 24.3689 9.75212 24.3689C7.58921 24.3689 5.42631 24.3689 3.2634 24.3689C3.03166 24.3689 2.94154 24.3166 2.98016 24.068C3.01879 23.8064 2.86429 23.4532 3.04454 23.3093C3.18615 23.1785 3.52089 23.2701 3.77838 23.2701C5.92841 23.2701 8.06557 23.2701 10.2027 23.2701C10.4345 23.2701 10.5375 23.2439 10.5246 22.9692C10.5117 22.7207 10.4087 22.3806 10.5632 22.2236C10.7306 22.0535 11.0653 22.1974 11.3228 22.1713C11.5803 22.132 11.6447 22.2367 11.6318 22.4852C11.6189 22.7338 11.5159 23.0869 11.6704 23.2178C11.8249 23.3486 12.1468 23.2701 12.4043 23.2701C18.481 23.2701 24.5706 23.2701 30.6473 23.2701C30.9048 23.2701 31.0336 23.3093 30.995 23.6102C30.9435 23.8456 31.0593 24.1727 30.9306 24.3166Z" fill="#684FBF"/>
<path d="M33.1182 13.0145C33.1182 9.37792 33.1182 5.72831 33.1182 2.09177C33.1182 1.69934 33.041 1.33307 32.8092 1.00604C32.4359 0.469717 31.8951 0.312744 31.2772 0.312744C21.7372 0.312744 12.1972 0.312744 2.65727 0.312744C2.5414 0.312744 2.42553 0.325825 2.30966 0.338906C1.64019 0.404311 1.18959 0.7575 0.932097 1.38539C0.906348 1.4508 0.932097 1.54236 0.829102 1.56853V26.4356C0.841976 26.4487 0.867725 26.4487 0.8806 26.4618C1.17671 27.3513 1.80756 27.6783 2.6959 27.6783C12.223 27.6783 21.7501 27.6653 31.29 27.6783C32.5646 27.6783 33.144 26.7627 33.144 25.7947C33.1053 21.5302 33.1182 17.2658 33.1182 13.0145ZM2.6959 26.5534C2.07792 26.5534 1.91056 26.3833 1.91056 25.7685V2.22258C1.91056 1.59469 2.07792 1.42463 2.6959 1.42463H31.2643C31.8823 1.42463 32.0496 1.59469 32.0496 2.2095V25.7554C32.0496 26.3833 31.8823 26.5534 31.2643 26.5534H2.6959Z" fill="#684FBF"/>
<path d="M22.5102 11.7978C19.7293 10.2019 16.9484 8.60603 14.1675 7.02322C13.5882 6.6962 13.2019 6.93165 13.2019 7.61187C13.2019 9.19468 13.2019 10.7775 13.2019 12.3472C13.2019 13.9431 13.2019 15.5259 13.2019 17.1218C13.2019 17.7366 13.6011 17.9852 14.116 17.6974C16.9227 16.1015 19.7164 14.5056 22.5102 12.8966C23.0509 12.5827 23.038 12.1118 22.5102 11.7978ZM14.3091 16.3108V8.38365C16.6265 9.70484 18.9182 11.0129 21.2485 12.3472C18.9182 13.6815 16.6265 14.9896 14.3091 16.3108ZM22.5102 11.7978C19.7293 10.2019 16.9484 8.60603 14.1675 7.02322C13.5882 6.6962 13.2019 6.93165 13.2019 7.61187C13.2019 9.19468 13.2019 10.7775 13.2019 12.3472C13.2019 13.9431 13.2019 15.5259 13.2019 17.1218C13.2019 17.7366 13.6011 17.9852 14.116 17.6974C16.9227 16.1015 19.7164 14.5056 22.5102 12.8966C23.0509 12.5827 23.038 12.1118 22.5102 11.7978ZM14.3091 16.3108V8.38365C16.6265 9.70484 18.9182 11.0129 21.2485 12.3472C18.9182 13.6815 16.6265 14.9896 14.3091 16.3108ZM16.9742 3.59598C12.3651 3.5829 8.37402 7.33717 8.37402 12.3341C8.37402 17.2526 12.2492 21.0984 16.987 21.0984C21.6605 21.0984 25.5872 17.3311 25.6 12.3603C25.6 7.40257 21.6476 3.5829 16.9742 3.59598ZM16.9742 19.9866C12.687 19.9866 9.45548 16.4678 9.46835 12.3341C9.48123 8.12203 12.8543 4.68171 16.987 4.69479C21.1326 4.70787 24.5057 8.13511 24.4928 12.3472C24.4928 16.5201 21.2227 19.9996 16.9742 19.9866ZM22.5102 11.7978C19.7293 10.2019 16.9484 8.60603 14.1675 7.02322C13.5882 6.6962 13.2019 6.93165 13.2019 7.61187C13.2019 9.19468 13.2019 10.7775 13.2019 12.3472C13.2019 13.9431 13.2019 15.5259 13.2019 17.1218C13.2019 17.7366 13.6011 17.9852 14.116 17.6974C16.9227 16.1015 19.7164 14.5056 22.5102 12.8966C23.0509 12.5827 23.038 12.1118 22.5102 11.7978ZM14.3091 16.3108V8.38365C16.6265 9.70484 18.9182 11.0129 21.2485 12.3472C18.9182 13.6815 16.6265 14.9896 14.3091 16.3108ZM22.5102 11.7978C19.7293 10.2019 16.9484 8.60603 14.1675 7.02322C13.5882 6.6962 13.2019 6.93165 13.2019 7.61187C13.2019 9.19468 13.2019 10.7775 13.2019 12.3472C13.2019 13.9431 13.2019 15.5259 13.2019 17.1218C13.2019 17.7366 13.6011 17.9852 14.116 17.6974C16.9227 16.1015 19.7164 14.5056 22.5102 12.8966C23.0509 12.5827 23.038 12.1118 22.5102 11.7978ZM14.3091 16.3108V8.38365C16.6265 9.70484 18.9182 11.0129 21.2485 12.3472C18.9182 13.6815 16.6265 14.9896 14.3091 16.3108ZM22.5102 11.7978C19.7293 10.2019 16.9484 8.60603 14.1675 7.02322C13.5882 6.6962 13.2019 6.93165 13.2019 7.61187C13.2019 9.19468 13.2019 10.7775 13.2019 12.3472C13.2019 13.9431 13.2019 15.5259 13.2019 17.1218C13.2019 17.7366 13.6011 17.9852 14.116 17.6974C16.9227 16.1015 19.7164 14.5056 22.5102 12.8966C23.0509 12.5827 23.038 12.1118 22.5102 11.7978ZM14.3091 16.3108V8.38365C16.6265 9.70484 18.9182 11.0129 21.2485 12.3472C18.9182 13.6815 16.6265 14.9896 14.3091 16.3108Z" fill="white"/>
<path d="M30.9306 24.3166C30.789 24.4866 30.4542 24.3689 30.2096 24.3689C27.2356 24.3689 24.2616 24.3689 21.2876 24.3689C18.172 24.3689 15.0435 24.3689 11.9279 24.3689C11.6704 24.3689 11.5803 24.4212 11.606 24.6959C11.6318 24.9314 11.6833 25.2584 11.5674 25.4023C11.4258 25.5854 11.0911 25.4284 10.8464 25.4677C10.5761 25.5069 10.486 25.4154 10.4988 25.1276C10.5246 24.3689 10.5117 24.3689 9.75212 24.3689C7.58921 24.3689 5.42631 24.3689 3.2634 24.3689C3.03166 24.3689 2.94154 24.3166 2.98016 24.068C3.01879 23.8064 2.86429 23.4532 3.04454 23.3093C3.18615 23.1785 3.52089 23.2701 3.77838 23.2701C5.92841 23.2701 8.06557 23.2701 10.2027 23.2701C10.4345 23.2701 10.5375 23.2439 10.5246 22.9692C10.5117 22.7207 10.4087 22.3806 10.5632 22.2236C10.7306 22.0535 11.0653 22.1974 11.3228 22.1713C11.5803 22.132 11.6447 22.2367 11.6318 22.4852C11.6189 22.7338 11.5159 23.0869 11.6704 23.2178C11.8249 23.3486 12.1468 23.2701 12.4043 23.2701C18.481 23.2701 24.5706 23.2701 30.6473 23.2701C30.9048 23.2701 31.0336 23.3093 30.995 23.6102C30.9435 23.8456 31.0593 24.1727 30.9306 24.3166Z" fill="white"/>
<path d="M22.5102 11.7978C19.7293 10.2019 16.9484 8.60603 14.1675 7.02322C13.5882 6.6962 13.2019 6.93165 13.2019 7.61187C13.2019 9.19468 13.2019 10.7775 13.2019 12.3472C13.2019 13.9431 13.2019 15.5259 13.2019 17.1218C13.2019 17.7366 13.6011 17.9852 14.116 17.6974C16.9227 16.1015 19.7164 14.5056 22.5102 12.8966C23.0509 12.5827 23.038 12.1118 22.5102 11.7978ZM14.3091 16.3108V8.38365C16.6265 9.70484 18.9182 11.0129 21.2485 12.3472C18.9182 13.6815 16.6265 14.9896 14.3091 16.3108ZM22.5102 11.7978C19.7293 10.2019 16.9484 8.60603 14.1675 7.02322C13.5882 6.6962 13.2019 6.93165 13.2019 7.61187C13.2019 9.19468 13.2019 10.7775 13.2019 12.3472C13.2019 13.9431 13.2019 15.5259 13.2019 17.1218C13.2019 17.7366 13.6011 17.9852 14.116 17.6974C16.9227 16.1015 19.7164 14.5056 22.5102 12.8966C23.0509 12.5827 23.038 12.1118 22.5102 11.7978ZM14.3091 16.3108V8.38365C16.6265 9.70484 18.9182 11.0129 21.2485 12.3472C18.9182 13.6815 16.6265 14.9896 14.3091 16.3108ZM16.9742 3.59598C12.3651 3.5829 8.37402 7.33717 8.37402 12.3341C8.37402 17.2526 12.2492 21.0984 16.987 21.0984C21.6605 21.0984 25.5872 17.3311 25.6 12.3603C25.6 7.40257 21.6476 3.5829 16.9742 3.59598ZM16.9742 19.9866C12.687 19.9866 9.45548 16.4678 9.46835 12.3341C9.48123 8.12203 12.8543 4.68171 16.987 4.69479C21.1326 4.70787 24.5057 8.13511 24.4928 12.3472C24.4928 16.5201 21.2227 19.9996 16.9742 19.9866ZM22.5102 11.7978C19.7293 10.2019 16.9484 8.60603 14.1675 7.02322C13.5882 6.6962 13.2019 6.93165 13.2019 7.61187C13.2019 9.19468 13.2019 10.7775 13.2019 12.3472C13.2019 13.9431 13.2019 15.5259 13.2019 17.1218C13.2019 17.7366 13.6011 17.9852 14.116 17.6974C16.9227 16.1015 19.7164 14.5056 22.5102 12.8966C23.0509 12.5827 23.038 12.1118 22.5102 11.7978ZM14.3091 16.3108V8.38365C16.6265 9.70484 18.9182 11.0129 21.2485 12.3472C18.9182 13.6815 16.6265 14.9896 14.3091 16.3108ZM22.5102 11.7978C19.7293 10.2019 16.9484 8.60603 14.1675 7.02322C13.5882 6.6962 13.2019 6.93165 13.2019 7.61187C13.2019 9.19468 13.2019 10.7775 13.2019 12.3472C13.2019 13.9431 13.2019 15.5259 13.2019 17.1218C13.2019 17.7366 13.6011 17.9852 14.116 17.6974C16.9227 16.1015 19.7164 14.5056 22.5102 12.8966C23.0509 12.5827 23.038 12.1118 22.5102 11.7978ZM14.3091 16.3108V8.38365C16.6265 9.70484 18.9182 11.0129 21.2485 12.3472C18.9182 13.6815 16.6265 14.9896 14.3091 16.3108ZM22.5102 11.7978C19.7293 10.2019 16.9484 8.60603 14.1675 7.02322C13.5882 6.6962 13.2019 6.93165 13.2019 7.61187C13.2019 9.19468 13.2019 10.7775 13.2019 12.3472C13.2019 13.9431 13.2019 15.5259 13.2019 17.1218C13.2019 17.7366 13.6011 17.9852 14.116 17.6974C16.9227 16.1015 19.7164 14.5056 22.5102 12.8966C23.0509 12.5827 23.038 12.1118 22.5102 11.7978ZM14.3091 16.3108V8.38365C16.6265 9.70484 18.9182 11.0129 21.2485 12.3472C18.9182 13.6815 16.6265 14.9896 14.3091 16.3108Z" fill="#684FBF"/>
<path d="M30.9306 24.3166C30.789 24.4866 30.4542 24.3689 30.2096 24.3689C27.2356 24.3689 24.2616 24.3689 21.2876 24.3689C18.172 24.3689 15.0435 24.3689 11.9279 24.3689C11.6704 24.3689 11.5803 24.4212 11.606 24.6959C11.6318 24.9314 11.6833 25.2584 11.5674 25.4023C11.4258 25.5854 11.0911 25.4284 10.8464 25.4677C10.5761 25.5069 10.486 25.4154 10.4988 25.1276C10.5246 24.3689 10.5117 24.3689 9.75212 24.3689C7.58921 24.3689 5.42631 24.3689 3.2634 24.3689C3.03166 24.3689 2.94154 24.3166 2.98016 24.068C3.01879 23.8064 2.86429 23.4532 3.04454 23.3093C3.18615 23.1785 3.52089 23.2701 3.77838 23.2701C5.92841 23.2701 8.06557 23.2701 10.2027 23.2701C10.4345 23.2701 10.5375 23.2439 10.5246 22.9692C10.5117 22.7207 10.4087 22.3806 10.5632 22.2236C10.7306 22.0535 11.0653 22.1974 11.3228 22.1713C11.5803 22.132 11.6447 22.2367 11.6318 22.4852C11.6189 22.7338 11.5159 23.0869 11.6704 23.2178C11.8249 23.3486 12.1468 23.2701 12.4043 23.2701C18.481 23.2701 24.5706 23.2701 30.6473 23.2701C30.9048 23.2701 31.0336 23.3093 30.995 23.6102C30.9435 23.8456 31.0593 24.1727 30.9306 24.3166Z" fill="#684FBF"/>
<path d="M22.5104 11.7979C19.7295 10.202 16.9486 8.60613 14.1677 7.02332C13.5884 6.69629 13.2021 6.93175 13.2021 7.61197C13.2021 9.19477 13.2021 10.7776 13.2021 12.3473C13.2021 13.9432 13.2021 15.526 13.2021 17.1219C13.2021 17.7367 13.6013 17.9853 14.1162 17.6975C16.9229 16.1016 19.7166 14.5057 22.5104 12.8967C23.0511 12.5828 23.0382 12.1119 22.5104 11.7979ZM14.3094 16.3109V8.38375C16.6268 9.70494 18.9184 11.013 21.2487 12.3473C18.9184 13.6816 16.6268 14.9897 14.3094 16.3109Z" fill="white"/>
<path d="M22.5104 11.7979C19.7295 10.202 16.9486 8.60613 14.1677 7.02332C13.5884 6.69629 13.2021 6.93175 13.2021 7.61197C13.2021 9.19477 13.2021 10.7776 13.2021 12.3473C13.2021 13.9432 13.2021 15.526 13.2021 17.1219C13.2021 17.7367 13.6013 17.9853 14.1162 17.6975C16.9229 16.1016 19.7166 14.5057 22.5104 12.8967C23.0511 12.5828 23.0382 12.1119 22.5104 11.7979ZM14.3094 16.3109V8.38375C16.6268 9.70494 18.9184 11.013 21.2487 12.3473C18.9184 13.6816 16.6268 14.9897 14.3094 16.3109Z" fill="#684FBF"/>
</svg>
