<?xml version="1.0" encoding="utf-8"?>
<!-- Generator: Adobe Illustrator 26.0.3, SVG Export Plug-In . SVG Version: 6.00 Build 0)  -->
<svg version="1.1" id="Layer_1" xmlns="http://www.w3.org/2000/svg" xmlns:xlink="http://www.w3.org/1999/xlink" x="0px" y="0px"
	 viewBox="0 0 36 36" style="enable-background:new 0 0 36 36;" xml:space="preserve">
<style type="text/css">
	.st0{fill:#111C2B;}
	.st1{fill:#D0D0DB;}
	.st2{fill:#F1F2F2;}
	.st3{opacity:0.51;fill:#E2E2E2;}
	.st4{fill:#D73826;}
	.st5{fill:#309B47;}
	.st6{fill:#39B54A;}
	.st7{fill:#262262;}
	.st8{fill:#FFFFFF;}
	.st9{fill:#EF3F6F;}
	.st10{fill:#F7A398;}
	.st11{fill:#1F2959;}
	.st12{fill:none;stroke:#1F2959;stroke-width:0.6531;stroke-linecap:round;stroke-miterlimit:10;}
	.st13{fill:#808FC7;}
	.st14{fill:#3460AD;}
	.st15{fill:#59B6E7;}
	.st16{fill:#3A3E68;}
	.st17{fill:#1F2A58;}
	.st18{fill:#676586;}
	.st19{fill:#706D8D;}
	.st20{fill:none;stroke:#1F2959;stroke-width:0.9906;stroke-linecap:round;stroke-miterlimit:10;}
	.st21{fill:none;stroke:#262262;stroke-miterlimit:10;}
	.st22{fill:none;stroke:#DDDFE0;stroke-width:0.9743;stroke-miterlimit:10;}
	.st23{fill:#ED1C24;}
	.st24{fill:#3DB54A;}
	.st25{fill:#D1EEFC;}
	.st26{fill:#29BFF0;}
</style>
<g>
	<circle class="st25" cx="18" cy="18" r="18"/>
	<g>
		<path class="st26" d="M4.79,16.84c0.12-0.5,0.27-0.99,0.58-1.42c0.68-0.92,1.6-1.35,2.73-1.36c2.13,0,4.27,0,6.4,0
			c0.1,0,0.2,0,0.33,0c0-0.14,0-0.25,0-0.36c0.01-1.44-0.02-2.89,0.03-4.33c0.05-1.48,1.44-2.82,2.93-2.85
			c1.09-0.02,2.18-0.01,3.28-0.01c2.4,0,4.8-0.01,7.2,0.01c1.4,0.01,2.68,1.17,2.9,2.55c0.03,0.22,0.05,0.44,0.05,0.67
			c0,2.4,0,4.8,0,7.2c0,1.7-1.08,2.97-2.76,3.23c-0.17,0.03-0.34,0.02-0.51,0.02c-2.94,0-5.88,0-8.82,0c-0.17,0-0.31,0.04-0.44,0.16
			c-0.87,0.8-1.74,1.59-2.62,2.37c-0.15,0.14-0.38,0.23-0.59,0.25c-0.3,0.03-0.56-0.22-0.61-0.52c-0.02-0.13-0.02-0.26-0.02-0.39
			c0-2.12,0-4.23,0-6.35c0-0.1,0-0.2,0-0.33c-0.11,0-0.2,0-0.28,0c-2.16,0-4.32,0-6.48,0c-0.95,0-1.66,0.53-1.9,1.43
			c-0.05,0.2-0.06,0.41-0.06,0.61c0,2.34,0.01,4.68-0.01,7.02c-0.01,1.32,0.99,2.01,2,2c3.04-0.02,6.09,0,9.13-0.01
			c0.33,0,0.58,0.11,0.81,0.32c0.58,0.55,1.17,1.09,1.81,1.68c0-0.14,0-0.23,0-0.32c0-1.95,0-3.9,0-5.86c0-0.3,0.14-0.51,0.39-0.64
			c0.24-0.12,0.48-0.08,0.67,0.1c0.11,0.11,0.18,0.27,0.23,0.41c0.04,0.1,0.02,0.22,0.02,0.33c0,2.4,0,4.8,0,7.2
			c0,0.03,0,0.05,0,0.08c0.01,0.34-0.05,0.65-0.41,0.79c-0.32,0.13-0.58-0.02-0.81-0.24c-0.85-0.78-1.7-1.56-2.54-2.34
			c-0.13-0.13-0.27-0.18-0.46-0.18c-2.96,0.01-5.92,0.01-8.88,0c-1.45,0-2.64-0.81-3.11-2.11c-0.07-0.2-0.12-0.41-0.17-0.61
			C4.79,22.31,4.79,19.57,4.79,16.84z M16.14,20.84c0.17-0.15,0.3-0.27,0.43-0.38c0.36-0.32,0.74-0.62,1.07-0.97
			c0.47-0.49,1.03-0.64,1.7-0.63c2.86,0.02,5.73,0.02,8.59,0c0.32,0,0.66-0.06,0.94-0.19c0.72-0.34,1.03-0.97,1.02-1.76
			c0-2.38,0-4.76,0-7.14c0-0.18-0.01-0.36-0.05-0.54c-0.24-0.92-0.93-1.41-1.95-1.41c-3.22,0-6.45,0-9.67,0
			c-0.21,0-0.43,0.02-0.64,0.07c-0.91,0.24-1.43,0.94-1.43,1.92c0,3.59,0,7.19,0,10.78C16.14,20.65,16.14,20.71,16.14,20.84z"/>
		<path class="st26" d="M9.73,21.43c-0.37,0-0.69-0.29-0.7-0.65c-0.01-0.35,0.32-0.67,0.68-0.67c0.36,0,0.69,0.3,0.69,0.66
			C10.41,21.13,10.1,21.43,9.73,21.43z"/>
		<path class="st26" d="M12,21.43c-0.37,0-0.69-0.3-0.69-0.66c0-0.35,0.32-0.66,0.69-0.66c0.37,0,0.68,0.31,0.68,0.66
			C12.68,21.14,12.38,21.43,12,21.43z"/>
		<path class="st26" d="M23.22,10.23c0.63,0.03,1.24,0.38,1.59,1.1c0.31,0.62,0.31,1.26-0.14,1.82c-0.25,0.31-0.58,0.56-0.86,0.85
			c-0.12,0.13-0.22,0.3-0.28,0.46c-0.11,0.3-0.4,0.51-0.71,0.47c-0.36-0.05-0.57-0.29-0.58-0.64c-0.01-0.53,0.29-0.9,0.65-1.24
			c0.18-0.17,0.37-0.33,0.56-0.5c0.19-0.17,0.33-0.36,0.2-0.63c-0.12-0.26-0.38-0.41-0.64-0.39c-0.27,0.02-0.5,0.22-0.57,0.49
			c-0.04,0.16-0.06,0.34-0.14,0.49c-0.15,0.27-0.45,0.38-0.73,0.29c-0.27-0.08-0.46-0.34-0.46-0.64
			C21.09,11.1,21.97,10.23,23.22,10.23z"/>
		<path class="st26" d="M22.9,15.55c0.34,0,0.66,0.32,0.66,0.66c0,0.34-0.33,0.66-0.67,0.66c-0.33,0-0.63-0.31-0.64-0.65
			C22.25,15.87,22.55,15.55,22.9,15.55z"/>
	</g>
</g>
</svg>
