<svg width="34" height="34" viewBox="0 0 34 34" fill="none" xmlns="http://www.w3.org/2000/svg">
<path d="M20.9744 6.20885C18.9461 6.23227 17.2981 7.94186 17.3096 10.0027C17.3212 12.0987 18.9692 13.7615 21.0436 13.7498C23.0719 13.7498 24.7545 12.0402 24.7545 9.99103C24.743 7.90673 23.0258 6.18544 20.9744 6.20885ZM21.0205 12.5086C19.6376 12.5086 18.5312 11.3962 18.5312 9.97932C18.5312 8.57418 19.6491 7.46177 21.0321 7.47348C22.4035 7.48519 23.4983 8.58589 23.4983 9.97932C23.4983 11.3845 22.4035 12.4969 21.0205 12.5086Z" fill="#00AFEF"/>
<path d="M29.3879 0.576416C25.2621 0.576416 21.1248 0.576416 16.999 0.576416C12.8271 0.576416 8.64373 0.576416 4.47184 0.576416C2.40894 0.576416 0.841603 2.1572 0.830078 4.2532C0.830078 9.92061 0.830078 15.5763 0.830078 21.2437C0.830078 21.4662 0.830078 21.6887 0.876177 21.8994C1.23344 23.7261 2.66248 24.9322 4.50641 24.9322C8.14817 24.9439 11.7899 24.9439 15.4317 24.9205C15.7774 24.9205 15.8811 24.9908 15.8811 25.3655C15.8581 27.7308 15.8696 30.0961 15.8696 32.4614C15.8696 33.164 16.054 33.3513 16.7224 33.3513H24.974C25.6424 33.3513 25.8268 33.1757 25.8268 32.5083C25.8268 31.5012 25.8384 30.4942 25.8268 29.4872C25.8268 29.1593 25.8845 29.0305 26.2417 29.0422C26.9332 29.0774 27.6247 29.054 28.3161 29.054C28.8808 29.054 29.0883 28.8432 29.0998 28.2694C29.0998 27.2741 29.1113 26.2788 29.0998 25.2952C29.0998 25.0025 29.1805 24.9439 29.4571 24.9322C31.6467 24.8971 33.1449 23.3397 33.1449 21.1383C33.1449 15.5646 33.1449 9.99087 33.1449 4.40543C33.1449 2.12207 31.6237 0.588126 29.3879 0.576416ZM15.6391 23.691C15.1436 23.691 14.6365 23.691 14.1294 23.691C14.7287 23.0821 15.2819 22.5201 15.8696 21.9112C15.8696 22.4381 15.8696 22.9533 15.8696 23.4685C15.8811 23.6442 15.8005 23.691 15.6391 23.691ZM27.4518 27.8127C27.06 27.7893 26.6681 27.7776 26.2878 27.8127C25.8729 27.8596 25.8268 27.6839 25.8268 27.3209C25.8384 25.2718 25.8384 23.2343 25.8384 21.1852C25.8384 20.5294 25.6424 20.2133 25.2276 20.2133C24.8127 20.2133 24.6052 20.5294 24.6052 21.1735C24.6052 24.6746 24.6052 28.1757 24.6168 31.6886C24.6168 32.0165 24.5476 32.1219 24.2019 32.1219C21.9892 32.1101 19.7649 32.1101 17.5522 32.1219C17.218 32.1219 17.1258 32.0516 17.1258 31.7003C17.1373 28.0352 17.1373 24.3702 17.1373 20.7051C17.1373 20.588 17.1373 20.4709 17.1373 20.3538C17.1258 20.0493 17.0106 19.8151 16.7109 19.7098C16.4343 19.6161 16.2154 19.7215 16.0194 19.9322C15.1781 20.787 14.3253 21.6535 13.484 22.5083C12.539 23.4685 11.7899 23.4685 10.8564 22.52C9.43892 21.0798 8.03293 19.6395 6.60388 18.2227C6.41949 18.0353 6.37339 17.9299 6.59236 17.7309C7.00724 17.3444 7.38755 16.9229 7.80243 16.5014C9.02404 17.7426 10.2341 18.9721 11.4442 20.2016C12.078 20.8456 12.2509 20.8456 12.8848 20.1781C13.8644 19.1711 14.8439 18.1641 15.8235 17.1454C16.4574 16.4779 17.218 16.1618 18.1284 16.1618C20.0415 16.1735 21.9546 16.1618 23.8677 16.1618C26.2187 16.1618 27.8782 17.8597 27.8782 20.2484C27.8782 22.6254 27.8667 25.0142 27.8897 27.3912C27.8897 27.7542 27.7745 27.8362 27.4518 27.8127ZM31.9349 21.1149C31.9349 22.6137 30.9783 23.609 29.5147 23.6793C29.2035 23.691 29.0883 23.6325 29.0998 23.2812C29.1229 22.1336 29.1229 20.9744 29.0998 19.8269C29.0191 17.1922 26.841 14.9908 24.2365 14.944C22.0929 14.9089 19.9493 14.9323 17.8057 14.944C16.7916 14.944 15.9272 15.3304 15.2012 16.0447C14.2677 16.9697 13.3457 17.9182 12.4353 18.8784C12.2394 19.0892 12.1241 19.136 11.9052 18.8901C10.9025 17.848 9.87685 16.8175 8.85117 15.7871C8.6783 15.6231 8.62068 15.4475 8.62068 15.2133C8.6322 13.0705 8.62068 10.9159 8.62068 8.77308C8.62068 8.65598 8.6322 8.53889 8.62068 8.42179C8.5861 8.04709 8.39019 7.82461 8.00988 7.83632C7.62957 7.83632 7.42212 8.0588 7.4106 8.4335C7.39907 9.24146 7.4106 10.0377 7.4106 10.8457C7.4106 12.1337 7.39908 13.4218 7.42212 14.6981C7.42212 15.0142 7.35298 15.2367 7.12249 15.4592C6.50016 16.0564 5.88936 16.6887 5.27856 17.3093C4.74843 17.848 4.75995 18.0704 5.30161 18.6091C6.83437 20.1664 8.37866 21.7238 9.91143 23.2929C10.0036 23.3866 10.1419 23.4685 10.1765 23.6207C10.0612 23.7144 9.92295 23.6676 9.80771 23.6676C8.12512 23.6676 6.44254 23.6676 4.74843 23.6676C3.03127 23.6676 2.07473 22.6957 2.07473 20.9627V4.51081C2.07473 2.78951 3.04279 1.80592 4.75995 1.80592H29.2957C31.0014 1.80592 31.9694 2.78951 31.9694 4.51081C31.9349 10.0494 31.9349 15.588 31.9349 21.1149Z" fill="#00AFEF"/>
<path d="M20.9744 6.20885C18.9461 6.23227 17.2981 7.94186 17.3096 10.0027C17.3212 12.0987 18.9692 13.7615 21.0436 13.7498C23.0719 13.7498 24.7545 12.0402 24.7545 9.99103C24.743 7.90673 23.0258 6.18544 20.9744 6.20885ZM21.0205 12.5086C19.6376 12.5086 18.5312 11.3962 18.5312 9.97932C18.5312 8.57418 19.6491 7.46177 21.0321 7.47348C22.4035 7.48519 23.4983 8.58589 23.4983 9.97932C23.4983 11.3845 22.4035 12.4969 21.0205 12.5086Z" fill="white"/>
<path d="M20.9744 6.20885C18.9461 6.23227 17.2981 7.94186 17.3096 10.0027C17.3212 12.0987 18.9692 13.7615 21.0436 13.7498C23.0719 13.7498 24.7545 12.0402 24.7545 9.99103C24.743 7.90673 23.0258 6.18544 20.9744 6.20885ZM21.0205 12.5086C19.6376 12.5086 18.5312 11.3962 18.5312 9.97932C18.5312 8.57418 19.6491 7.46177 21.0321 7.47348C22.4035 7.48519 23.4983 8.58589 23.4983 9.97932C23.4983 11.3845 22.4035 12.4969 21.0205 12.5086Z" fill="#00AFEF"/>
</svg>
