<svg width="48" height="48" viewBox="0 0 48 48" fill="none" xmlns="http://www.w3.org/2000/svg">
<path fill-rule="evenodd" clip-rule="evenodd" d="M7.75736 3.75736C8.88258 2.63214 10.4087 2 12 2H28C28.5304 2 29.0391 2.21071 29.4142 2.58579L41.4142 14.5858C41.7893 14.9609 42 15.4696 42 16V40C42 41.5913 41.3679 43.1174 40.2426 44.2426C39.1174 45.3679 37.5913 46 36 46H12C10.4087 46 8.88258 45.3679 7.75736 44.2426C6.63214 43.1174 6 41.5913 6 40V8C6 6.4087 6.63214 4.88258 7.75736 3.75736ZM12 6C11.4696 6 10.9609 6.21071 10.5858 6.58579C10.2107 6.96086 10 7.46957 10 8V40C10 40.5304 10.2107 41.0391 10.5858 41.4142C10.9609 41.7893 11.4696 42 12 42H36C36.5304 42 37.0391 41.7893 37.4142 41.4142C37.7893 41.0391 38 40.5304 38 40V16.8284L27.1716 6H12Z" fill="#FAFBFF"/>
<path fill-rule="evenodd" clip-rule="evenodd" d="M28 2C29.1046 2 30 2.89543 30 4V14H40C41.1046 14 42 14.8954 42 16C42 17.1046 41.1046 18 40 18H28C26.8954 18 26 17.1046 26 16V4C26 2.89543 26.8954 2 28 2Z" fill="#FAFBFF"/>
<path fill-rule="evenodd" clip-rule="evenodd" d="M14 26C14 24.8954 14.8954 24 16 24H32C33.1046 24 34 24.8954 34 26C34 27.1046 33.1046 28 32 28H16C14.8954 28 14 27.1046 14 26Z" fill="#FAFBFF"/>
<path fill-rule="evenodd" clip-rule="evenodd" d="M14 34C14 32.8954 14.8954 32 16 32H32C33.1046 32 34 32.8954 34 34C34 35.1046 33.1046 36 32 36H16C14.8954 36 14 35.1046 14 34Z" fill="#FAFBFF"/>
<path fill-rule="evenodd" clip-rule="evenodd" d="M14 18C14 16.8954 14.8954 16 16 16H20C21.1046 16 22 16.8954 22 18C22 19.1046 21.1046 20 20 20H16C14.8954 20 14 19.1046 14 18Z" fill="#FAFBFF"/>
</svg>
