<svg width="18" height="18" viewBox="0 0 18 18" fill="none" xmlns="http://www.w3.org/2000/svg">
<path d="M12.75 17.25H5.25C3.975 17.25 3 16.275 3 15V3C3 1.725 3.975 0.75 5.25 0.75H12.75C14.025 0.75 15 1.725 15 3V15C15 16.275 14.025 17.25 12.75 17.25ZM5.25 2.25C4.8 2.25 4.5 2.55 4.5 3V15C4.5 15.45 4.8 15.75 5.25 15.75H12.75C13.2 15.75 13.5 15.45 13.5 15V3C13.5 2.55 13.2 2.25 12.75 2.25H5.25Z" fill="#22252F"/>
<path d="M9 14.25C8.925 14.25 8.775 14.25 8.7 14.175C8.625 14.175 8.55 14.1 8.475 14.025C8.325 13.875 8.25 13.725 8.25 13.5C8.25 13.425 8.25 13.275 8.325 13.2C8.4 13.125 8.4 13.05 8.475 12.975C8.775 12.675 9.225 12.675 9.525 12.975C9.675 13.125 9.75 13.35 9.75 13.5C9.75 13.725 9.675 13.875 9.525 14.025C9.375 14.175 9.225 14.25 9 14.25Z" fill="#22252F"/>
</svg>
