<svg width="48" height="48" viewBox="0 0 48 48" fill="none" xmlns="http://www.w3.org/2000/svg">
<path d="M34 46H14C10.6 46 8 43.4 8 40V8C8 4.6 10.6 2 14 2H34C37.4 2 40 4.6 40 8V40C40 43.4 37.4 46 34 46ZM14 6C12.8 6 12 6.8 12 8V40C12 41.2 12.8 42 14 42H34C35.2 42 36 41.2 36 40V8C36 6.8 35.2 6 34 6H14Z" fill="#FAFBFF"/>
<path d="M24 38C23.8 38 23.4 38 23.2 37.8C23 37.8 22.8 37.6 22.6 37.4C22.2 37 22 36.6 22 36C22 35.8 22 35.4 22.2 35.2C22.4 35 22.4 34.8 22.6 34.6C23.4 33.8 24.6 33.8 25.4 34.6C25.8 35 26 35.6 26 36C26 36.6 25.8 37 25.4 37.4C25 37.8 24.6 38 24 38Z" fill="#FAFBFF"/>
</svg>
