<svg width="26" height="26" viewBox="0 0 26 26" fill="none" xmlns="http://www.w3.org/2000/svg">
<path fill-rule="evenodd" clip-rule="evenodd" d="M12.9997 1.08337C13.412 1.08337 13.7886 1.31745 13.9711 1.6872L17.0668 7.95871L23.9897 8.9706C24.3977 9.03022 24.7364 9.31623 24.8636 9.70841C24.9907 10.1006 24.8843 10.5309 24.5889 10.8186L19.5804 15.6969L20.7624 22.5886C20.8322 22.995 20.6651 23.4058 20.3314 23.6482C19.9978 23.8906 19.5555 23.9225 19.1905 23.7305L12.9997 20.4749L6.80895 23.7305C6.44395 23.9225 6.00164 23.8906 5.66799 23.6482C5.33435 23.4058 5.16725 22.995 5.23696 22.5886L6.41897 15.6969L1.4105 10.8186C1.11516 10.5309 1.0087 10.1006 1.13586 9.70841C1.26302 9.31623 1.60175 9.03022 2.00969 8.9706L8.93259 7.95871L12.0283 1.6872C12.2108 1.31745 12.5874 1.08337 12.9997 1.08337ZM12.9997 4.61423L10.6236 9.42788C10.466 9.7473 10.1614 9.9688 9.80889 10.0203L4.49382 10.7972L8.33892 14.5423C8.59445 14.7912 8.71108 15.1499 8.65078 15.5015L7.74357 20.791L12.4955 18.292C12.8111 18.126 13.1883 18.126 13.5039 18.292L18.2558 20.791L17.3486 15.5015C17.2883 15.1499 17.405 14.7912 17.6605 14.5423L21.5056 10.7972L16.1905 10.0203C15.8381 9.9688 15.5334 9.7473 15.3758 9.42788L12.9997 4.61423Z" fill="#9847A0"/>
</svg>
