<svg width="25" height="25" viewBox="0 0 25 25" fill="none" xmlns="http://www.w3.org/2000/svg">
<circle cx="12.5" cy="12.5" r="12.5" fill="#D8EFFF"/>
<path fill-rule="evenodd" clip-rule="evenodd" d="M7.63965 8.95828C7.63965 8.68981 7.85729 8.47217 8.12576 8.47217H11.5285C11.797 8.47217 12.0146 8.68981 12.0146 8.95828V12.3611C12.0146 12.6295 11.797 12.8472 11.5285 12.8472H8.12576C7.85729 12.8472 7.63965 12.6295 7.63965 12.3611V8.95828ZM8.61187 9.44439V11.8749H11.0424V9.44439H8.61187Z" fill="#00AFEF"/>
<path fill-rule="evenodd" clip-rule="evenodd" d="M12.9863 8.95828C12.9863 8.68981 13.204 8.47217 13.4724 8.47217H16.8752C17.1437 8.47217 17.3613 8.68981 17.3613 8.95828V12.3611C17.3613 12.6295 17.1437 12.8472 16.8752 12.8472H13.4724C13.204 12.8472 12.9863 12.6295 12.9863 12.3611V8.95828ZM13.9586 9.44439V11.8749H16.3891V9.44439H13.9586Z" fill="#00AFEF"/>
<path fill-rule="evenodd" clip-rule="evenodd" d="M12.9863 14.3054C12.9863 14.037 13.204 13.8193 13.4724 13.8193H16.8752C17.1437 13.8193 17.3613 14.037 17.3613 14.3054V17.7082C17.3613 17.9767 17.1437 18.1943 16.8752 18.1943H13.4724C13.204 18.1943 12.9863 17.9767 12.9863 17.7082V14.3054ZM13.9586 14.7916V17.2221H16.3891V14.7916H13.9586Z" fill="#00AFEF"/>
<path fill-rule="evenodd" clip-rule="evenodd" d="M7.63965 14.3054C7.63965 14.037 7.85729 13.8193 8.12576 13.8193H11.5285C11.797 13.8193 12.0146 14.037 12.0146 14.3054V17.7082C12.0146 17.9767 11.797 18.1943 11.5285 18.1943H8.12576C7.85729 18.1943 7.63965 17.9767 7.63965 17.7082V14.3054ZM8.61187 14.7916V17.2221H11.0424V14.7916H8.61187Z" fill="#00AFEF"/>
</svg>
