<svg width="232" height="232" viewBox="0 0 232 232" fill="none" xmlns="http://www.w3.org/2000/svg">
<rect width="232" height="232" fill="white"/>
<path fill-rule="evenodd" clip-rule="evenodd" d="M116.083 43.5029C170.707 52.679 208.8 83.8565 208.8 133.635C208.8 193.3 161.477 131.307 128.845 166.093C96.2134 200.88 26.6912 201.866 23.3656 133.635C20.2524 69.7625 61.4586 34.3269 116.083 43.5029Z" fill="#00AFEF"/>
<path fill-rule="evenodd" clip-rule="evenodd" d="M88.1604 139.959L102.61 121.268L102.942 121.53C105.076 123.208 106.768 124.314 108.019 124.847L108.389 125.004C114.397 127.531 118.528 128.39 117.864 128.983L117.042 129.722C111.732 134.515 104.461 141.486 95.2307 150.633C93.9665 151.995 92.2632 152.869 90.4229 153.103L88.5193 153.33C69.8344 155.542 57.8471 155.732 53.4544 154.76C52.537 154.557 49.7133 155.087 47.5814 157.229C44.3835 160.441 39.8104 168.178 39.0424 168.178C37.926 168.178 38.978 163.053 42.1986 152.803L42.5389 151.612C44.0394 146.41 45.1188 143.335 45.7771 142.385C46.4843 141.366 48.8729 143.166 52.9429 147.786L52.8326 148.387C53.3608 147.774 53.987 147.122 54.7112 146.431L56.6342 146.201C63.4279 145.376 68.5918 144.622 72.1261 143.938L72.4982 143.865C76.3274 143.106 81.5481 141.804 88.1604 139.959Z" fill="white"/>
<path fill-rule="evenodd" clip-rule="evenodd" d="M178.142 120.595L183.514 124.643C184.545 125.419 185.302 126.507 185.67 127.744L186.688 131.153C187.167 132.184 186.748 133.409 185.738 133.931L183.841 135.339C182.62 135.969 181.133 135.286 180.812 133.95L179.744 130.151C179.744 130.151 175.217 128.775 174.614 123.387L178.142 120.595Z" fill="white"/>
<path fill-rule="evenodd" clip-rule="evenodd" d="M152.246 54.1001C155.917 54.2495 157.762 59.2804 158.962 61.7673C159.371 62.6144 156.495 87.652 155.556 94.0589C153.882 105.469 148.825 109.087 145.651 109.863C145.651 109.863 145.841 122.835 144.511 126.064C141.567 133.213 104.297 128.414 100.655 116.466C98.1652 108.298 107.418 107.346 110.891 102.421C117.256 93.3948 117.586 84.9946 124.443 78.9853C127.041 76.1378 130.058 73.2796 132.66 69.8429L133.718 68.4501C140.336 59.78 145.375 54.0276 151.901 54.0913L152.246 54.1001Z" fill="white"/>
<path fill-rule="evenodd" clip-rule="evenodd" d="M133.839 75.8028C133.231 76.096 132.342 76.187 132.025 75.5914C131.029 73.7214 127.983 73.4642 126.689 75.141C127.931 74.7139 129.379 74.3063 130.49 75.0078C130.799 75.203 131.066 75.4767 131.33 75.7475C131.771 76.1985 132.203 76.6417 132.809 76.7011C133.26 76.7453 133.689 76.5556 134.116 76.3667C134.575 76.164 135.031 75.9624 135.508 76.0523C136.039 76.1521 136.411 76.574 136.783 76.9961C137.154 77.4169 137.525 77.8378 138.053 77.9398C138.485 78.0233 138.92 77.8682 139.35 77.7145C139.832 77.5427 140.308 77.3726 140.771 77.5395C141.324 77.7387 141.576 78.3084 141.829 78.8786C142.081 79.4458 142.333 80.0136 142.88 80.2178C143.205 80.3388 143.555 80.2949 143.901 80.2275L144.244 80.1573C145.053 79.9965 145.926 79.982 146.666 80.346C147.302 80.6588 147.803 81.3064 147.843 81.9974C147.86 81.8482 147.875 81.6994 147.887 81.551L148.016 80.7094C147.282 79.8487 146.129 79.3615 145 79.4365C144.807 79.4493 144.613 79.4776 144.42 79.5058C144.048 79.5602 143.677 79.6144 143.308 79.5583C142.747 79.4729 142.178 78.9957 142.272 78.4367L142.281 78.3764C142.383 77.4402 141.129 76.9032 140.165 76.9821C139.96 76.9988 139.75 77.0261 139.539 77.0535C138.735 77.1579 137.913 77.2647 137.281 76.8025C137.037 76.624 136.849 76.374 136.662 76.1264C136.401 75.7799 136.143 75.4382 135.742 75.3035C135.299 75.1546 134.849 75.3107 134.412 75.5181L134.267 75.5888L133.839 75.8028ZM126.846 82.3135C127.265 82.8752 128.126 82.5606 128.791 82.3177L128.826 82.3051C130.609 81.6545 132.758 82.1621 134.061 83.542C134.776 84.2986 135.833 84.0871 136.928 83.8682C137.842 83.6853 138.783 83.4972 139.571 83.864C139.94 84.0356 140.282 84.3257 140.617 84.6099C141.232 85.1308 141.823 85.6321 142.512 85.3483C143.818 84.8102 145.421 85.0972 146.47 86.039L146.466 86.3358L146.462 86.9904C145.419 85.9461 143.731 85.6079 142.367 86.1701C141.678 86.4539 141.087 85.9526 140.472 85.4317C140.137 85.1474 139.795 84.8573 139.426 84.6858C138.638 84.3189 137.697 84.507 136.783 84.6899C135.688 84.9089 134.631 85.1203 133.916 84.3638C132.639 83.0115 130.55 82.4968 128.788 83.0891L128.437 83.2152C127.81 83.4375 127.077 83.6395 126.701 83.1353C125.516 81.5447 123.137 80.9871 121.368 81.8856L121.597 81.0227L121.702 80.9747C123.447 80.2058 125.703 80.7788 126.846 82.3135ZM122.786 89.4063C122.13 89.6745 121.282 90.022 120.842 89.4768C120.041 88.4836 118.211 88.4112 115.352 89.2595C115.57 89.4079 116.134 89.3933 116.829 89.3752C118.139 89.3411 119.915 89.295 120.729 90.3035C121.123 90.7929 121.848 90.5629 122.466 90.3167L122.812 90.1773C124.55 89.5178 126.657 89.9519 127.985 91.2541C128.728 91.9827 129.777 91.7308 130.862 91.47C131.769 91.2522 132.702 91.0281 133.504 91.3644C133.879 91.5216 134.232 91.7984 134.578 92.0695C135.212 92.5665 135.822 93.0447 136.499 92.7347L136.593 92.6933C137.361 92.3694 138.836 92.9153 140.172 93.4101C141.144 93.7702 142.044 94.1031 142.544 94.0544C139.446 92.2315 137.469 91.5161 136.612 91.908L136.544 91.9366C135.894 92.1859 135.304 91.7231 134.691 91.2429C134.345 90.9717 133.992 90.6949 133.617 90.5377C132.815 90.2014 131.882 90.4255 130.975 90.6433C129.89 90.9041 128.842 91.156 128.099 90.4274C126.743 89.0986 124.577 88.6738 122.82 89.3924L122.786 89.4063ZM128.859 119.501C129.645 120.005 130.663 120.659 131.391 120.3C132.675 119.667 134.989 120.229 138.333 121.986L138.655 122.157C138.327 122.217 137.591 121.991 136.684 121.712C134.974 121.187 132.657 120.474 131.311 121.137C130.658 121.459 129.771 120.966 129.028 120.496L128.612 120.232C126.649 119.027 123.998 118.621 121.943 119.189C121.285 119.463 120.367 119.142 119.359 118.79C118.674 118.55 117.946 118.295 117.229 118.203C116.346 118.09 115.89 118.158 115.491 118.217C115.09 118.277 114.745 118.329 114.08 118.18C113.565 118.065 112.743 117.706 111.613 117.101C109.61 116.14 106.061 116.256 104.193 116.925L104.092 116.959C102.096 117.62 102.112 116.896 104.12 116.143L104.273 116.087L104.393 116.046C106.527 115.335 110.479 115.413 112.547 116.74L112.588 116.766C113.374 117.27 114.392 117.924 115.119 117.565L115.173 117.541C115.682 117.332 116.872 117.336 117.241 117.36L117.308 117.366C118.55 117.503 118.82 117.616 119.115 117.831L119.327 117.991L119.448 118.038C119.896 118.213 120.372 118.419 120.876 118.658C121.084 118.639 121.323 118.585 121.606 118.483L121.726 118.442C123.86 117.731 126.75 118.148 128.819 119.475L128.859 119.501ZM119.613 95.6635C120.078 96.2087 120.976 95.8612 121.67 95.593L121.706 95.5791C123.564 94.8605 125.857 95.2853 127.29 96.6142C128.077 97.3427 129.186 97.0908 130.334 96.8301C131.293 96.6122 132.28 96.3881 133.128 96.7244C133.525 96.8816 133.899 97.1584 134.265 97.4296C134.913 97.9098 135.537 98.3726 136.225 98.1233L136.297 98.0947C137.203 97.7028 139.295 98.4182 142.573 100.241C142.043 100.29 141.092 99.9569 140.063 99.5969C138.649 99.102 137.089 98.5561 136.277 98.88L136.178 98.9214C135.461 99.2314 134.816 98.7532 134.145 98.2563C133.779 97.9851 133.405 97.7083 133.009 97.5511C132.16 97.2148 131.173 97.4389 130.214 97.6567C129.066 97.9175 127.957 98.1694 127.171 97.4408C125.765 96.1386 123.536 95.7045 121.698 96.364L121.331 96.5034C120.677 96.7497 119.911 96.9796 119.494 96.4902C118.633 95.4817 116.754 95.5279 115.368 95.5619C114.633 95.58 114.036 95.5946 113.805 95.4462C116.83 94.5979 118.766 94.6703 119.613 95.6635ZM119.142 102.398C118.344 102.667 117.311 103.014 116.776 102.469C115.801 101.476 113.573 101.403 110.093 102.252C110.359 102.4 111.045 102.385 111.892 102.367C113.486 102.333 115.648 102.287 116.638 103.295C117.118 103.785 118 103.555 118.753 103.309L119.174 103.169C121.289 102.51 123.854 102.944 125.471 104.246C126.375 104.975 127.651 104.723 128.972 104.462C130.076 104.244 131.211 104.02 132.188 104.356C132.644 104.514 133.074 104.79 133.495 105.062C134.266 105.558 135.009 106.037 135.834 105.727L135.948 105.685C136.883 105.361 138.677 105.907 140.304 106.402C141.488 106.762 142.582 107.095 143.192 107.046C139.421 105.224 137.014 104.508 135.971 104.9L135.889 104.929C135.097 105.178 134.378 104.715 133.633 104.235C133.212 103.964 132.782 103.687 132.325 103.53C131.349 103.193 130.214 103.417 129.11 103.635C127.789 103.896 126.513 104.148 125.609 103.419C123.959 102.091 121.322 101.666 119.183 102.384L119.142 102.398ZM115.601 107.657L115.601 107.657L115.647 107.643C118.046 106.924 121.003 107.349 122.853 108.678C123.868 109.407 125.299 109.155 126.781 108.894C128.018 108.676 129.292 108.452 130.386 108.788C130.898 108.946 131.38 109.222 131.852 109.494C132.689 109.974 133.495 110.437 134.382 110.187L134.475 110.159C135.644 109.767 138.344 110.482 142.573 112.305C141.889 112.354 140.662 112.021 139.334 111.661L139.334 111.661C137.51 111.166 135.497 110.62 134.449 110.944L134.321 110.985C133.396 111.295 132.563 110.817 131.698 110.32C131.226 110.049 130.744 109.772 130.232 109.615C129.137 109.279 127.864 109.503 126.626 109.721C125.144 109.981 123.713 110.233 122.699 109.505C120.886 108.203 118.009 107.769 115.637 108.428L115.164 108.567C114.321 108.814 113.332 109.044 112.793 108.554C111.683 107.546 109.258 107.592 107.47 107.626C106.521 107.644 105.751 107.659 105.453 107.51C109.356 106.662 111.854 106.734 112.948 107.728C113.548 108.273 114.706 107.925 115.601 107.657ZM112.817 112.297C111.922 112.565 110.764 112.913 110.164 112.367C109.07 111.374 106.572 111.302 102.669 112.15C102.967 112.299 103.737 112.284 104.686 112.266H104.686C106.474 112.232 108.899 112.186 110.009 113.194C110.548 113.684 111.537 113.454 112.381 113.207L112.853 113.068C115.072 112.451 117.733 112.791 119.551 113.904C120.109 114.349 121.079 114.293 122.145 114.232C122.871 114.19 123.64 114.146 124.355 114.255C125.235 114.39 125.654 114.58 126.021 114.748C126.39 114.916 126.708 115.061 127.388 115.101C128.178 115.148 130.057 114.744 130.057 114.744C132.247 114.372 135.626 115.462 137.238 116.619L137.325 116.681C139.106 117.895 139.254 117.13 137.392 115.793L137.288 115.72C135.433 114.449 131.612 113.434 129.258 114.139L129.212 114.153C128.317 114.421 127.158 114.769 126.558 114.223C126.14 113.843 124.773 113.473 124.509 113.428C123.116 113.191 122.927 113.265 122.504 113.431L122.464 113.447C122.443 113.455 122.42 113.464 122.396 113.473L122.268 113.485C121.788 113.529 121.273 113.596 120.724 113.687C120.529 113.612 120.314 113.493 120.07 113.318L119.966 113.245C118.11 111.974 115.217 111.578 112.864 112.283L112.817 112.297Z" fill="#00AFEF"/>
<path fill-rule="evenodd" clip-rule="evenodd" d="M151.062 57.8664C156.281 57.8843 160.4 62.3119 160.048 67.5242C160.048 67.5242 153.962 93.9997 157.047 103.41C158.24 107.051 175.469 118.38 174.741 119.543L172.309 125.369C171.445 126.748 145.001 109.059 145.001 109.059C142.464 107.045 141.993 67.0036 141.993 67.0036C141.943 61.9608 146.023 57.8487 151.062 57.8664Z" fill="white"/>
<path d="M178.454 120.595L175.347 126.994L175.284 127.165C175.026 127.828 174.038 128.234 173.911 128.266L173.892 128.266L172.057 127.18C171.846 127.004 171.731 126.013 171.954 125.091L172.006 124.898C172.006 124.898 173.461 119.787 174.666 118.496C175.369 117.744 179.428 118.496 178.454 120.595Z" fill="white"/>
<path fill-rule="evenodd" clip-rule="evenodd" d="M134.182 179.608H126.763C126.763 179.608 135.47 157.002 135.47 151.07C135.47 149.23 128.626 152.002 129.619 149.23C130.984 145.418 135.708 138.601 134.545 135.18C133.328 131.601 128.789 130.305 124.836 128.854C124.078 128.576 137.895 129.536 141.685 126.521C146.685 122.544 142.626 113.762 143.968 116.859C145.588 120.595 156.114 129.968 154.028 140.117C151.995 150.005 134.182 179.608 134.182 179.608Z" fill="white"/>
<path fill-rule="evenodd" clip-rule="evenodd" d="M131.61 183.967L130.971 183.755C130.888 183.728 130.878 183.614 130.955 183.572L131.569 183.239V182.455C131.569 182.369 131.67 182.323 131.735 182.38L132.244 182.827L133.076 182.389C133.164 182.343 133.258 182.439 133.211 182.526L132.735 183.394L133.669 184.371C133.74 184.444 133.668 184.564 133.569 184.536L132.284 184.165L131.797 185.023C131.746 185.112 131.61 185.076 131.61 184.973V184.66V183.967Z" fill="#00AFEF"/>
<path fill-rule="evenodd" clip-rule="evenodd" d="M112.802 134.076C112.479 134.41 112.16 134.749 111.842 135.088C111.239 135.729 110.636 136.369 110.007 136.984C108.831 138.134 107.643 139.278 106.395 140.348C104.846 141.675 103.26 142.961 101.637 144.196C99.8006 145.593 97.9202 146.934 96.0312 148.26C95.9316 148.329 95.8323 148.4 95.7329 148.47L95.731 148.472C94.7675 149.155 93.8046 149.838 92.567 150.049C92.2135 150.109 91.8828 150.287 91.5501 150.465C91.2851 150.607 91.0189 150.75 90.7388 150.835C88.8082 151.42 86.8677 151.977 84.915 152.483C83.716 152.793 82.492 153.015 81.2708 153.228C80.5107 153.36 76.1572 154.052 73.261 154.472C70.3649 154.893 60.7864 154.893 58.3951 154.843C57.0532 154.815 55.7115 154.768 54.3703 154.717L54.3011 154.715C54.0277 154.705 53.7373 154.695 53.4998 154.587C52.1825 153.99 51.1632 154.64 50.1303 155.299L50.0559 155.346C48.6998 156.21 47.8699 157.51 47.0498 158.841C46.6141 159.548 46.1524 160.239 45.6908 160.93L45.6905 160.93C45.1938 161.674 44.6971 162.418 44.2328 163.181C43.6179 164.192 43.0696 165.245 42.5218 166.296C42.4234 166.485 42.3249 166.674 42.2261 166.862C41.502 168.245 40.4158 169.049 38.8573 169.346C38.0826 169.494 37.4191 169.264 36.7571 169.035C36.5118 168.95 36.2667 168.865 36.0163 168.799C35.5261 168.671 35.131 167.346 35.3058 166.822C35.816 165.292 36.3273 163.763 36.8386 162.233L36.8401 162.229L36.8403 162.228C37.9083 159.033 38.9763 155.838 40.035 152.64C40.7747 150.405 41.4969 148.165 42.2192 145.925L42.2199 145.923C42.4236 145.291 42.6273 144.659 42.8315 144.027C42.9288 143.726 43.0212 143.423 43.1137 143.12C43.2669 142.618 43.4201 142.116 43.5956 141.621C43.653 141.459 43.8908 141.26 44.0525 141.253C45.221 141.206 46.3429 141.493 47.4089 141.93C49.4241 142.757 50.9748 144.152 52.1131 146.009C52.4149 146.501 52.9417 146.678 53.6061 146.561C53.9263 146.504 54.2493 146.462 54.5723 146.419L54.5725 146.419L54.5726 146.419L54.5728 146.419L54.573 146.419L54.5732 146.419L54.5733 146.419L54.5735 146.419C55.0674 146.354 55.5609 146.288 56.0431 146.174C57.1156 145.92 58.2012 145.911 59.2864 145.902C59.9852 145.897 60.6838 145.891 61.3787 145.82C61.8562 145.771 62.3362 145.743 62.8161 145.715L62.8166 145.715C63.4576 145.678 64.0983 145.641 64.7325 145.553C65.8865 145.395 67.0349 145.195 68.1833 144.994L68.1856 144.994L68.1878 144.994L68.1901 144.993C68.732 144.899 69.2739 144.804 69.8165 144.714C70.2577 144.641 70.6996 144.572 71.1416 144.503L71.1417 144.503L71.1418 144.503L71.1418 144.503L71.1419 144.503L71.142 144.503L71.1421 144.503L71.1422 144.503C71.9938 144.369 72.8454 144.236 73.6914 144.074C74.7731 143.866 75.8464 143.613 76.919 143.36L76.9194 143.36L76.9197 143.36L76.92 143.36L76.9204 143.36L76.9207 143.36L76.921 143.359L76.9214 143.359L77.3093 143.268C78.4444 143.001 79.5776 142.725 80.7107 142.449C81.1865 142.333 81.6622 142.218 82.1381 142.102C82.1891 142.09 82.2398 142.077 82.2906 142.064L82.3617 142.046L82.3374 142.033L82.3216 142.025L82.284 142.005C82.2277 141.976 82.1715 141.947 82.1177 141.914C81.9528 141.812 81.783 141.716 81.6132 141.62C81.2256 141.4 80.8378 141.181 80.5077 140.894C79.7658 140.251 80.0195 139.181 80.9625 138.896C81.6814 138.679 82.4223 138.461 83.1647 138.411C84.1647 138.344 85.0757 138.012 85.9879 137.68L85.988 137.68L85.9882 137.68L85.9883 137.68L85.9884 137.679L85.9885 137.679L85.9886 137.679L85.9887 137.679C86.3548 137.546 86.7211 137.412 87.0934 137.296C87.9726 137.021 88.5001 136.504 88.9416 135.712C89.1542 135.331 89.4658 135.007 89.7787 134.682C89.9989 134.454 90.2199 134.224 90.4075 133.973C91.3797 132.674 92.3249 131.354 93.2452 130.017C93.441 129.733 93.598 129.422 93.7552 129.111C93.8753 128.874 93.9955 128.636 94.1333 128.409C94.4562 127.878 94.7849 127.341 95.1838 126.868L95.236 126.806C96.1509 125.721 97.0686 124.633 98.0637 123.624C98.6061 123.074 99.2048 122.58 99.8036 122.086L99.8038 122.085L99.8041 122.085C100.087 121.852 100.37 121.618 100.647 121.379C100.787 121.258 100.921 121.127 101.039 120.985C101.24 120.74 101.323 120.537 101.019 120.248C100.94 120.173 100.86 120.098 100.78 120.023C99.9845 119.275 99.1816 118.52 98.7468 117.485C98.7016 117.378 98.656 117.27 98.6103 117.162L98.61 117.162L98.6096 117.161L98.6093 117.16C98.2604 116.336 97.9081 115.505 97.7095 114.642C97.4422 113.481 97.55 112.299 97.8961 111.129C98.3804 109.492 99.3944 108.252 100.768 107.361C101.615 106.812 102.506 106.332 103.398 105.851C104.059 105.495 104.72 105.139 105.363 104.755C105.86 104.458 106.286 104.025 106.701 103.604L106.819 103.483C108.688 101.593 109.989 99.3058 111.286 97.0272C111.424 96.785 111.562 96.543 111.7 96.3015C112.954 94.1142 114.079 91.8505 115.2 89.5904C115.523 88.9395 115.8 88.2657 116.076 87.5919C116.321 86.9962 116.566 86.4004 116.843 85.8202C117.061 85.3616 117.331 84.9279 117.601 84.4938L117.601 84.4937C117.799 84.1747 117.997 83.8555 118.176 83.5262C118.367 83.1725 118.542 82.809 118.717 82.4457C118.982 81.8953 119.246 81.3454 119.568 80.8309C119.798 80.4633 120.132 80.1602 120.465 79.8575L120.465 79.8574L120.465 79.8573L120.465 79.8572L120.465 79.8571L120.465 79.857L120.465 79.8568L120.466 79.8567C120.605 79.7303 120.744 79.6039 120.875 79.4728C121.039 79.3092 121.206 79.1484 121.373 78.9876C121.547 78.82 121.722 78.6524 121.892 78.4815C122.194 78.1802 122.491 77.8748 122.78 77.5615C123.333 76.9615 123.889 76.3641 124.444 75.7667L124.445 75.7655L124.447 75.7644L124.448 75.7632L124.449 75.7621L124.45 75.7609L124.451 75.7597L124.451 75.7593C125.827 74.2806 127.203 72.802 128.533 71.2834C130.092 69.504 131.575 67.6551 133.031 65.79C133.611 65.0484 134.133 64.262 134.655 63.4757C134.887 63.1255 135.119 62.7753 135.357 62.4291C135.37 62.4096 135.381 62.3882 135.392 62.3669L135.392 62.3667C135.408 62.3362 135.424 62.3058 135.446 62.2813C135.823 61.8664 136.196 61.4476 136.568 61.0287L136.568 61.0286L136.569 61.0285L136.569 61.0283L136.569 61.0282L136.569 61.0281L136.569 61.0279L136.57 61.0272C137.446 60.0426 138.322 59.0579 139.249 58.1239C140.625 56.738 142.201 55.5888 143.911 54.6318C144.172 54.4858 144.424 54.3201 144.675 54.1547C145.071 53.894 145.466 53.6338 145.895 53.4523C145.996 53.4094 146.098 53.3655 146.201 53.3214C147.021 52.9691 147.88 52.5998 148.727 52.5825C150.513 52.5459 152.369 52.5661 153.869 53.8285C154.153 54.0677 154.228 54.0113 154.255 53.6914C154.281 53.3859 154.332 53.0714 154.384 52.7567L154.384 52.7566C154.505 52.0234 154.626 51.2897 154.415 50.6692C154.288 50.2941 154.244 49.9155 154.2 49.5402C154.15 49.1157 154.1 48.6953 153.932 48.2889C153.37 46.9302 152.868 45.5461 152.366 44.1626C152.291 43.9544 152.215 43.7463 152.14 43.5383C151.983 43.1066 151.855 42.6531 151.797 42.1989C151.755 41.8743 151.741 41.5461 151.727 41.2179C151.713 40.881 151.698 40.5442 151.654 40.2114C151.497 39.0273 151.907 37.987 152.319 36.9425C152.395 36.7518 152.47 36.561 152.542 36.3691C153.417 34.0321 155.058 32.2647 156.829 30.6049C158.355 29.1759 160.881 28.7263 162.924 28.3739C163.679 28.2437 168.976 28.1192 171.774 28.0535C172.686 28.032 173.333 28.0168 173.469 28.0097C174.02 27.9809 174.394 27.7242 174.768 27.4487C175.539 26.8799 175.737 25.9978 175.932 25.1299C175.951 25.0443 175.97 24.9588 175.99 24.8738C175.995 24.8532 175.999 24.833 176.004 24.8133C176.054 24.5856 176.089 24.4261 176.431 24.4376C177.574 24.476 178.161 25.2219 178.721 26.0744C179.351 27.0343 179.861 28.0352 180.036 29.1793C180.249 30.5725 180.135 31.8665 179.144 33.0138C178.338 33.9469 177.4 34.66 176.341 35.2584C176.2 35.3379 176.111 35.7585 176.189 35.9382C176.988 37.7798 177.047 39.7211 176.969 41.6702C176.95 42.1432 176.874 42.6137 176.797 43.0843L176.797 43.0845C176.724 43.5305 176.652 43.9766 176.628 44.425C176.56 45.7111 176.823 46.948 177.339 48.1441C177.689 48.9555 177.443 49.7239 176.856 50.3616C176.756 50.4709 176.631 50.5623 176.506 50.653C176.332 50.7805 176.159 50.9065 176.06 51.0784C175.837 51.4671 175.682 51.9349 175.646 52.3807C175.618 52.722 175.655 53.0676 175.692 53.4141C175.714 53.6294 175.737 53.8449 175.745 54.0599C175.773 54.8876 175.459 55.5954 175.034 56.302C174.266 57.5805 173.252 58.5211 171.78 58.8291C170.519 59.0929 169.21 59.1086 167.992 58.6936C166.61 58.2225 165.262 57.6195 163.962 56.9524C163.592 56.763 163.3 56.4227 163.008 56.0826L163.008 56.0825C162.877 55.9304 162.746 55.7783 162.609 55.6397C162.405 55.4346 162.302 55.375 162.031 55.6617C161.064 56.6858 160.362 57.849 159.794 59.1334C159.48 59.8423 159.683 60.4249 159.9 61.0455L159.925 61.1185L159.987 61.2956C160.287 62.1548 160.586 63.0098 160.563 63.95C160.551 64.4155 160.56 64.8823 160.569 65.3489V65.3491V65.3493V65.3495V65.3498V65.35V65.3502V65.3504V65.3507V65.3508V65.3509V65.351V65.3511V65.3512V65.3513C160.584 66.089 160.598 66.8262 160.531 67.5564C160.459 68.3378 160.284 69.1099 160.108 69.8817L160.108 69.8818C160.038 70.1924 159.967 70.503 159.903 70.8141C159.836 71.1443 159.77 71.4748 159.703 71.8054C159.503 72.8056 159.302 73.806 159.062 74.7967C158.951 75.2553 158.799 75.7036 158.646 76.152L158.646 76.1521L158.646 76.1523L158.646 76.1524L158.646 76.1525L158.646 76.1527L158.646 76.1528L158.646 76.1529C158.521 76.5196 158.397 76.8863 158.295 77.259C158.177 77.6892 158.057 78.1191 157.938 78.549L157.937 78.5522L157.936 78.5555L157.936 78.5556C157.47 80.2351 157.003 81.9151 156.625 83.6146C156.302 85.07 156.116 86.5673 156.007 88.056C155.939 88.9866 155.949 89.9226 155.96 90.859V90.8591V90.8592V90.8594V90.8595V90.8596V90.8598V90.8599C155.965 91.3778 155.971 91.8957 155.963 92.4129C155.958 92.8038 155.937 93.1946 155.917 93.5853L155.917 93.5856L155.917 93.5859C155.891 94.0827 155.865 94.5794 155.87 95.0759C155.871 95.2741 155.873 95.4724 155.874 95.6707C155.883 96.9825 155.891 98.2967 156.007 99.6002C156.122 100.901 156.368 102.196 156.653 103.472C156.888 104.521 157.606 105.331 158.319 106.09C158.691 106.486 159.102 106.843 159.514 107.2L159.514 107.2L159.514 107.2L159.515 107.2L159.515 107.2L159.515 107.2L159.515 107.201L159.515 107.201C159.803 107.45 160.091 107.7 160.365 107.963C160.553 108.143 160.722 108.344 160.891 108.545L160.891 108.545L160.891 108.545L160.891 108.545L160.891 108.545L160.891 108.545L160.892 108.545L160.892 108.545L160.892 108.545C161.102 108.795 161.312 109.044 161.557 109.253C162.358 109.934 163.172 110.599 163.986 111.264L163.987 111.264L163.988 111.265L163.988 111.266L163.989 111.266L163.99 111.267L163.991 111.267L163.991 111.268L163.992 111.269C164.608 111.772 165.224 112.275 165.835 112.785C166.383 113.244 166.924 113.712 167.464 114.181L167.465 114.181C168.011 114.655 168.558 115.129 169.113 115.592C169.871 116.226 170.64 116.851 171.444 117.425C171.822 117.695 172.218 117.94 172.614 118.186L172.614 118.186C173.024 118.44 173.433 118.693 173.823 118.975C174.291 119.312 174.654 119.122 175.015 118.933C175.14 118.868 175.264 118.803 175.392 118.76C176.432 118.408 177.255 118.541 177.646 119.541C177.724 119.742 177.843 119.922 177.963 120.104L177.963 120.104C178.182 120.434 178.403 120.767 178.384 121.233C178.378 121.379 178.692 121.553 178.962 121.701C179.026 121.737 179.088 121.771 179.142 121.803C179.935 122.271 180.737 122.722 181.539 123.173C181.711 123.269 181.888 123.357 182.065 123.444C182.406 123.613 182.746 123.781 183.042 124.008C183.343 124.239 183.617 124.507 183.89 124.774L183.891 124.775C184.165 125.043 184.439 125.311 184.741 125.543C185.364 126.019 185.717 126.676 186.068 127.328C186.197 127.567 186.325 127.806 186.467 128.035C186.858 128.669 187.083 129.446 187.213 130.189C187.388 131.19 187.46 132.22 187.455 133.237C187.454 133.662 187.196 134.118 186.959 134.501C186.704 134.914 186.322 134.973 185.953 134.574C185.923 134.541 185.881 134.52 185.838 134.498L185.838 134.498C185.819 134.488 185.799 134.478 185.781 134.467C185.778 134.492 185.775 134.517 185.773 134.542V134.542C185.767 134.596 185.761 134.65 185.754 134.704C185.73 134.875 185.711 135.047 185.693 135.219C185.646 135.644 185.6 136.068 185.481 136.47C185.401 136.74 185.055 137.097 184.815 137.108C184.63 137.117 184.436 136.945 184.244 136.775L184.244 136.775C184.167 136.707 184.09 136.639 184.014 136.583C183.94 136.529 183.877 136.458 183.815 136.388L183.815 136.388L183.795 136.366C183.757 136.322 183.722 136.275 183.688 136.227L183.672 136.206L183.656 136.184L183.642 136.164C183.63 136.189 183.619 136.213 183.607 136.238C183.582 136.292 183.557 136.346 183.53 136.398C183.516 136.426 183.503 136.454 183.49 136.483C183.471 136.525 183.453 136.569 183.435 136.613C183.367 136.776 183.299 136.94 183.181 137.052C182.728 137.484 182.118 137.315 181.931 136.709C181.834 136.394 181.753 136.073 181.672 135.753L181.672 135.752L181.672 135.752C181.56 135.308 181.449 134.864 181.293 134.436C181.229 134.259 181.177 134.079 181.124 133.899C180.969 133.372 180.814 132.843 180.38 132.399C180.067 132.079 179.876 131.638 179.686 131.199L179.685 131.199C179.611 131.028 179.537 130.857 179.456 130.694C178.969 129.713 178.164 129.071 177.233 128.553C176.98 128.412 176.728 128.258 176.508 128.071C176.02 127.656 175.682 127.882 175.385 128.304C174.895 129.001 174.081 129.258 173.325 128.856C172.166 128.241 171.22 127.432 170.905 126.048C170.846 125.791 170.468 125.565 170.191 125.409C169.356 124.938 168.517 124.476 167.677 124.014C166.285 123.248 164.893 122.483 163.524 121.677C161.816 120.672 160.152 119.59 158.489 118.51L157.988 118.184C155.366 116.481 152.754 114.764 150.142 113.046L150.141 113.045L148.61 112.038C148.037 111.662 147.468 111.28 146.9 110.897L146.899 110.897C146.502 110.63 146.104 110.363 145.706 110.098C145.547 109.992 145.379 109.897 145.206 109.815C144.691 109.572 144.539 109.659 144.498 110.212C144.497 110.225 144.497 110.238 144.498 110.25L144.498 110.251C144.498 110.259 144.498 110.266 144.498 110.274L144.465 112.59C144.435 114.729 144.405 116.867 144.374 119.006C144.364 119.688 144.721 120.211 145.073 120.726L145.143 120.828L145.187 120.895C145.203 120.918 145.219 120.941 145.234 120.965L145.263 121.009L145.283 121.04C146.525 122.963 147.792 124.87 149.072 126.767C149.423 127.288 149.787 127.799 150.15 128.311L150.15 128.311L150.151 128.312L150.151 128.312L150.151 128.313C150.7 129.086 151.249 129.859 151.754 130.66C152.01 131.066 152.163 131.537 152.316 132.009C152.383 132.216 152.45 132.423 152.526 132.624C152.561 132.716 152.597 132.807 152.633 132.898L152.634 132.899C152.732 133.145 152.83 133.391 152.892 133.647C153.39 135.71 153.166 137.757 152.673 139.781L152.63 139.958L152.574 140.188C152.268 141.453 151.961 142.724 151.514 143.94C151.156 144.915 150.709 145.857 150.262 146.8L150.262 146.8C150.047 147.254 149.831 147.708 149.626 148.165C149.267 148.965 148.92 149.769 148.577 150.576C147.996 151.943 147.417 153.311 146.846 154.682C146.639 155.179 146.439 155.678 146.239 156.178L146.239 156.179L146.238 156.179L146.238 156.18L146.238 156.181L146.237 156.182L146.237 156.182C145.836 157.185 145.434 158.187 144.978 159.164C144.32 160.571 143.59 161.945 142.86 163.317C142.755 163.514 142.65 163.711 142.546 163.908C142.09 164.767 141.623 165.62 141.156 166.473L141.155 166.475C140.702 167.301 140.25 168.127 139.808 168.959C139.405 169.717 139.013 170.481 138.62 171.244L138.62 171.246C138.2 172.063 137.781 172.88 137.348 173.69C136.733 174.84 136.089 175.975 135.426 177.098C134.874 178.033 135.034 178.469 135.673 179.33C136.365 180.263 137.44 180.575 138.507 180.818C141.434 181.487 144.368 182.128 147.301 182.77L147.446 182.801C147.741 182.866 148.04 182.914 148.339 182.962L148.339 182.962L148.34 182.962L148.34 182.962L148.34 182.962L148.34 182.962L148.341 182.962C148.676 183.016 149.012 183.07 149.342 183.148C150.994 183.534 151.823 184.749 152.264 186.257C152.547 187.221 152.63 188.256 151.862 189.058C151.572 189.36 151.042 189.585 150.621 189.587C145.19 189.605 139.759 189.608 134.327 189.611C130.906 189.613 127.486 189.615 124.065 189.62C123.666 189.621 123.637 189.501 123.607 189.151C123.576 188.794 123.513 188.438 123.45 188.083C123.356 187.561 123.264 187.04 123.275 186.52C123.33 184.023 124.205 181.787 125.736 179.823C125.847 179.682 126.026 179.588 126.203 179.495C126.399 179.392 126.593 179.291 126.686 179.127C127.132 178.337 127.515 177.498 127.808 176.639C128.278 175.263 128.745 173.874 129.047 172.456C129.185 171.804 129.385 171.172 129.585 170.54L129.585 170.54C129.834 169.754 130.083 168.967 130.215 168.14C130.354 167.266 130.717 166.425 131.078 165.588L131.078 165.588C131.19 165.329 131.302 165.07 131.406 164.81C131.763 163.927 132.132 163.048 132.501 162.17L132.501 162.169L132.501 162.168L132.501 162.167L132.502 162.167L132.502 162.166L132.502 162.165L132.503 162.164L132.503 162.164C133.077 160.796 133.65 159.429 134.18 158.044C134.557 157.057 134.87 156.046 135.183 155.034L135.183 155.034C135.362 154.456 135.541 153.879 135.731 153.305C136.135 152.093 136.545 150.881 137.007 149.69C137.111 149.423 137.053 149.418 136.907 149.407C136.88 149.404 136.849 149.402 136.817 149.398C134.866 149.139 132.945 149.161 131.126 150.029C130.727 150.22 130.447 150.18 130.183 149.849C129.914 149.511 130.054 149.264 130.292 148.953C131.714 147.102 132.597 144.993 133.274 142.769C133.345 142.536 133.418 142.303 133.491 142.071C133.931 140.669 134.37 139.272 134.358 137.782C134.349 136.653 134.071 135.641 133.295 134.697C133.124 134.49 132.968 134.273 132.812 134.056L132.812 134.056L132.812 134.056L132.812 134.056L132.812 134.056L132.812 134.056L132.812 134.056C132.346 133.41 131.887 132.773 131.089 132.44C130.684 132.271 130.285 132.089 129.886 131.907C129.471 131.718 129.056 131.529 128.635 131.354C128.314 131.222 127.995 131.088 127.675 130.954C126.414 130.427 125.154 129.899 123.868 129.444C123.087 129.167 122.278 128.969 121.469 128.771L121.469 128.771C121.101 128.681 120.734 128.591 120.369 128.493C120.297 128.474 120.226 128.452 120.155 128.429L120.155 128.429L120.105 128.413L120.074 128.403C120.044 128.394 120.015 128.385 119.985 128.377C119.154 128.139 118.428 128.18 117.864 128.982C117.616 129.334 117.276 129.621 116.919 129.921L116.919 129.921C116.849 129.981 116.777 130.041 116.706 130.102C115.363 131.426 114.08 132.749 112.802 134.076ZM143.269 111.599C143.31 111.304 143.369 111.012 143.427 110.72L143.427 110.72C143.499 110.361 143.57 110.003 143.609 109.642L143.62 109.541C143.703 108.765 143.788 107.978 143.733 107.206C143.704 106.807 143.598 106.414 143.492 106.02L143.491 106.02C143.405 105.701 143.319 105.382 143.273 105.058C143.034 103.354 142.82 101.646 142.654 99.9336C142.51 98.4453 142.414 96.9521 142.318 95.4594L142.318 95.4586L142.278 94.8307C142.181 93.3402 142.091 91.8487 142.033 90.3563C141.977 88.9253 141.949 87.4932 141.921 86.0612V86.0608L141.91 85.4595C141.908 85.3694 141.939 85.2792 141.969 85.1883C141.989 85.1304 142.009 85.0722 142.02 85.0136C142.033 84.9475 142.049 84.8809 142.065 84.8141C142.109 84.6298 142.154 84.4444 142.137 84.2652C142.119 84.0681 142.075 83.8717 142.031 83.6759C141.971 83.4103 141.911 83.1457 141.918 82.8817C141.962 81.1323 142.041 79.3838 142.12 77.6353L142.155 76.8608C142.171 76.4851 142.22 76.1092 142.277 75.7371C142.439 74.6862 142.607 73.6363 142.775 72.5864L142.893 71.8491C142.907 71.7636 142.925 71.6789 142.943 71.5941L142.96 71.5179L142.968 71.4763C142.973 71.52 142.979 71.5637 142.986 71.6074C142.999 71.7014 143.012 71.7954 143.014 71.8896C143.053 73.8569 143.089 75.8243 143.126 77.7917L143.139 78.5182C143.151 79.1764 143.164 79.8346 143.177 80.4928L143.177 80.4994C143.207 82.0692 143.237 83.6389 143.262 85.2087C143.278 86.2487 143.291 87.2889 143.303 88.329C143.327 90.2201 143.35 92.1112 143.395 94.0019C143.428 95.412 143.518 96.8231 143.643 98.2283C143.735 99.2594 143.869 100.287 144.003 101.314C144.045 101.64 144.088 101.966 144.129 102.292C144.186 102.747 144.249 103.202 144.312 103.658C144.421 104.453 144.531 105.248 144.613 106.046C144.717 107.06 145.205 107.882 145.907 108.532C146.42 109.006 146.998 109.411 147.576 109.815C147.804 109.974 148.032 110.134 148.256 110.298C148.724 110.64 149.19 110.986 149.657 111.331C150.826 112.198 151.996 113.065 153.198 113.884C154.272 114.616 155.378 115.302 156.483 115.988C157.019 116.32 157.554 116.652 158.086 116.99C158.597 117.314 159.106 117.642 159.615 117.969L159.615 117.969C160.52 118.551 161.424 119.133 162.34 119.697L162.513 119.803L162.514 119.804L162.515 119.804C164.192 120.838 165.871 121.872 167.589 122.835C168.406 123.294 169.272 123.666 170.136 124.037C170.358 124.132 170.58 124.227 170.8 124.324C170.928 124.38 171.224 124.316 171.285 124.214C171.429 123.972 171.522 123.698 171.615 123.426L171.615 123.426C171.634 123.372 171.652 123.318 171.671 123.264C172.032 122.233 172.489 121.271 173.269 120.469C173.857 119.863 173.775 119.681 172.957 119.337L172.895 119.311L172.82 119.279L172.82 119.279C172.478 119.137 172.134 118.993 171.824 118.797C171.247 118.434 170.687 118.039 170.148 117.621C169.674 117.252 169.198 116.885 168.723 116.518L168.721 116.516L168.718 116.515L168.716 116.513L168.714 116.511L168.712 116.51L168.711 116.509C167.095 115.262 165.479 114.014 163.908 112.713C162.445 111.501 161.054 110.195 159.693 108.868C159.503 108.683 159.311 108.5 159.12 108.317C157.961 107.209 156.797 106.097 156.062 104.627C155.962 104.426 155.845 104.232 155.729 104.038C155.391 103.475 155.053 102.912 155.103 102.172C155.133 101.72 155.073 101.26 155.012 100.802L155.012 100.802C154.99 100.636 154.968 100.47 154.951 100.305C154.903 99.8575 154.847 99.4108 154.791 98.9641C154.675 98.0513 154.56 97.1385 154.521 96.2225C154.469 94.9853 154.481 93.7455 154.493 92.5056V92.5052C154.498 91.9714 154.503 91.4376 154.503 90.9041C154.503 90.7788 154.499 90.6531 154.496 90.5274C154.488 90.253 154.48 89.9786 154.51 89.7085C154.657 88.3934 154.806 87.0777 155.004 85.7697C155.043 85.5142 155.08 85.2583 155.118 85.0023C155.303 83.7496 155.487 82.4943 155.792 81.2706C156.058 80.2036 156.385 79.1521 156.712 78.1004L156.712 78.1002C156.97 77.2681 157.229 76.4359 157.457 75.5958C157.622 74.9915 157.803 74.3914 157.984 73.7912C158.437 72.289 158.891 70.7864 159.083 69.215C159.125 68.8728 159.212 68.532 159.298 68.1923L159.298 68.1922L159.298 68.1921L159.298 68.1919L159.298 68.1918L159.298 68.1917L159.298 68.1915L159.298 68.1914C159.425 67.6913 159.552 67.1938 159.534 66.6985C159.471 64.9093 158.972 63.1851 158.47 61.464C157.721 58.8929 156.421 56.7485 154.171 55.2221C152.873 54.3415 151.514 53.6967 149.903 53.9039C149.319 53.9791 148.741 54.0995 148.163 54.22C147.885 54.278 147.607 54.3359 147.328 54.3889C145.746 54.6891 144.345 55.3875 143.084 56.3692C142.346 56.9439 141.625 57.5433 140.924 58.1629C140.224 58.7825 139.523 59.409 138.884 60.0909C138.291 60.7249 137.738 61.3984 137.186 62.0713L137.186 62.0716L137.185 62.0722C137.065 62.2185 136.945 62.3648 136.825 62.5107C135.876 63.6602 134.93 64.8121 134.001 65.9784C133.595 66.489 133.197 67.0064 132.798 67.5238L132.798 67.5239L132.798 67.524L132.798 67.524L132.798 67.5241L132.798 67.5242L132.798 67.5242L132.798 67.5243C132.196 68.3065 131.594 69.0886 130.964 69.8473C129.821 71.223 128.634 72.564 127.43 73.887C125.776 75.705 124.092 77.4966 122.409 79.2878C122.265 79.4405 122.1 79.5737 121.935 79.7067C121.737 79.8662 121.54 80.0253 121.381 80.2173C120.163 81.6885 119.015 83.2231 118.2 84.9562C117.449 86.5542 116.725 88.1652 116.001 89.7761C115.35 91.2241 114.7 92.672 114.029 94.1106C112.943 96.4425 111.746 98.714 110.303 100.858L110.197 101.016C109.423 102.166 108.65 103.316 107.56 104.155C106.139 105.247 104.66 106.264 103.182 107.28C102.796 107.546 102.41 107.811 102.025 108.078C100.778 108.942 99.7908 110.033 99.3056 111.469C98.7098 113.233 99.0145 114.984 99.8464 116.592C100.87 118.571 102.491 120.083 104.145 121.524C105.981 123.124 108.115 124.271 110.417 125.008C113.376 125.955 116.352 126.876 119.482 127.144C120.3 127.214 121.115 127.322 121.931 127.429L121.931 127.429C122.84 127.549 123.749 127.668 124.662 127.736C126.681 127.887 128.709 127.971 130.734 127.982C131.645 127.987 132.555 127.924 133.466 127.86C134.045 127.82 134.623 127.78 135.202 127.757C136.774 127.696 138.264 127.282 139.732 126.761C140.718 126.41 141.63 125.928 141.99 124.863C142.2 124.243 142.304 123.58 142.39 122.927L142.413 122.759C142.595 121.381 142.777 120.002 142.881 118.617C142.976 117.342 143.026 116.063 143.077 114.737L143.077 114.735C143.097 114.236 143.117 113.731 143.139 113.216C143.152 113.05 143.162 112.884 143.172 112.718C143.195 112.344 143.218 111.969 143.269 111.599ZM90.9591 149.153C91.0249 149.213 91.1754 149.251 91.2494 149.217C91.5866 149.064 91.9297 148.919 92.273 148.774L92.273 148.774L92.2731 148.774L92.2732 148.774L92.2732 148.774L92.2733 148.774L92.2734 148.774L92.2743 148.773C93.1121 148.42 93.9505 148.066 94.7055 147.583C96.0534 146.719 97.3686 145.804 98.6839 144.89L98.684 144.89C99.7161 144.172 100.748 143.454 101.797 142.761C104.082 141.249 106.087 139.408 108.091 137.567L108.091 137.567L108.092 137.566L108.092 137.566L108.092 137.566L108.093 137.566L108.093 137.565C108.483 137.207 108.873 136.849 109.265 136.493C109.874 135.94 110.448 135.346 111.021 134.753L111.021 134.753C111.145 134.625 111.269 134.497 111.393 134.369C112.072 133.67 112.744 132.966 113.417 132.261L113.418 132.26L113.419 132.259L113.421 132.258L113.422 132.256L113.423 132.255L113.424 132.254L113.425 132.252C113.719 131.945 114.012 131.638 114.305 131.332C114.516 131.112 114.727 130.893 114.938 130.673L114.938 130.673C115.705 129.876 116.471 129.08 117.213 128.262C117.301 128.165 117.191 127.684 117.091 127.654C116.67 127.526 116.242 127.422 115.813 127.318L115.813 127.318C115.269 127.186 114.726 127.054 114.199 126.874L113.93 126.783C111.748 126.04 109.564 125.296 107.429 124.432C105.473 123.641 103.662 122.555 102.042 121.177C102.017 121.156 101.901 121.184 101.888 121.215C101.421 122.344 100.55 123.114 99.677 123.887L99.6768 123.887L99.6765 123.887L99.6762 123.888L99.676 123.888L99.6757 123.888L99.6755 123.888L99.6752 123.889C99.4766 124.064 99.2779 124.24 99.0837 124.42C98.1667 125.271 97.2568 126.144 96.4533 127.099C95.934 127.717 95.4921 128.4 95.0505 129.083C94.8882 129.334 94.7259 129.585 94.5598 129.832C94.3721 130.112 94.1738 130.387 93.9755 130.663C93.4891 131.338 93.0022 132.015 92.6689 132.759C91.9254 134.42 90.7726 135.743 89.5692 137.033C88.3862 138.3 86.7742 138.772 85.1824 139.238C85.0344 139.282 84.8865 139.325 84.7391 139.369C84.1543 139.543 83.5526 139.66 82.9507 139.777L82.9505 139.777C82.6205 139.841 82.2904 139.905 81.9629 139.979C81.8798 139.998 81.8051 140.053 81.7303 140.109C81.6957 140.135 81.6611 140.161 81.6257 140.183C81.6641 140.229 81.7034 140.289 81.7428 140.348C81.8277 140.476 81.9125 140.603 81.988 140.598C82.7564 140.543 83.3305 140.939 83.8946 141.327C84.0451 141.43 84.1949 141.533 84.3475 141.627C85.0914 142.085 85.8219 142.578 86.2553 143.431C86.5364 143.984 86.9145 144.489 87.2915 144.993C87.4071 145.147 87.5227 145.302 87.6352 145.457C88.0985 146.097 88.5827 146.722 89.11 147.402L89.1102 147.402L89.2222 147.547L89.4143 147.726L89.6168 147.914C90.062 148.33 90.5072 148.745 90.9591 149.153ZM130.375 130.615L130.375 130.615C131.363 130.991 132.351 131.367 133.105 132.2C133.334 132.452 133.597 132.673 133.861 132.894L133.861 132.894L133.861 132.894L133.861 132.894L133.861 132.894L133.861 132.894L133.861 132.894L133.861 132.894L133.861 132.894L133.862 132.894L133.862 132.894L133.862 132.894C134.033 133.038 134.205 133.181 134.367 133.334C134.904 133.839 135.09 134.514 135.274 135.186C135.301 135.284 135.328 135.381 135.356 135.478C135.864 137.243 135.748 139.07 135.303 140.762L135.217 141.091C134.624 143.353 134.022 145.648 132.762 147.677C132.615 147.913 132.539 148.039 132.941 148.05C134.022 148.081 135.102 148.122 136.183 148.162C137.373 148.207 138.563 148.251 139.754 148.283C140.501 148.303 141.248 148.298 141.996 148.293C142.511 148.29 143.026 148.287 143.541 148.292C144.89 148.304 146.201 148.109 147.428 147.537L147.481 147.513L147.522 147.494L147.579 147.468C147.998 147.276 148.473 147.059 148.662 146.715C149.145 145.838 149.487 144.873 149.798 143.915C150.254 142.513 150.705 141.101 151.022 139.664C151.294 138.437 151.431 137.171 151.516 135.915C151.541 135.537 151.477 135.154 151.413 134.77C151.361 134.465 151.31 134.159 151.304 133.854C151.278 132.658 150.712 131.684 150.145 130.71L150.045 130.539C149.913 130.311 149.744 130.105 149.575 129.899C149.443 129.738 149.31 129.577 149.195 129.405C148.287 128.047 147.383 126.687 146.479 125.327L146.476 125.322L146.472 125.316C145.832 124.353 145.192 123.39 144.551 122.428C144.489 122.336 144.41 122.255 144.33 122.175C144.293 122.138 144.256 122.1 144.221 122.062C144.185 122.116 144.144 122.169 144.102 122.222C144.01 122.338 143.919 122.454 143.892 122.584C143.83 122.885 143.789 123.19 143.748 123.495L143.748 123.495C143.713 123.755 143.678 124.015 143.63 124.272C143.351 125.764 142.636 126.91 141.231 127.647C139.293 128.664 137.211 129.098 135.082 129.343C133.855 129.484 132.605 129.506 131.37 129.466C130.627 129.442 129.886 129.35 129.145 129.258L129.145 129.258L129.144 129.258C128.743 129.209 128.342 129.159 127.941 129.12C127.832 129.11 127.72 129.142 127.608 129.175C127.556 129.19 127.504 129.205 127.452 129.216C127.483 129.241 127.514 129.266 127.544 129.291L127.546 129.292L127.547 129.293C127.626 129.358 127.705 129.423 127.788 129.483C127.805 129.495 127.825 129.504 127.849 129.516C127.887 129.534 127.937 129.558 128.008 129.608C128.102 129.647 128.198 129.684 128.293 129.721C128.5 129.8 128.708 129.88 128.902 129.983C129.373 130.234 129.874 130.424 130.375 130.615ZM154.52 35.007C153.737 36.1526 153.264 37.4589 153.025 38.8321C152.783 40.2276 152.749 41.6387 153.158 43.0008C153.399 43.805 153.673 44.5999 153.946 45.3946C154.262 46.3145 154.578 47.2342 154.845 48.1682C155.01 48.745 155.383 49.015 155.795 49.1602C157.741 49.8455 159.855 49.0121 161.063 47.2233C161.39 46.7378 161.202 46.5385 160.868 46.199C160.417 45.7396 160.022 45.2074 159.686 44.6556C159.185 43.8319 159.397 42.9922 159.971 42.3271C160.546 41.6614 161.409 41.5135 162.212 41.7924C163.129 42.1111 163.79 42.8126 164.26 43.6717C164.282 43.7118 164.298 43.7555 164.314 43.7991L164.314 43.7994L164.321 43.8192C164.326 43.8329 164.331 43.8465 164.337 43.8599C164.342 43.8489 164.347 43.838 164.353 43.8271C164.364 43.8038 164.376 43.7806 164.384 43.7561C164.454 43.544 164.521 43.3307 164.588 43.1173C164.939 41.9972 165.292 40.874 166.002 39.9184C166.556 39.1734 167.152 38.4306 167.856 37.836C168.381 37.3914 169.03 37.0821 169.667 36.7787C169.76 36.7343 169.853 36.6901 169.945 36.6456C170.162 36.5408 170.379 36.4339 170.596 36.3269L170.596 36.3267L170.597 36.3261C171.509 35.8757 172.425 35.4236 173.385 35.1227C173.547 35.0722 173.628 35.0473 173.666 35.0357L173.686 35.0296C173.692 35.0276 173.695 35.0268 173.695 35.0267C173.695 35.0265 173.693 35.027 173.689 35.0277C173.639 35.039 173.314 35.1114 176.488 33.9666C180.921 32.368 178.64 27.3323 177.328 26.2245C177.23 26.142 177.075 26.0534 176.97 26.0761C176.876 26.0965 176.756 26.2612 176.746 26.371C176.647 27.4718 175.034 29.1801 171.202 28.9149C168.579 28.7333 168.522 28.7438 168.396 28.7668C168.339 28.7775 168.266 28.7908 167.921 28.7892C167.095 28.7854 164.234 29.0518 163.656 29.2153C163.445 29.2747 163.171 29.3322 162.847 29.3997C161.306 29.7217 158.664 30.2739 156.665 32.368C156.443 32.6371 156.216 32.9019 155.988 33.1667C155.475 33.7638 154.962 34.3609 154.52 35.007ZM165.001 45.9367C165.001 46.4935 164.89 47.0413 164.778 47.5889L164.778 47.5892L164.778 47.5895L164.778 47.5898L164.778 47.5901L164.778 47.5904L164.778 47.5907L164.778 47.591C164.724 47.8536 164.671 48.1163 164.63 48.3799C164.623 48.4216 164.601 48.4609 164.58 48.5002C164.575 48.509 164.57 48.5178 164.565 48.5266C164.56 48.5361 164.555 48.5457 164.551 48.5553C164.546 48.5375 164.542 48.5197 164.537 48.5019C164.526 48.4639 164.516 48.4259 164.509 48.3873C164.458 48.1177 164.411 47.8472 164.364 47.5768C164.257 46.9649 164.15 46.353 164.003 45.7506C163.828 45.0285 163.633 44.2926 163.31 43.6302C162.935 42.8643 161.368 42.5029 160.597 42.9047C160.157 43.1338 159.946 43.6829 160.231 44.0819C160.501 44.4593 160.832 44.8451 161.226 45.0697C161.872 45.4385 162.082 46.0535 162.135 46.6564C162.233 47.7901 161.044 49.3842 159.888 49.6708C158.837 49.9315 157.766 50.1128 156.696 50.2939C156.443 50.3367 156.19 50.3795 155.938 50.4232C155.912 50.4278 155.886 50.432 155.861 50.4362C155.524 50.4919 155.256 50.5361 155.362 51.0296C155.652 52.3693 155.747 53.719 155.504 55.0817C155.489 55.1645 155.64 55.2943 155.735 55.3762C155.858 55.4809 155.987 55.5795 156.115 55.6779C156.352 55.8591 156.588 56.04 156.784 56.2579C157.105 56.6162 157.405 56.9939 157.704 57.3718C157.91 57.6313 158.116 57.8908 158.329 58.1441C158.385 58.2102 158.608 58.2378 158.662 58.1866C158.935 57.9257 159.201 57.6572 159.467 57.3888C159.778 57.0745 160.09 56.7602 160.413 56.458C161.193 55.7275 161.992 55.0171 162.801 54.3192C162.906 54.2288 163.051 54.1845 163.195 54.1402C163.262 54.1197 163.328 54.0993 163.391 54.0743C163.365 54.1348 163.339 54.1955 163.314 54.2563L163.313 54.2566C163.243 54.4227 163.173 54.5887 163.09 54.7481C163.076 54.776 163.034 54.7872 162.99 54.799C162.953 54.8092 162.914 54.8198 162.889 54.8417L162.874 54.8541L162.85 54.875L162.849 54.8758L162.849 54.8759C162.693 55.0089 162.578 55.1067 162.924 55.2717C163.29 55.4461 163.629 55.6773 163.969 55.9084L163.969 55.9085L163.969 55.9088C164.111 56.0053 164.252 56.1019 164.396 56.1943C166.609 57.6186 168.994 58.2875 171.634 57.8546C173.127 57.6098 174.151 56.8155 174.607 55.3462C175.043 53.9386 174.861 53.5292 173.517 52.9635L173.425 52.9253L173.379 52.9061C172.67 52.6111 171.965 52.3181 171.779 51.4487C171.703 51.0912 172.364 50.7059 172.51 51.041C172.511 51.0431 172.512 51.0452 172.512 51.0474C172.656 51.7029 173.153 51.9294 173.678 52.1656C174.643 52.6 174.761 52.5392 174.761 51.5486C174.761 50.2517 174.761 50.2517 175.898 49.8477C176.557 49.6136 176.663 49.3848 176.364 48.7447C175.912 47.7781 175.616 46.7934 175.742 45.7004C175.896 44.3536 176.024 43.0023 176.109 41.6495C176.164 40.7802 176.215 39.8907 176.091 39.0361C176.012 38.4888 175.816 37.9584 175.621 37.4281C175.537 37.2 175.453 36.9719 175.378 36.7425C175.202 36.2035 174.779 35.987 174.226 36.1863C173.88 36.3108 173.533 36.4309 173.185 36.551C172.217 36.8853 171.249 37.2198 170.326 37.6512C169.355 38.1053 168.371 38.6685 167.616 39.4107C166.937 40.0775 165.001 43.4365 165.001 45.9367ZM85.2188 150.888C85.6288 150.797 86.0389 150.706 86.4491 150.615L86.4512 150.615C87.3416 150.417 88.2319 150.22 89.1204 150.015C89.2484 149.986 89.368 149.92 89.4875 149.854C89.5429 149.823 89.5982 149.792 89.6544 149.765C89.607 149.737 89.559 149.711 89.5109 149.684C89.3994 149.621 89.288 149.559 89.1858 149.484C89.073 149.401 88.9772 149.292 88.8836 149.186L88.8784 149.18C88.6118 148.878 88.3413 148.579 88.0707 148.28C87.4116 147.551 86.7524 146.822 86.1504 146.049C85.555 145.284 85.0817 144.417 84.6148 143.562L84.6032 143.541C84.3731 143.119 84.1119 142.941 83.6695 143.096C81.7879 143.753 79.84 144.111 77.8921 144.47C76.876 144.657 75.8599 144.844 74.8532 145.074C73.2033 145.45 64.8974 146.878 64.1741 146.93C63.8219 146.956 63.4696 146.991 63.1175 147.027H63.1174H63.1173H63.1172H63.1171H63.117H63.1169H63.1168C62.4325 147.097 61.7484 147.166 61.065 147.158C59.318 147.139 57.6054 147.327 55.8943 147.659C55.3549 147.764 54.8077 147.83 54.2606 147.897L54.2605 147.897L54.2604 147.897L54.2602 147.897L54.2601 147.897L54.26 147.897L54.2598 147.897L54.2597 147.897C53.6353 147.972 53.0112 148.048 52.399 148.181C50.4268 148.608 49.766 150.292 50.2741 151.937C50.3717 152.253 50.7203 152.609 51.0331 152.72C52.4598 153.225 53.9532 153.356 55.4628 153.368C56.2405 153.374 57.0181 153.41 57.7956 153.446C58.092 153.46 58.3884 153.474 58.6849 153.486C59.802 153.531 60.919 153.578 62.036 153.624C62.9023 153.66 63.7686 153.696 64.6349 153.732C64.6966 153.734 64.7583 153.734 64.8201 153.733C64.8819 153.732 64.9437 153.731 65.0054 153.733C65.31 153.746 65.6151 153.767 65.9202 153.787C66.5878 153.833 67.2553 153.878 67.9175 153.837C68.9556 153.773 69.99 153.651 71.0245 153.528L71.0249 153.528L71.0252 153.528L71.0256 153.528L71.026 153.528L71.0264 153.528L71.0267 153.528L71.0271 153.528L71.0305 153.527C71.51 153.47 71.9896 153.413 72.4695 153.362C72.7644 153.331 73.0602 153.305 73.3559 153.28C73.8923 153.233 74.4286 153.187 74.9597 153.106L75.228 153.066C76.5848 152.86 77.9442 152.653 79.2828 152.358C80.3226 152.129 81.3552 151.866 82.4103 151.598L82.4104 151.598L82.4111 151.598L82.412 151.598L82.4134 151.597C83.1848 151.401 83.9682 151.202 84.7753 151.011C84.8216 150.998 84.8678 150.984 84.914 150.971L84.9152 150.97C85.0159 150.941 85.1166 150.911 85.2188 150.888ZM132.287 179.495C132.926 178.577 133.531 177.633 134.117 176.68C134.65 175.814 135.148 174.926 135.646 174.039C136.092 173.245 136.554 172.461 137.017 171.676L137.017 171.676L137.017 171.676L137.017 171.676L137.017 171.676L137.017 171.676L137.017 171.676L137.017 171.676C138.091 169.854 139.165 168.033 140.028 166.09C140.524 164.971 141.099 163.887 141.675 162.803C141.949 162.286 142.223 161.769 142.489 161.249C142.614 161.003 142.742 160.759 142.87 160.514L142.87 160.514C143.22 159.844 143.569 159.174 143.87 158.483C144.097 157.96 144.296 157.424 144.495 156.888L144.495 156.888C144.801 156.064 145.107 155.241 145.513 154.47C146.166 153.231 146.599 151.923 147.032 150.613L147.032 150.613C147.172 150.188 147.313 149.763 147.461 149.34C147.484 149.275 147.499 149.206 147.514 149.138C147.52 149.106 147.527 149.074 147.535 149.042C147.512 149.047 147.489 149.051 147.466 149.055L147.429 149.061C147.352 149.074 147.275 149.087 147.201 149.109C147.052 149.154 146.904 149.207 146.756 149.261C146.45 149.373 146.143 149.485 145.829 149.509C144.657 149.602 143.478 149.641 142.302 149.641C141.574 149.641 140.847 149.612 140.119 149.583C139.65 149.565 139.181 149.546 138.711 149.535C138.624 149.533 138.488 149.643 138.452 149.731L138.324 150.057L138.323 150.058L138.323 150.058L138.323 150.058L138.323 150.058L138.323 150.058L138.323 150.058L138.323 150.058C138.029 150.799 137.736 151.541 137.479 152.295C136.839 154.174 136.219 156.059 135.606 157.947C134.828 160.344 133.871 162.657 132.816 164.952C131.838 167.08 131.109 169.346 130.646 171.678C130.43 172.767 130.11 173.836 129.79 174.904L129.79 174.904L129.79 174.905C129.713 175.162 129.636 175.419 129.561 175.676C129.324 176.484 129.063 177.284 128.801 178.084L128.801 178.085C128.707 178.374 128.612 178.663 128.519 178.952C128.305 179.616 128.493 180.235 129.014 180.315C129.595 180.405 130.195 180.373 130.849 180.331C131.442 180.249 131.952 179.976 132.287 179.495ZM46.905 156.695C47.5498 155.635 48.214 154.675 49.5248 154.388C50.0114 154.282 50.0383 154.028 49.7158 153.621C49.6451 153.531 49.5704 153.442 49.4953 153.353C49.2258 153.032 48.9512 152.704 48.8349 152.332C48.7092 151.93 48.7337 151.475 48.7578 151.029L48.7578 151.029C48.764 150.914 48.7702 150.8 48.7737 150.687C48.8165 149.337 49.1975 148.186 50.5334 147.531C50.9298 147.336 51.1678 147.043 50.7702 146.47C49.8742 145.177 48.6869 144.262 47.3778 143.47C46.8646 143.159 46.3921 143.344 46.1881 143.886C46.0994 144.122 46.0097 144.357 45.92 144.593L45.9199 144.593C45.6364 145.337 45.3529 146.081 45.1015 146.836C44.8254 147.665 44.5627 148.499 44.3001 149.332L44.3 149.332L44.2999 149.333C44.0228 150.212 43.7456 151.092 43.4526 151.966C43.2106 152.688 42.9976 153.418 42.7845 154.149C42.3994 155.469 42.0142 156.79 41.4573 158.064C40.1751 160.999 39.1386 164.034 38.6482 167.224C38.6223 167.392 38.6584 167.681 38.7582 167.732C38.9099 167.81 39.169 167.781 39.335 167.7C39.6117 167.565 39.9023 167.396 40.0961 167.165C40.7042 166.439 41.2698 165.677 41.8519 164.805C42.3338 164.034 42.8176 163.264 43.3014 162.494L43.3017 162.494L43.3017 162.493C44.5124 160.567 45.723 158.64 46.905 156.695ZM137.672 181.694C137.555 181.664 137.438 181.636 137.321 181.607C136.247 181.346 135.18 181.086 134.558 179.976C134.264 179.453 134.007 179.492 133.711 180.068C133.454 180.566 133.136 181.004 132.629 181.264C132.359 181.403 132.073 181.514 131.787 181.616C130.365 182.12 128.982 182.183 127.735 181.164C127.127 180.668 126.929 180.713 126.455 181.331C125.688 182.331 125.295 183.498 124.904 184.659L124.903 184.659L124.87 184.758C124.448 186.009 124.677 186.27 126.006 186.27H149.843C149.893 186.27 149.945 186.274 149.997 186.279C150.116 186.289 150.236 186.299 150.33 186.255C150.452 186.199 150.616 185.932 150.595 185.91C150.57 185.882 150.545 185.853 150.519 185.824C150.493 185.794 150.467 185.764 150.441 185.734C150.406 185.693 150.372 185.652 150.337 185.611L150.337 185.61C150.074 185.299 149.808 184.983 149.471 184.812C148.799 184.471 148.045 184.269 147.307 184.082C144.584 183.393 141.853 182.734 139.001 182.063C138.912 182.038 138.823 182.013 138.733 181.988L138.586 181.946L138.585 181.945C138.282 181.859 137.978 181.772 137.672 181.694ZM184.288 135.892C184.316 135.996 184.441 136.075 184.566 136.153C184.623 136.189 184.681 136.225 184.729 136.264C184.76 136.219 184.8 136.175 184.839 136.131C184.924 136.036 185.009 135.941 185.013 135.841C185.02 135.708 185.029 135.575 185.038 135.441V135.44C185.072 134.919 185.107 134.393 185.005 133.897C184.803 132.929 184.487 131.976 184.127 131.052C184.038 130.822 184.145 130.712 184.245 130.608C184.318 130.533 184.388 130.462 184.377 130.35C184.441 130.392 184.51 130.43 184.58 130.468C184.737 130.554 184.895 130.641 184.999 130.771C185.091 130.885 185.133 131.037 185.175 131.191C185.201 131.283 185.226 131.375 185.262 131.46L185.328 131.615L185.41 131.808L185.412 131.813L185.414 131.818L185.414 131.818L185.414 131.819L185.414 131.819L185.415 131.819L185.415 131.819L185.415 131.82L185.415 131.82C185.66 132.401 185.906 132.983 186.19 133.545C186.241 133.645 186.393 133.694 186.544 133.742L186.544 133.742C186.614 133.765 186.684 133.787 186.744 133.814C186.77 133.758 186.802 133.701 186.835 133.644C186.906 133.52 186.977 133.395 186.976 133.272C186.971 132.712 186.926 132.15 186.86 131.593C186.849 131.505 186.84 131.417 186.831 131.328V131.328C186.789 130.926 186.746 130.517 186.591 130.162C186.12 129.079 185.619 128 185.018 126.986C184.637 126.345 184.12 125.744 183.545 125.269C183.035 124.847 182.448 124.516 181.863 124.187C181.707 124.099 181.551 124.011 181.396 123.921C180.453 123.374 179.496 122.849 178.537 122.328C178.527 122.323 178.517 122.317 178.506 122.311C178.394 122.247 178.261 122.171 178.144 122.429C177.922 122.914 177.686 123.393 177.451 123.871C177.084 124.619 176.716 125.366 176.401 126.135C176.395 126.151 176.387 126.168 176.38 126.186C176.256 126.48 176.038 126.998 176.707 127.285C177.424 127.593 178.13 128.035 178.696 128.571C180.362 130.149 181.113 132.258 181.859 134.353L181.918 134.517C182.061 134.92 182.164 135.338 182.267 135.755L182.267 135.756L182.267 135.756L182.267 135.756C182.316 135.954 182.365 136.152 182.418 136.349C182.438 136.421 182.46 136.491 182.483 136.562L182.497 136.605L182.515 136.66C182.55 136.634 182.59 136.611 182.631 136.588C182.719 136.538 182.806 136.488 182.837 136.414C183.152 135.658 183.246 134.899 183.012 134.078C182.826 133.425 182.759 132.734 182.692 132.054L182.686 131.992C182.678 131.909 182.794 131.814 182.91 131.718C182.963 131.674 183.017 131.63 183.058 131.588C183.067 131.599 183.076 131.61 183.085 131.622C183.095 131.633 183.105 131.644 183.114 131.655L183.132 131.675L183.149 131.693L183.151 131.695C183.221 131.773 183.291 131.85 183.316 131.94C183.369 132.13 183.419 132.322 183.469 132.517C183.56 132.872 183.654 133.238 183.778 133.629C183.821 133.826 183.863 134.024 183.904 134.222C184.022 134.781 184.14 135.341 184.288 135.892ZM176.691 123.273C176.78 123.059 176.886 122.854 176.992 122.649C177.249 122.152 177.506 121.655 177.52 121.029C177.533 120.456 177.429 120.148 176.967 119.866C176.477 119.567 175.92 119.387 175.484 119.731C174.494 120.511 173.581 121.418 173.051 122.579C172.718 123.311 172.478 124.085 172.238 124.859C172.155 125.124 172.073 125.39 171.987 125.653C171.938 125.803 171.961 125.99 171.993 126.151C172.185 127.117 172.905 127.595 173.708 128C174.131 128.214 174.444 128.107 174.634 127.689C174.71 127.521 174.786 127.353 174.862 127.184L175.021 126.828L175.022 126.827C175.291 126.224 175.566 125.61 175.872 124.969C175.957 124.796 176.044 124.624 176.131 124.451L176.131 124.451L176.132 124.45C176.328 124.062 176.525 123.673 176.691 123.273ZM37.2909 166.885C37.7327 165.833 38.1524 164.766 38.5064 163.681C38.7431 162.956 38.9519 162.221 39.1606 161.486C39.3497 160.821 39.5387 160.156 39.7485 159.497C40.0778 158.464 40.4232 157.435 40.7685 156.407L40.7688 156.406L40.7689 156.406C41.0917 155.444 41.4145 154.483 41.7241 153.518C42.3039 151.71 42.8694 149.898 43.4349 148.086L43.435 148.086L43.4352 148.085C43.6893 147.27 43.9434 146.456 44.1989 145.642C44.2662 145.428 44.3344 145.214 44.4027 144.999C44.5841 144.431 44.7654 143.862 44.928 143.288C44.9522 143.203 44.9031 143.097 44.854 142.991C44.8313 142.942 44.8087 142.893 44.7932 142.846C44.7431 142.879 44.6851 142.908 44.627 142.938L44.627 142.938L44.6268 142.938C44.5011 143.002 44.3755 143.066 44.3296 143.166C43.8947 144.118 43.4697 145.076 43.0944 146.053C42.749 146.952 42.4406 147.865 42.1323 148.779C42.0807 148.931 42.0292 149.084 41.9774 149.237C41.92 149.406 41.8624 149.575 41.8049 149.745C41.4813 150.696 41.1576 151.647 40.8695 152.61C40.5713 153.605 40.2887 154.606 40.006 155.607C39.7991 156.339 39.5921 157.072 39.379 157.803C39.3008 158.071 39.2233 158.34 39.1458 158.608L39.1457 158.609C38.82 159.737 38.4941 160.867 38.1146 161.977C37.8782 162.669 37.6284 163.356 37.3776 164.045L37.3775 164.045L37.3773 164.046C37.027 165.009 36.6749 165.977 36.3551 166.97C36.8188 167.582 36.9961 167.588 37.2909 166.885ZM142.027 188.558C142.308 188.539 142.589 188.518 142.87 188.498C143.489 188.452 144.108 188.406 144.727 188.376C145.545 188.336 146.363 188.3 147.182 188.265C148.263 188.217 149.344 188.17 150.424 188.113C150.51 188.109 150.591 188.024 150.672 187.939L150.672 187.939C150.693 187.916 150.714 187.894 150.736 187.873C150.752 187.857 150.769 187.842 150.785 187.828C150.772 187.82 150.758 187.812 150.745 187.803C150.726 187.791 150.707 187.778 150.688 187.765C150.614 187.715 150.54 187.665 150.458 187.637C150.394 187.615 150.321 187.62 150.248 187.626L150.214 187.628C150.193 187.629 150.172 187.63 150.151 187.63H125.594C125.555 187.63 125.513 187.626 125.47 187.621C125.377 187.61 125.283 187.599 125.232 187.641C125.056 187.783 124.897 187.964 124.791 188.162C124.768 188.203 124.981 188.453 125.114 188.483C125.478 188.564 125.858 188.614 126.232 188.615C131.476 188.623 136.721 188.62 142.027 188.558ZM177.417 190.467L177.415 190.468C175.536 191.207 173.668 191.941 171.824 192.734C170.565 193.276 169.304 193.359 167.993 193.32C167.881 193.317 167.77 193.292 167.66 193.267L167.659 193.267C167.54 193.24 167.421 193.213 167.302 193.213C167.206 193.213 167.11 193.266 167.014 193.319C166.971 193.343 166.928 193.367 166.885 193.386C166.907 193.421 166.928 193.459 166.948 193.496C166.994 193.579 167.039 193.662 167.106 193.722C167.295 193.892 167.493 194.065 167.716 194.182C169.415 195.072 170.398 197.502 169.797 199.325C169.502 200.22 169.146 201.17 168.549 201.867C168.063 202.434 167.216 202.808 166.461 203.004C165.268 203.314 164.023 203.323 162.82 202.887C161.768 202.506 161.013 201.8 160.456 200.846C159.104 198.528 159.659 196.517 161.098 194.646C161.287 194.401 161.591 194.246 161.898 194.09C162.07 194.003 162.242 193.915 162.396 193.811C162.505 193.737 162.589 193.627 162.673 193.518C162.712 193.468 162.75 193.418 162.791 193.371C162.723 193.354 162.656 193.335 162.588 193.315C162.433 193.269 162.278 193.223 162.122 193.217C162.014 193.212 161.905 193.24 161.796 193.268L161.796 193.268C161.695 193.294 161.593 193.32 161.492 193.32L157.664 193.322C148.994 193.328 140.325 193.333 131.656 193.319C129.563 193.316 127.47 193.285 125.378 193.254L125.374 193.253C124.142 193.235 122.91 193.217 121.678 193.204C120.768 193.195 119.857 193.197 118.946 193.2C118.532 193.201 118.118 193.202 117.704 193.202C117.614 193.202 117.525 193.201 117.436 193.201C117.189 193.199 116.941 193.198 116.694 193.207C116.643 193.209 116.592 193.244 116.542 193.28C116.519 193.296 116.496 193.312 116.473 193.325C116.494 193.34 116.516 193.356 116.538 193.372L116.538 193.372L116.539 193.373C116.587 193.407 116.634 193.442 116.684 193.473C116.892 193.602 117.109 193.721 117.327 193.84C117.795 194.096 118.264 194.352 118.631 194.71C121.144 197.163 120.333 202.011 116.573 202.982C113.531 203.768 110.843 202.756 109.94 199.143C109.383 196.916 110.872 194.261 113.123 193.565C113.22 193.535 113.305 193.461 113.389 193.388C113.428 193.354 113.467 193.32 113.507 193.29C113.466 193.267 113.424 193.239 113.383 193.21C113.294 193.149 113.205 193.088 113.116 193.088C110.148 193.076 107.367 192.213 104.639 191.181C100.974 189.795 97.4112 188.178 94.1125 186.045L94.0496 186.004C93.4401 185.611 92.8113 185.205 92.5961 184.382C92.1933 182.842 92.9722 181.654 94.4104 181.263C95.9418 180.847 97.41 181.285 98.8563 181.749C101.366 182.554 103.875 183.365 106.383 184.176C107.778 184.627 109.172 185.078 110.567 185.527L110.749 185.586C111.506 185.83 112.263 186.075 113.026 186.297C113.306 186.379 113.608 186.42 113.9 186.422C115.159 186.426 116.418 186.427 117.677 186.427C118.93 186.428 120.183 186.429 121.436 186.433C121.622 186.434 121.941 186.486 121.968 186.58C122.027 186.783 122.026 187.002 122.026 187.222C122.025 187.262 122.025 187.301 122.026 187.341C122.026 187.387 122.027 187.433 122.028 187.478C122.01 187.472 121.991 187.464 121.973 187.455C121.932 187.437 121.892 187.419 121.854 187.422C121.712 187.435 121.571 187.452 121.43 187.47L121.429 187.47L121.428 187.47C121.217 187.496 121.007 187.522 120.795 187.533C120.061 187.571 119.326 187.605 118.592 187.639C117.61 187.684 116.628 187.73 115.647 187.785C113.911 187.882 112.273 187.393 110.651 186.908L110.636 186.904C109.376 186.527 108.133 186.098 106.889 185.669L106.889 185.669C106.186 185.427 105.483 185.184 104.778 184.951C103.896 184.66 103.012 184.376 102.128 184.092L102.127 184.092L102.126 184.092L102.126 184.092L102.125 184.091L102.124 184.091L102.123 184.091L102.122 184.091C101.101 183.762 100.08 183.434 99.0619 183.095C98.8049 183.01 98.5541 182.895 98.3041 182.781L98.304 182.781L98.3038 182.781C97.9054 182.6 97.5089 182.419 97.0924 182.357C96.3264 182.243 95.5065 182.305 94.7429 182.455C94.4443 182.514 94.11 182.989 94.016 183.335C93.8904 183.797 93.9758 184.252 94.5162 184.596C97.0246 186.19 99.6687 187.513 102.384 188.712C104.851 189.802 107.398 190.652 109.999 191.344C110.416 191.455 110.868 191.464 111.304 191.473C112.301 191.491 113.298 191.504 114.295 191.516C115.979 191.537 117.662 191.558 119.345 191.609C121.209 191.666 123.071 191.756 124.934 191.847C125.799 191.889 126.665 191.931 127.531 191.97C128.3 192.004 129.068 192.037 129.836 192.07C130.949 192.118 132.061 192.167 133.174 192.218C133.414 192.229 133.654 192.249 133.895 192.269C134.317 192.304 134.74 192.34 135.161 192.326C135.53 192.314 135.898 192.263 136.266 192.212L136.266 192.212C136.584 192.168 136.902 192.124 137.222 192.105C137.438 192.092 137.655 192.124 137.874 192.156C138.051 192.182 138.228 192.208 138.405 192.211C138.618 192.213 138.831 192.217 139.044 192.22H139.044C140.026 192.236 141.008 192.252 141.987 192.205C142.833 192.165 143.677 192.098 144.521 192.032C145.334 191.968 146.148 191.903 146.962 191.863C147.204 191.851 147.449 191.911 147.694 191.971C147.91 192.024 148.126 192.077 148.342 192.082C149.824 192.112 151.307 192.109 152.789 192.089C154.235 192.069 155.68 192.031 157.124 191.962C157.41 191.948 157.698 191.898 157.985 191.849C158.409 191.775 158.831 191.702 159.243 191.747C160.895 191.926 162.552 191.972 164.207 192.017C165.344 192.048 166.48 192.079 167.613 192.154C169.659 192.288 171.471 191.8 173.265 191.066C175.694 190.074 178.103 189.022 180.466 187.885C181.944 187.174 183.354 186.317 184.759 185.463L184.759 185.463L185.016 185.307C185.912 184.763 186.595 183.996 186.876 182.942C187.017 182.41 186.721 182.003 186.188 181.992C184.535 181.955 183.025 182.529 181.524 183.107C179.341 183.947 177.167 184.812 175 185.693C174.126 186.048 173.259 186.42 172.392 186.792L172.391 186.793L172.39 186.793L172.389 186.793L172.388 186.794L172.388 186.794L172.387 186.794L172.385 186.795C171.734 187.074 171.083 187.354 170.429 187.626C170.201 187.721 169.938 187.774 169.691 187.775C167.623 187.784 165.554 187.783 163.486 187.782L162.324 187.782L161.784 187.782C161.216 187.782 160.648 187.782 160.079 187.782C158.54 187.783 157.001 187.783 155.462 187.78C154.936 187.779 154.409 187.762 153.883 187.742C153.849 187.741 153.795 187.657 153.791 187.609C153.786 187.541 153.789 187.472 153.792 187.403C153.795 187.306 153.799 187.21 153.782 187.117C153.71 186.722 153.88 186.662 154.244 186.664C156.838 186.681 159.433 186.689 162.027 186.669L162.367 186.666L162.802 186.663C164.998 186.647 167.195 186.631 169.387 186.519C170.082 186.483 170.783 186.181 171.448 185.894L171.561 185.845L171.618 185.82C175.416 184.191 179.252 182.663 183.205 181.45C183.921 181.23 184.683 181.147 185.439 181.065C185.581 181.05 185.724 181.034 185.866 181.018C186.381 180.959 186.927 180.921 187.426 181.027C188.219 181.195 188.548 181.956 188.306 182.751C187.865 184.197 186.984 185.297 185.702 186.077C184.787 186.635 183.869 187.187 182.946 187.743L182.945 187.743C182.096 188.254 181.242 188.768 180.383 189.291C179.393 189.69 178.405 190.078 177.42 190.466L177.419 190.466L177.419 190.466L177.418 190.466L177.418 190.467L177.417 190.467ZM167.749 195.973C166.305 194.401 164.636 194.112 162.647 195.262C161.498 195.926 160.993 197.489 161.09 198.479C161.194 199.545 161.727 200.429 162.541 201.121C163.517 201.951 164.659 201.953 165.835 201.7C168.447 201.139 169.23 197.746 167.749 195.973ZM111.407 197.698C111.407 197.81 111.405 197.922 111.403 198.035C111.399 198.278 111.394 198.522 111.41 198.764C111.542 200.76 113.86 202.311 115.903 201.723C117.357 201.305 118.196 200.437 118.493 198.912C118.948 196.572 117.496 194.887 115.489 194.597C113.506 194.31 111.876 195.404 111.407 197.698ZM127.289 204.778H131.881H154.679C155.749 204.778 156.82 204.778 157.891 204.778H157.903C162.99 204.779 168.077 204.78 173.164 204.762C173.496 204.761 173.862 204.57 174.136 204.382C174.209 204.331 174.053 203.93 173.901 203.758C173.798 203.641 173.519 203.599 173.319 203.599C157.035 203.594 140.751 203.593 124.467 203.592C118.097 203.591 111.726 203.591 105.356 203.59C105.12 203.59 104.883 203.574 104.647 203.558L104.529 203.551C104.484 203.548 104.439 203.545 104.394 203.542C104.002 203.519 103.496 204.04 103.657 204.339C103.889 204.768 104.365 204.779 104.831 204.779C112.295 204.778 119.759 204.778 127.258 204.778H127.263H127.268H127.273H127.278H127.283H127.289ZM86.5356 205.084L83.4502 205.084H83.356H83.3514H83.3468H83.3422H83.3376C78.8355 205.084 74.3661 205.084 69.8966 205.082C69.872 205.082 69.8472 205.082 69.8224 205.083L69.792 205.084L69.7533 205.085C69.4496 205.095 69.1466 205.105 69.0255 204.709C68.8852 204.251 69.0775 203.918 69.5886 203.859C69.6854 203.847 69.7843 203.85 69.8832 203.854H69.8835C69.9289 203.855 69.9744 203.856 70.0196 203.856L74.7365 203.856C82.7368 203.856 90.737 203.856 98.7373 203.855C98.7635 203.855 98.7897 203.855 98.8158 203.854C99.2301 203.852 99.622 203.85 99.6044 204.409C99.5899 204.873 99.3151 205.084 98.6759 205.084L89.5996 205.084H86.5356ZM193.99 205.086L197.252 205.086L199.325 205.086C201.961 205.086 204.567 205.087 207.172 205.081C207.443 205.08 207.717 205.026 207.981 204.965C208.054 204.948 208.127 204.821 208.144 204.735C208.277 204.074 208.063 203.859 207.289 203.859L178.577 203.859C178.544 203.859 178.511 203.858 178.478 203.856L178.441 203.855C178.341 203.85 178.242 203.846 178.147 203.862C177.62 203.951 177.431 204.317 177.641 204.76C177.801 205.099 178.099 205.093 178.398 205.086C178.422 205.086 178.447 205.085 178.471 205.085C178.488 205.085 178.505 205.084 178.522 205.084C183.666 205.086 188.811 205.086 193.99 205.086ZM171.68 41.2211C171.787 41.2101 172.292 41.2887 172.915 41.3856C173.766 41.5181 174.837 41.6848 175.412 41.7033C175.987 41.7218 175.441 42.338 175.346 42.342C174.076 42.3959 171.325 41.5576 171.68 41.2211ZM173.534 46.0821C172.996 45.8785 173.253 44.2313 173.786 44.2313C174.313 44.2313 174.059 46.2808 173.534 46.0821ZM165.788 197.118C166.253 198.172 166.221 198.604 165.667 199.177C165.289 199.569 164.605 199.635 164.175 199.322C163.717 198.988 163.504 198.197 163.725 197.648C164.114 196.683 164.969 196.447 165.788 197.118ZM115.996 197.199C115.273 196.53 114.554 196.567 113.67 197.433C113.349 198.178 113.506 198.968 114.699 199.178C115.342 199.291 115.722 199.102 116.077 198.717C116.447 198.317 116.341 197.518 115.996 197.199Z" fill="#0A2472"/>
<path fill-rule="evenodd" clip-rule="evenodd" d="M157.906 62.876C156.832 62.5607 156.577 60.9318 155.494 60.6504C154.422 60.3721 153.392 61.6414 152.324 61.3515C151.597 61.1544 151.257 60.352 150.855 59.7158C150.464 59.0967 149.639 58.5379 149.05 58.9374L149.002 58.973C148.185 59.617 146.96 59.2102 146.137 58.5732C145.314 57.9363 144.617 57.0778 143.629 56.7502C144.147 56.2384 145.046 56.6098 145.548 57.1378C146.05 57.6659 146.459 58.3617 147.156 58.5729C148.225 58.8966 149.429 57.904 150.438 58.3829C151.065 58.6807 151.32 59.4163 151.696 60.0002C152.071 60.5841 152.889 61.0735 153.422 60.629C154.716 59.5499 157.029 60.2339 157.527 61.8432C157.672 62.31 158.311 62.9947 157.906 62.876Z" fill="#F1F3F9"/>
<path fill-rule="evenodd" clip-rule="evenodd" d="M93.8373 185.181C96.8214 186.939 106.169 192.118 113.022 192.289L169.699 192.468C169.699 192.468 199.501 181.987 177.712 185.941C176.479 186.165 172.947 188.278 167.268 188.738C156.887 189.579 113.022 189.042 113.022 189.042C113.022 189.042 93.0523 184.718 93.8373 185.181Z" fill="#F1F3F9"/>
<path fill-rule="evenodd" clip-rule="evenodd" d="M45.1621 150.312C45.2319 150.235 45.3166 150.18 45.3691 150.201C45.966 150.448 46.3103 150.234 46.4916 149.644C46.5217 149.546 46.675 149.486 46.7713 149.408C46.8599 149.526 47.0231 149.644 47.0235 149.763C47.0247 150.156 47.1953 150.341 47.5689 150.458C47.7281 150.507 47.8223 150.762 47.9461 150.924C47.8214 150.953 47.6334 150.942 47.5854 151.019C47.4879 151.174 47.4368 151.373 47.4221 151.559C47.4096 151.717 47.4886 151.88 47.5025 152.042C47.5207 152.256 47.4864 152.413 47.2347 152.197C46.7322 151.768 46.2962 151.929 45.867 152.334C45.763 152.432 45.5799 152.448 45.4331 152.502C45.46 152.368 45.468 152.227 45.5168 152.102C45.7728 151.447 45.596 150.884 45.1621 150.312Z" fill="#00AFEF"/>
<ellipse cx="168.278" cy="50.1121" rx="2.16532" ry="2.16534" fill="#00AFEF"/>
<path fill-rule="evenodd" clip-rule="evenodd" d="M137.295 69.3854L137.544 69.7696L137.626 69.8937C138.148 70.6592 138.941 71.4118 139.822 71.1887C142.169 70.595 144.838 71.6312 146.168 73.6523C146.826 74.6516 148.287 74.4556 149.481 74.1996L149.639 74.1652C150.837 73.8997 152.493 74.0246 152.796 75.1854L152.812 75.2522C152.951 75.9205 153.792 76.1236 154.485 76.106L154.699 76.0982C156.441 76.0982 156.669 77.0558 156.669 76.9574C156.669 76.9574 152.841 76.6673 152.035 75.3688L151.986 75.2861C151.473 74.3873 150.177 74.5336 149.163 74.8392L148.884 74.9264L148.745 74.9671C147.755 75.2443 146.554 75.3447 146.057 74.4908C144.918 72.5315 142.544 71.3673 140.296 71.6654C139.717 71.7421 139.117 71.9046 138.563 71.7212C137.238 71.2824 137.065 69.2361 135.761 68.7373C134.116 68.1079 132.523 70.4993 130.82 70.0478C131.856 69.2578 133.004 68.6154 134.219 68.1459C134.627 67.9886 135.059 67.8485 135.492 67.9011C136.295 67.9984 136.834 68.6884 137.295 69.3854ZM158.199 71.7463C158.034 72.2521 157.914 72.7013 157.833 73.0825C157.666 71.9839 156.575 70.9681 155.545 71.3239L155.486 71.3459C154.833 71.6062 154.141 71.066 153.718 70.504L153.617 70.3672L153.465 70.158C153.123 69.6915 152.756 69.2315 152.209 69.0987C151.209 68.8558 150.327 69.8511 149.305 69.9699C146.94 70.2447 145.758 66.011 143.436 66.5364C142.928 66.6513 142.489 66.9991 141.973 67.0696C140.55 67.2641 139.786 65.4537 138.586 64.6631C137.683 64.0681 136.409 64.1041 135.541 64.7491C135.585 63.7153 136.991 63.2598 137.951 63.6487C138.91 64.0377 139.569 64.9122 140.366 65.5731C141.143 66.2176 142.296 66.6602 143.143 66.1358L143.207 66.0935C144.225 65.3889 145.587 66.2827 146.381 67.2318L146.67 67.5776C147.396 68.4413 148.225 69.3386 149.313 69.2558C150.312 69.1797 151.162 68.249 152.153 68.3978C153.597 68.6147 154.187 70.9414 155.638 70.784C156.571 70.6828 157.542 70.996 158.239 71.6235L158.199 71.7463ZM158.948 66.878C158.715 67.2045 158.481 67.4668 158.247 67.6648L158.169 67.7284L157.974 67.5888C157.024 66.9145 155.988 66.2582 154.834 66.2854C154.412 66.2953 153.98 66.3971 153.576 66.2783C152.502 65.9631 152.247 64.3342 151.163 64.0528C150.091 63.7744 149.062 65.0437 147.993 64.7539C147.266 64.5568 146.927 63.7544 146.524 63.1181C146.133 62.499 145.308 61.9402 144.719 62.3398L144.671 62.3753C143.854 63.0194 142.629 62.6125 141.806 61.9756C140.983 61.3387 140.286 60.4802 139.298 60.1525C139.817 59.6407 140.715 60.0121 141.217 60.5402C141.719 61.0682 142.128 61.764 142.825 61.9753C143.894 62.2989 145.098 61.3063 146.107 61.7852C146.734 62.083 146.989 62.8187 147.365 63.4026C147.74 63.9865 148.558 64.4759 149.091 64.0313C150.385 62.9523 152.698 63.6363 153.197 65.2456C153.341 65.7123 153.963 65.8209 154.443 65.7272C154.922 65.6334 155.416 65.4241 155.882 65.5711C156.475 65.7579 156.779 66.4476 157.35 66.6928C157.945 66.9479 158.655 66.6235 159.053 66.1101L159.093 66.0563C159.413 65.6082 159.263 66.4368 158.948 66.878Z" fill="#00AFEF"/>
<path fill-rule="evenodd" clip-rule="evenodd" d="M146.494 79.1506L146.673 79.2031C146.913 79.2763 147.094 79.3844 147.304 79.5626L147.408 79.6541L147.54 79.7745C147.605 79.8327 147.655 79.8764 147.706 79.9184C148.056 80.2058 148.454 80.3841 149.116 80.4894C149.56 80.5599 149.874 80.4892 150.414 80.2376L150.609 80.1447C151.481 79.7234 151.989 79.6061 152.807 79.7942C153.506 79.9549 153.828 80.2255 154.089 80.7347L154.155 80.8697C154.28 81.1306 154.683 81.3716 155.001 81.5619C155.239 81.7044 155.43 81.8185 155.42 81.891C155.397 82.0603 153.921 81.7867 153.628 81.2008L153.564 81.0695C153.374 80.6761 153.199 80.5191 152.669 80.3971C152.046 80.2541 151.669 80.3289 150.974 80.6557L150.78 80.749C150.075 81.0878 149.643 81.1994 149.019 81.1004C148.248 80.9779 147.749 80.7538 147.314 80.3968C147.283 80.372 147.254 80.3471 147.223 80.3204L146.964 80.0868C146.783 79.9251 146.659 79.8456 146.492 79.7948L146.39 79.7639C145.958 79.6374 144.97 79.9656 144.25 80.2047L144.25 80.2047C143.798 80.3547 143.452 80.4697 143.414 80.4156C143.333 80.2989 145.634 78.9194 146.494 79.1506ZM146.388 83.8522L146.554 83.8983C146.777 83.9627 146.944 84.0577 147.14 84.2143L147.236 84.2947L147.359 84.4005C147.418 84.4516 147.465 84.49 147.512 84.5269C147.837 84.7795 148.205 84.9362 148.82 85.0287C149.232 85.0907 149.522 85.0286 150.023 84.8075L150.204 84.7258C151.013 84.3556 151.484 84.2525 152.243 84.4178C152.891 84.559 153.189 84.7968 153.431 85.2443L153.492 85.363C153.608 85.5922 153.982 85.804 154.277 85.9712C154.498 86.0965 154.675 86.1967 154.666 86.2605C154.645 86.4092 153.276 86.1687 153.004 85.6539L152.945 85.5385C152.768 85.1928 152.606 85.0548 152.114 84.9476C151.537 84.8219 151.187 84.8877 150.543 85.1749L150.363 85.2568C149.709 85.5546 149.308 85.6527 148.73 85.5656C148.015 85.458 147.552 85.2611 147.148 84.9474C147.12 84.9256 147.093 84.9037 147.064 84.8802L146.824 84.6749C146.656 84.5328 146.541 84.463 146.387 84.4183L146.292 84.3911C145.892 84.28 144.975 84.5684 144.307 84.7786C143.888 84.9104 143.567 85.0114 143.532 84.9639C143.457 84.8613 145.591 83.649 146.388 83.8522ZM146.696 88.8476L146.539 88.8015C145.786 88.5984 143.771 89.8107 143.842 89.9132C143.874 89.9608 144.178 89.8597 144.573 89.7279C145.204 89.5177 146.07 89.2293 146.448 89.3405L146.538 89.3676C146.684 89.4123 146.792 89.4821 146.951 89.6242L147.178 89.8295C147.205 89.853 147.23 89.8749 147.257 89.8967C147.638 90.2104 148.075 90.4074 148.751 90.5149C149.297 90.602 149.675 90.5039 150.293 90.2061L150.463 90.1242C151.071 89.837 151.402 89.7713 151.947 89.897C152.412 90.0042 152.564 90.1421 152.731 90.4878L152.787 90.6032C153.044 91.1181 154.337 91.3586 154.357 91.2098C154.365 91.146 154.198 91.0458 153.989 90.9205C153.711 90.7533 153.358 90.5415 153.248 90.3123L153.191 90.1936C152.962 89.7461 152.681 89.5083 152.068 89.3671C151.352 89.2018 150.907 89.3049 150.143 89.6751L149.972 89.7568C149.499 89.9779 149.225 90.04 148.836 89.978C148.255 89.8855 147.907 89.7288 147.6 89.4762C147.555 89.4394 147.512 89.4009 147.455 89.3498L147.34 89.244L147.249 89.1636C147.064 89.007 146.906 88.912 146.696 88.8476ZM146.539 94.6787L146.696 94.7249C146.906 94.7892 147.064 94.8842 147.249 95.0408L147.34 95.1212L147.455 95.227C147.512 95.2782 147.555 95.3166 147.6 95.3535C147.907 95.606 148.255 95.7628 148.836 95.8552C149.225 95.9172 149.499 95.8551 149.972 95.634L150.143 95.5523C150.907 95.1822 151.352 95.079 152.068 95.2443C152.681 95.3856 152.962 95.6234 153.191 96.0709L153.248 96.1895C153.358 96.4188 153.711 96.6306 153.989 96.7978L153.989 96.7978C154.198 96.923 154.365 97.0233 154.357 97.087C154.337 97.2358 153.044 96.9953 152.787 96.4805L152.731 96.365C152.564 96.0194 152.412 95.8814 151.947 95.7742C151.402 95.6485 151.071 95.7142 150.463 96.0014L150.293 96.0834C149.675 96.3811 149.297 96.4792 148.751 96.3922C148.075 96.2846 147.638 96.0877 147.257 95.7739C147.23 95.7521 147.205 95.7303 147.178 95.7067L146.951 95.5015C146.792 95.3593 146.684 95.2895 146.538 95.2448L146.448 95.2177C146.07 95.1066 145.204 95.3949 144.573 95.6051C144.178 95.7369 143.874 95.838 143.842 95.7905C143.771 95.6879 145.786 94.4756 146.539 94.6787ZM147.173 100.602L147.007 100.556C146.21 100.353 144.076 101.565 144.151 101.668C144.186 101.715 144.507 101.614 144.926 101.483L144.926 101.483C145.594 101.272 146.51 100.984 146.911 101.095L147.006 101.122C147.16 101.167 147.275 101.237 147.443 101.379L147.683 101.584C147.712 101.608 147.739 101.63 147.767 101.651C148.171 101.965 148.634 102.162 149.349 102.27C149.927 102.357 150.327 102.259 150.981 101.961L151.162 101.879C151.806 101.592 152.156 101.526 152.733 101.652C153.225 101.759 153.387 101.897 153.564 102.243L153.623 102.358C153.895 102.873 155.263 103.113 155.285 102.964C155.294 102.901 155.117 102.801 154.896 102.675C154.601 102.508 154.227 102.296 154.111 102.067L154.05 101.948C153.808 101.501 153.51 101.263 152.862 101.122C152.103 100.956 151.632 101.06 150.823 101.43L150.642 101.511C150.141 101.733 149.851 101.795 149.439 101.733C148.824 101.64 148.456 101.484 148.131 101.231C148.083 101.194 148.037 101.156 147.977 101.104L147.855 100.999L147.758 100.918C147.563 100.762 147.396 100.667 147.173 100.602ZM148.694 105.994L148.865 106.011C149.095 106.036 149.277 106.1 149.496 106.221L149.605 106.283L149.744 106.366C149.812 106.406 149.864 106.436 149.917 106.464C150.281 106.656 150.671 106.747 151.292 106.731C151.709 106.72 151.984 106.609 152.439 106.304L152.603 106.192C153.336 105.687 153.781 105.504 154.557 105.535C155.22 105.561 155.555 105.744 155.871 106.143L155.952 106.249C156.106 106.454 156.511 106.598 156.83 106.711C157.07 106.796 157.261 106.864 157.264 106.929C157.268 107.079 155.879 107.08 155.521 106.62L155.443 106.517C155.209 106.207 155.026 106.099 154.523 106.079C153.933 106.055 153.599 106.181 153.015 106.576L152.851 106.688C152.259 107.094 151.882 107.261 151.297 107.275C150.574 107.294 150.084 107.18 149.632 106.941L149.538 106.889L149.266 106.729C149.075 106.618 148.95 106.569 148.79 106.552L148.692 106.542C148.279 106.502 147.426 106.945 146.805 107.268C146.415 107.471 146.116 107.626 146.074 107.585C145.982 107.497 147.873 105.933 148.694 105.994ZM152.596 110L152.458 110.013C151.803 110.09 150.498 111.532 150.581 111.584C150.62 111.608 150.837 111.448 151.121 111.24C151.572 110.907 152.192 110.452 152.524 110.42L152.602 110.413C152.731 110.402 152.835 110.419 152.999 110.473L153.234 110.552L153.315 110.576C153.701 110.686 154.102 110.697 154.67 110.576C155.131 110.478 155.408 110.298 155.827 109.908L155.943 109.801C156.357 109.421 156.605 109.278 157.074 109.208C157.474 109.148 157.631 109.2 157.854 109.395L157.928 109.46C158.266 109.748 159.364 109.541 159.342 109.43C159.333 109.383 159.173 109.361 158.973 109.333C158.707 109.297 158.37 109.25 158.223 109.121L158.147 109.054C157.849 108.805 157.562 108.72 157.035 108.799C156.418 108.892 156.088 109.094 155.571 109.578L155.455 109.685C155.132 109.979 154.929 110.103 154.601 110.173C154.112 110.277 153.793 110.268 153.482 110.179C153.437 110.166 153.392 110.152 153.333 110.132L153.214 110.092L153.12 110.062C152.932 110.005 152.781 109.984 152.596 110ZM155.861 112.797L155.998 112.784C156.183 112.768 156.335 112.789 156.523 112.846L156.616 112.876L156.736 112.916C156.794 112.936 156.839 112.95 156.885 112.963C157.196 113.052 157.515 113.061 158.003 112.957C158.331 112.887 158.535 112.763 158.858 112.469L158.973 112.362C159.491 111.878 159.821 111.676 160.438 111.583C160.965 111.504 161.251 111.589 161.549 111.838L161.626 111.905C161.773 112.034 162.11 112.081 162.376 112.117C162.576 112.145 162.735 112.167 162.745 112.214C162.767 112.325 161.669 112.532 161.331 112.244L161.257 112.179C161.034 111.984 160.876 111.932 160.476 111.992C160.007 112.062 159.759 112.205 159.345 112.585L159.23 112.692C158.811 113.082 158.533 113.262 158.073 113.36C157.504 113.481 157.103 113.47 156.717 113.36L156.636 113.336L156.402 113.257C156.238 113.203 156.133 113.186 156.005 113.197L155.926 113.204C155.595 113.236 154.975 113.691 154.523 114.024L154.523 114.024C154.24 114.232 154.023 114.392 153.984 114.368C153.901 114.316 155.205 112.874 155.861 112.797ZM160.354 115.794L160.246 115.824C159.732 115.977 158.893 117.314 158.966 117.344C159.001 117.357 159.152 117.199 159.349 116.993C159.663 116.663 160.094 116.212 160.355 116.14L160.417 116.123C160.518 116.096 160.604 116.095 160.743 116.115L160.941 116.145L161.009 116.153C161.333 116.186 161.655 116.139 162.093 115.962C162.447 115.818 162.644 115.636 162.924 115.265L163.001 115.163C163.278 114.801 163.456 114.652 163.822 114.529C164.133 114.425 164.266 114.445 164.472 114.569L164.54 114.611C164.851 114.793 165.699 114.473 165.666 114.387C165.652 114.351 165.521 114.356 165.358 114.362C165.14 114.37 164.864 114.381 164.728 114.298L164.658 114.255C164.384 114.098 164.143 114.07 163.733 114.208C163.253 114.369 163.018 114.577 162.672 115.037L162.595 115.139C162.378 115.419 162.233 115.547 161.981 115.649C161.604 115.801 161.348 115.839 161.087 115.812C161.049 115.808 161.011 115.803 160.962 115.796L160.86 115.78L160.781 115.769C160.623 115.75 160.499 115.755 160.354 115.794ZM163.683 118.323L163.791 118.293C163.937 118.254 164.061 118.25 164.219 118.268L164.298 118.279L164.4 118.295C164.449 118.302 164.487 118.307 164.525 118.311C164.786 118.338 165.042 118.3 165.418 118.148C165.671 118.046 165.816 117.919 166.033 117.638L166.11 117.536C166.456 117.076 166.691 116.868 167.171 116.707C167.581 116.57 167.822 116.598 168.095 116.754L168.166 116.797C168.302 116.88 168.578 116.869 168.796 116.861C168.959 116.855 169.09 116.85 169.104 116.886C169.137 116.972 168.289 117.292 167.978 117.11L167.91 117.068C167.704 116.944 167.571 116.924 167.259 117.028C166.894 117.151 166.716 117.3 166.439 117.662L166.361 117.764C166.082 118.135 165.885 118.318 165.531 118.461C165.093 118.638 164.771 118.685 164.447 118.652L164.379 118.644L164.181 118.614C164.042 118.594 163.956 118.595 163.855 118.622L163.793 118.639C163.532 118.711 163.101 119.163 162.787 119.492L162.787 119.492C162.59 119.698 162.438 119.857 162.404 119.843C162.331 119.813 163.17 118.477 163.683 118.323ZM167.813 120.768L167.705 120.798C167.191 120.951 166.352 122.288 166.426 122.318C166.46 122.331 166.611 122.173 166.808 121.967C167.122 121.637 167.554 121.186 167.814 121.113L167.876 121.097C167.977 121.07 168.063 121.069 168.202 121.089L168.4 121.119L168.468 121.127C168.793 121.16 169.115 121.113 169.552 120.936C169.906 120.792 170.103 120.61 170.383 120.239L170.46 120.137C170.738 119.775 170.916 119.626 171.281 119.503C171.592 119.399 171.726 119.419 171.931 119.543L172 119.585C172.31 119.767 173.159 119.446 173.125 119.361C173.111 119.325 172.98 119.33 172.817 119.336C172.599 119.344 172.323 119.355 172.188 119.272L172.117 119.229C171.843 119.072 171.602 119.044 171.192 119.182C170.712 119.343 170.477 119.551 170.131 120.011L170.054 120.113C169.838 120.393 169.692 120.521 169.44 120.623C169.064 120.775 168.807 120.813 168.546 120.786C168.508 120.782 168.47 120.777 168.421 120.77L168.319 120.754L168.24 120.743C168.082 120.724 167.958 120.729 167.813 120.768Z" fill="#00AFEF"/>
</svg>
