<svg width="230" height="230" viewBox="0 0 230 230" fill="none" xmlns="http://www.w3.org/2000/svg">
<rect width="230" height="230" fill="white"/>
<path fill-rule="evenodd" clip-rule="evenodd" d="M158.634 28.8665C122.622 22.9586 126.294 82.0966 78.3771 74.0024C29.3666 65.7234 14.7183 124.127 29.3666 156.387C45.1876 191.23 146.493 209.961 182.736 184.275C223.527 155.367 226.202 39.9513 158.634 28.8665Z" fill="#00AFEF"/>
<path fill-rule="evenodd" clip-rule="evenodd" d="M78.6558 92.355C78.6558 92.355 82.7907 101.371 86.3821 105.55C91.4786 111.482 98.7561 116.409 101.489 121.035C107.983 132.026 105.102 137.403 105.102 137.403C105.102 137.403 101.672 125.554 96.7547 119.767C93.0018 115.35 85.6307 110.451 83.1668 106.824C78.7284 100.289 76.4355 94.0293 76.4355 94.0293L78.6558 92.355Z" fill="white"/>
<path d="M129.707 188.318C112.753 189.11 95.8105 190.16 78.8882 191.469C76.718 191.683 75.1125 191.715 75.1982 191.945C73.6726 191.849 70.9146 191.019 69.3114 191.683C70.5191 191.963 72.802 193.031 72.9376 194.263C56.9682 195.184 40.9101 194.563 25.0596 192.41C40.5791 193.468 56.146 193.831 71.6979 193.498C69.6938 192.153 67.1164 191.695 64.7716 192.268C67.794 190.806 71.2966 190.361 74.5886 191.019C72.0768 188.209 70.4121 184.651 69.8642 180.922C72.3735 182.638 74.3802 185.08 75.5777 187.874C75.4632 182.622 79.1797 177.519 84.2132 176.017C80.9987 180.111 79.2996 185.368 79.5098 190.569C95.5803 189.196 111.686 188.235 127.806 187.689C127.01 187.058 126.469 186.115 126.326 185.109C127.114 184.437 128.278 184.239 129.244 184.613C129.953 178.999 133.86 173.9 139.096 171.753C136.179 175.048 134.153 179.123 133.287 183.436C134.187 182.891 135.326 182.759 136.326 183.084C136.041 184.3 135.327 185.412 134.34 186.178C154.3 181.616 175.252 189.388 195.526 186.537C185.292 189.847 174.233 187.281 163.534 186.167C147.872 184.613 132.83 187.689 129.707 188.318Z" fill="white"/>
<path d="M171.939 66.9134C172.115 65.2429 173.553 63.9908 175.028 63.1871C177.696 61.7336 180.837 61.1664 183.845 61.5951C185.206 61.7892 186.245 60.4916 187.218 59.5192C189.743 56.9954 193.603 56.074 197.125 56.657C200.648 57.24 203.84 59.1858 206.41 61.6635C208.981 64.1412 210.988 67.1392 212.845 70.1886C213.234 70.8283 214.138 70.8452 214.886 70.8086C216.5 70.7294 218.199 70.774 219.609 71.5635C221.019 72.3531 222.01 74.1056 221.439 75.6176C221.172 76.3257 220.605 76.8902 219.956 77.2809C218.664 78.0603 217.096 78.1945 215.59 78.3094C205.552 79.076 195.513 79.8425 185.474 80.6091C182.728 80.8188 179.938 81.0261 177.24 80.4673C174.543 79.9085 171.902 78.4709 170.521 76.0873C169.14 73.7037 169.371 70.3083 171.49 68.5475C171.937 68.1754 171.879 67.4923 171.939 66.9134" fill="white"/>
<path d="M138.337 82.2942C140.528 84.8111 151.838 83.9297 152.205 88.5344C150.909 88.8898 149.613 89.2451 148.318 89.6005C146.211 90.1783 144.081 90.7658 142.175 91.8334C141.281 92.3344 140.217 92.9537 139.308 92.481C135.791 90.6533 131.701 90.0853 127.755 90.4626C123.81 90.8399 119.993 92.1255 116.413 93.8254C114.543 94.7128 112.437 95.7376 110.502 95.004C103.438 92.3257 95.3795 92.3725 88.3471 95.1328C87.1004 95.6222 85.7104 95.0791 84.4833 94.5422C83.1562 93.9615 81.8291 93.3808 80.502 92.8001C82.2136 90.8424 89.5307 88.119 91.0225 86.2244C91.2846 85.8914 101.055 79.116 111.769 82.1773C112.249 81.952 128.912 79.116 138.337 82.2942Z" fill="white"/>
<path fill-rule="evenodd" clip-rule="evenodd" d="M94.5443 114.291C88.3317 108.387 81.1594 102.409 79.4863 94.0032C82.5569 101.889 89.3753 107.566 95.3554 113.554C101.336 119.542 107 127.011 106.63 135.466C116.408 133.332 126.541 132.831 136.481 133.992C137.5 129.403 140.466 125.54 142.794 121.455C148.563 111.331 150.514 99.5438 152.368 88.039C152.837 85.1303 149.275 83.4061 146.42 82.6787C143.569 81.9521 140.717 81.2255 137.866 80.4989C132.507 79.1334 126.955 77.7583 121.504 78.692C117.818 79.3233 114.178 81.0029 110.492 80.374C104.624 79.3731 98.3988 80.6406 93.3896 83.8563C90.8713 85.473 88.6334 87.5685 85.8846 88.7512C80.0992 91.2405 75.0034 95.3107 71.2971 100.403C69.3608 90.3868 72.6232 80.1365 76.4373 70.6748C80.701 60.0978 86.0532 49.3962 95.2267 42.6214C108.676 32.6886 126.212 34.6219 140.203 43.7766C154.194 52.9312 162.743 68.0276 165.506 84.5177C165.827 86.4356 166.055 88.5115 165.152 90.2338C164.249 91.9562 163.908 92.9528 162.436 91.6822C161.181 90.599 159.845 89.4756 158.217 89.1638C156.589 88.852 154.613 89.6981 154.298 91.3257C151.986 103.245 149.558 115.466 143.134 125.769C141.462 128.453 139.514 131.014 138.45 133.992C137.636 136.27 137.374 138.702 137.117 141.108C136.583 146.121 136.048 151.133 135.514 156.146C135.289 158.259 134.974 160.56 133.435 162.025C131.966 163.424 129.778 163.675 127.757 163.855C121.193 164.438 114.63 165.021 108.066 165.604C106.892 165.708 105.561 165.761 104.704 164.953C104.043 164.33 103.86 163.365 103.73 162.466C102.808 156.089 102.808 149.579 103.731 143.202C105.054 134.052 100.96 124.691 94.5103 118.067C91.1491 114.615 87.1856 111.793 83.83 108.336C80.4744 104.879 77.6659 100.534 77.4646 95.7199C79.7479 102.047 83.9555 107.664 89.3847 111.635C97.4981 117.568 103.279 126.608 105.261 136.462C106.819 128.034 100.757 120.196 94.5443 114.291Z" fill="white"/>
<path fill-rule="evenodd" clip-rule="evenodd" d="M77.7555 133.55C76.7709 133.01 76.4084 131.799 76.1495 130.707C74.8795 125.347 73.951 119.905 73.3716 114.427C73.3348 114.079 73.3179 113.677 73.5713 113.435C74.1143 114.075 74.2101 114.97 74.2934 115.805C74.8924 121.81 76.0531 127.76 77.7555 133.55Z" fill="#22252F"/>
<path fill-rule="evenodd" clip-rule="evenodd" d="M155.829 115.29C156.722 112.306 157.379 109.252 157.795 106.166C157.851 105.748 158.008 105.222 158.429 105.19C158.674 105.404 158.65 105.786 158.604 106.109C158.209 108.861 157.644 111.589 156.915 114.272C156.767 114.816 156.353 115.5 155.829 115.29H155.829Z" fill="#22252F"/>
<path fill-rule="evenodd" clip-rule="evenodd" d="M133.091 187.017C133.578 185.695 134.47 184.526 135.615 183.706C134.398 183.781 133.214 184.311 132.347 185.169C132.825 181.427 134.022 177.778 135.854 174.48C132.465 177.262 130.278 181.46 129.94 185.831C129.133 185.36 128.126 185.247 127.234 185.526C128.058 186.456 128.883 187.387 129.707 188.318C112.753 189.11 95.8105 190.16 78.8882 191.469C78.0084 186.792 79.1524 181.77 81.9709 177.936C78.2516 180.559 75.9556 185.087 76.0372 189.638C74.3789 187.426 73.5527 184.266 71.0623 183.002C71.503 185.169 72.0119 185.657 74.9372 191.256C75.0568 191.485 75.1125 191.715 75.1982 191.945C73.6726 191.849 70.9146 191.019 69.3114 191.683C70.5191 191.963 72.802 193.031 72.9376 194.263C56.9682 195.184 40.9101 194.563 25.0596 192.41C40.5791 193.468 56.146 193.831 71.6979 193.498C69.6938 192.153 67.1164 191.695 64.7716 192.268C67.794 190.806 71.2966 190.361 74.5886 191.019C72.0768 188.209 70.4121 184.651 69.8642 180.922C72.3735 182.638 74.3802 185.08 75.5777 187.874C75.4632 182.622 79.1797 177.519 84.2132 176.017C80.9987 180.111 79.2996 185.368 79.5098 190.569C95.5803 189.196 111.686 188.235 127.806 187.689C127.01 187.058 126.469 186.115 126.326 185.109C127.114 184.437 128.278 184.239 129.244 184.613C129.953 178.999 133.86 173.9 139.096 171.753C136.179 175.048 134.153 179.123 133.287 183.436C134.187 182.891 135.326 182.759 136.326 183.084C136.041 184.3 135.327 185.412 134.34 186.178C154.3 181.616 175.252 189.388 195.526 186.537C185.292 189.847 174.233 187.281 163.534 186.167C153.408 185.114 143.143 185.4 133.091 187.017Z" fill="#22252F"/>
<path fill-rule="evenodd" clip-rule="evenodd" d="M142.078 114.038C142.322 114.398 142.246 114.879 142.147 115.303C141.554 117.848 140.51 120.287 139.076 122.472C138.678 121.975 139.044 121.255 139.38 120.713C140.273 119.272 140.929 117.684 141.314 116.033C141.478 115.332 141.609 114.584 142.078 114.038H142.078Z" fill="#22252F"/>
<path fill-rule="evenodd" clip-rule="evenodd" d="M138.257 118.659C137.889 118.341 138.054 117.749 138.23 117.295C138.798 115.837 139.179 114.307 139.363 112.753C139.423 112.238 139.52 111.632 139.984 111.401C140.203 111.599 140.17 111.945 140.12 112.236C139.735 114.442 139.334 116.695 138.257 118.659Z" fill="#22252F"/>
<path fill-rule="evenodd" clip-rule="evenodd" d="M107.57 126.884C107.678 126.787 107.846 126.887 107.947 126.992C108.396 127.462 108.663 128.101 108.683 128.751C108.082 128.429 107.642 127.823 107.521 127.152C107.505 127.059 107.499 126.947 107.57 126.884L107.57 126.884Z" fill="#22252F"/>
<path fill-rule="evenodd" clip-rule="evenodd" d="M154.849 107.176C154.689 110.01 154.042 112.815 152.944 115.433C152.916 115.501 152.886 115.571 152.83 115.619C152.667 115.759 152.392 115.608 152.334 115.401C152.276 115.194 152.359 114.976 152.438 114.776C153.212 112.817 153.725 110.756 153.96 108.663C154.03 108.04 154.227 107.249 154.849 107.176L154.849 107.176Z" fill="#22252F"/>
<path fill-rule="evenodd" clip-rule="evenodd" d="M106.524 121.997C105.469 120.571 104.621 118.994 104.015 117.328C103.937 117.114 103.984 116.752 104.204 116.812C104.287 116.834 104.336 116.917 104.377 116.992C105.292 118.699 106.208 120.406 107.123 122.113C107.077 122.37 106.679 122.207 106.524 121.997H106.524Z" fill="#22252F"/>
<path fill-rule="evenodd" clip-rule="evenodd" d="M76.5049 92.3753C76.0206 92.1241 76.0011 91.449 76.0592 90.9065C77.1429 80.7953 82.0655 71.1426 89.6135 64.3281C89.787 65.6109 88.7968 66.7219 87.9188 67.6731C81.6648 74.4478 77.6107 83.2219 76.5049 92.3753Z" fill="#22252F"/>
<path fill-rule="evenodd" clip-rule="evenodd" d="M139.956 92.3656C140.094 89.0457 139.539 85.3919 138.337 82.2943C140.528 84.8112 140.619 88.4733 140.596 91.8104C144.091 89.7315 148.138 88.5895 152.205 88.5345C150.909 88.8899 149.613 89.2452 148.318 89.6006C146.211 90.1784 144.081 90.7659 142.175 91.8335C141.281 92.3345 140.217 92.9538 139.308 92.4811C135.791 90.6534 131.701 90.0854 127.755 90.4627C123.81 90.84 119.993 92.4323 116.413 94.1321C114.543 95.0195 112.437 96.0444 110.502 95.3108C103.438 92.6325 95.3795 92.3726 88.3471 95.1329C87.1004 95.6223 85.7104 95.0792 84.4833 94.5423C83.1562 93.9616 81.8291 93.3809 80.502 92.8002C82.0448 93.124 85.8758 94.5021 85.8758 94.5021C85.8758 94.5021 86.9794 94.6354 87.3267 94.2116C87.674 93.7878 87.7837 93.2244 87.9089 92.6909C88.4598 90.3433 89.5307 88.1191 91.0225 86.2245C91.2846 85.8915 91.8458 85.5807 92.0547 85.9494C89.9902 88.3423 88.6136 91.322 88.1298 94.4452C95.6544 91.6072 104.241 91.6968 111.705 94.6912C112.418 90.5618 112.44 86.3139 111.769 82.1774C112.249 81.9521 112.602 82.6674 112.649 83.1956C112.993 87.0427 112.931 90.9259 112.465 94.7601C116.781 92.675 121.258 90.7908 125.991 90.0304C130.724 89.27 135.776 90.0185 139.956 92.3656Z" fill="#22252F"/>
<path fill-rule="evenodd" clip-rule="evenodd" d="M85.0928 84.122C87.3493 77.6641 90.8668 71.6495 95.3889 66.5165C95.7204 66.1402 96.1146 65.7405 96.6159 65.7235C97.1172 65.7065 97.5878 66.3616 97.2341 66.7173C92.0314 71.9478 87.9735 78.3111 85.4254 85.2346C84.9668 85.2467 84.9414 84.555 85.0928 84.122H85.0928Z" fill="#22252F"/>
<path fill-rule="evenodd" clip-rule="evenodd" d="M77.9642 113.203C78.0301 113.283 78.0377 113.395 78.0429 113.499C78.2596 117.8 79.3525 122.002 80.4398 126.169C80.4862 126.347 80.2266 126.476 80.0636 126.391C79.9006 126.306 79.8292 126.114 79.7724 125.939C78.5041 122.036 77.6947 117.983 77.366 113.892C77.3496 113.688 77.3381 113.468 77.4467 113.294C77.5553 113.121 77.8345 113.044 77.9642 113.203H77.9642Z" fill="#22252F"/>
<path fill-rule="evenodd" clip-rule="evenodd" d="M111.939 78.2777C111.486 78.2966 111.338 77.681 111.345 77.2279C111.414 72.491 111.482 67.7541 111.551 63.0172C111.558 62.4941 111.7 61.8129 112.22 61.7554C112.682 62.2968 112.672 63.084 112.638 63.795C112.405 68.6226 112.172 73.4501 111.939 78.2777Z" fill="#22252F"/>
<path fill-rule="evenodd" clip-rule="evenodd" d="M155.556 85.527C156.56 83.8974 156.492 81.8467 156.323 79.9403C156.027 76.601 155.518 73.2805 154.802 70.0054C154.734 69.6915 154.693 69.2959 154.957 69.1132C155.175 68.9622 155.495 69.0666 155.666 69.2696C155.837 69.4727 155.897 69.7444 155.949 70.0047C156.771 74.0762 157.145 78.2379 157.063 82.3906C157.032 83.9348 156.779 85.7463 155.424 86.4867C155.163 86.2492 155.371 85.8272 155.556 85.527H155.556Z" fill="#22252F"/>
<path fill-rule="evenodd" clip-rule="evenodd" d="M139.657 74.5525C139.998 76.0666 139.853 77.6862 139.25 79.116C138.835 78.6708 138.952 77.9724 139.024 77.3683C139.302 75.0218 138.481 72.685 137.47 70.5489C136.46 68.4129 135.239 66.3504 134.632 64.0668C134.54 63.7232 134.554 63.2257 134.905 63.1649C135.201 63.1136 135.402 63.4483 135.513 63.7277C136.648 66.6042 137.783 69.4806 138.919 72.3571C139.203 73.076 139.487 73.7984 139.657 74.5525Z" fill="#22252F"/>
<path fill-rule="evenodd" clip-rule="evenodd" d="M170.405 65.9935C170.581 64.323 172.019 63.0709 173.494 62.2672C176.162 60.8137 179.303 60.2464 182.31 60.6751C183.672 60.8693 184.711 59.5716 185.684 58.5993C188.209 56.0755 192.069 55.1541 195.591 55.7371C199.114 56.3201 202.306 58.2659 204.876 60.7436C207.447 63.2213 209.454 66.2193 211.311 69.2687C211.7 69.9083 212.604 69.9253 213.352 69.8886C214.966 69.8095 216.665 69.8541 218.075 70.6436C219.485 71.4332 220.476 73.1857 219.905 74.6977C219.638 75.4058 219.07 75.9703 218.422 76.361C217.129 77.1404 215.562 77.2746 214.056 77.3895C204.018 78.1561 193.979 78.9226 183.94 79.6892C181.193 79.8989 178.404 80.1062 175.706 79.5474C173.009 78.9886 170.368 77.551 168.987 75.1674C167.606 72.7838 167.837 69.3884 169.955 67.6275C170.403 67.2555 170.344 66.5723 170.405 65.9935M174.208 62.7854C173.006 63.3581 171.807 64.2013 171.411 65.4723C171.27 65.9251 171.241 66.4061 171.11 66.8619C170.77 68.0439 169.793 68.9314 169.277 70.0478C168.201 72.375 169.427 75.2692 171.478 76.8078C173.529 78.3464 176.185 78.8037 178.742 78.9838C187.947 79.632 197.1 77.2964 206.324 77.0642C209.948 76.973 213.687 77.1888 217.076 75.9052C218.359 75.4193 219.769 74.19 219.218 72.9335C219.079 72.6161 218.828 72.3615 218.566 72.1355C216.943 70.74 214.619 70.2061 212.55 70.7535C211.495 71.0326 210.613 69.9622 210.036 69.0362C207.522 65.0071 204.675 60.9911 200.614 58.5296C196.552 56.0681 190.984 55.5299 187.206 58.4075C185.508 59.7007 183.929 61.7099 181.807 61.4848C179.219 61.2103 176.557 61.6659 174.208 62.7854Z" fill="#22252F"/>
<path fill-rule="evenodd" clip-rule="evenodd" d="M33.6271 50.9803C33.2883 52.0376 33.7153 53.1755 34.1782 54.1847C34.7162 55.3575 35.6005 56.6805 36.8883 56.5992C40.865 56.348 44.8417 56.0969 48.8184 55.8458C49.3946 55.8094 50.1872 55.9596 50.1907 56.5369C45.2039 56.936 40.2171 57.3352 35.2303 57.7343C31.8759 58.0028 28.3684 58.3209 25.536 60.1381C22.7037 61.9552 20.8574 65.7866 22.3853 68.7849C22.9641 69.9209 24.1003 70.8707 25.3747 70.8327C28.8096 70.7304 32.2444 70.6281 35.6792 70.5258C36.4795 70.502 37.5747 70.7546 37.5388 71.5544C32.0803 71.2283 26.5894 71.4442 21.1733 72.1979C19.2288 72.4685 17.2286 72.8334 15.598 73.9267C13.9673 75.02 12.7956 77.0273 13.2522 78.9367C13.5674 80.2545 14.5997 81.313 15.7935 81.9541C16.9873 82.5951 18.3386 82.8729 19.6749 83.0973C33.8462 85.4767 48.3842 82.6937 62.7163 83.7332C64.3198 83.8495 66.0559 84.0746 67.198 85.2061C54.8333 82.8328 42.0819 85.4814 29.5055 84.8863C26.7062 84.7539 23.9173 84.4605 21.1302 84.1672C18.849 83.9272 16.4589 83.6481 14.5771 82.3366C13.6716 81.7056 12.9126 80.8338 12.5338 79.7971C11.5955 77.2291 13.2514 74.2952 15.5847 72.8701C17.918 71.445 20.7495 71.1628 23.4724 70.9152C21.2469 69.3924 20.5853 66.1848 21.5481 63.666C22.5109 61.1472 24.801 59.3107 27.311 58.325C29.8209 57.3393 32.5555 57.1012 35.2491 56.9744C34.4548 55.934 33.6486 54.8721 33.2046 53.6407C32.7606 52.4093 32.7278 50.9589 33.4363 49.8582C33.929 49.0928 34.7192 48.5747 35.5076 48.1197C43.0501 43.7676 52.1675 43.2623 60.8728 43.4782C63.2383 43.5368 65.681 43.6594 67.8083 44.6955C71.1085 46.3026 73.1146 50.0187 73.1345 53.6894C73.1545 57.3601 71.3783 60.902 68.7679 63.4827C68.3487 62.9017 68.8728 62.1295 69.332 61.5797C71.4587 59.034 72.6669 55.6398 72.2145 52.3536C71.7621 49.0675 69.5075 45.9937 66.3644 44.9332C65.051 44.49 63.6488 44.3964 62.2645 44.3258C53.2628 43.8672 43.8288 44.3383 35.945 48.707C34.9745 49.2449 33.9656 49.9236 33.6271 50.9803Z" fill="#22252F"/>
<path fill-rule="evenodd" clip-rule="evenodd" d="M94.5443 114.291C88.3317 108.386 81.1594 102.409 79.4863 94.0029C82.5569 101.889 89.3753 107.566 95.3554 113.554C101.336 119.542 107 127.011 106.63 135.466C116.408 133.331 126.541 132.831 136.481 133.992C137.5 129.403 140.466 125.539 142.794 121.455C148.563 111.33 150.514 99.5436 152.368 88.0387C152.837 85.13 149.275 83.4058 146.42 82.6784C143.569 81.9518 140.717 81.2252 137.866 80.4987C132.507 79.1332 126.955 77.758 121.504 78.6917C117.818 79.3231 114.178 81.0026 110.492 80.3738C104.624 79.3728 98.3988 80.6404 93.3896 83.8561C90.8713 85.4727 88.6566 87.6695 85.8846 88.751C79.8826 91.0925 76.4356 93.9285 71.2971 100.403C69.3608 90.3866 72.6232 80.1362 76.4373 70.6745C80.701 60.0975 86.0532 49.3959 95.2267 42.6211C108.676 32.6883 128.359 33.7016 142.35 42.8563C156.341 52.011 164.89 68.0273 167.652 84.5174C167.974 86.4354 168.202 88.5112 167.299 90.2336C166.396 91.9559 163.908 92.9526 162.436 91.6819C161.181 90.5988 159.845 89.4754 158.217 89.1635C156.589 88.8517 154.613 89.6979 154.298 91.3254C151.986 103.245 149.558 115.466 143.134 125.769C141.462 128.452 139.514 131.014 138.45 133.992C137.636 136.27 137.374 138.702 137.117 141.108C136.583 146.12 136.048 151.133 135.514 156.146C135.289 158.259 134.974 160.56 133.435 162.025C131.966 163.424 129.778 163.675 127.757 163.855C121.193 164.438 114.63 165.021 108.066 165.604C106.892 165.708 105.561 165.761 104.704 164.952C104.043 164.329 103.86 163.365 103.73 162.466C102.808 156.089 102.808 149.579 103.731 143.202C105.054 134.052 100.96 124.691 94.5103 118.067C91.1491 114.615 87.1856 111.793 83.83 108.336C80.4744 104.879 77.6659 100.533 77.4646 95.7197C79.7479 102.046 83.9555 107.664 89.3847 111.634C97.4981 117.568 103.279 126.608 105.261 136.462C106.819 128.034 100.757 120.196 94.5443 114.291ZM108.479 79.2108C111.119 79.4686 113.883 80.1248 116.347 79.1422C122.981 76.4962 130.677 76.6361 137.21 79.5216C139.999 80.7531 143.138 80.8209 146.14 81.3465C149.143 81.872 152.313 83.0701 153.842 85.7073C155.559 88.6687 160.604 87.8502 162.559 90.6601C163.37 91.8254 165.364 91.3814 166.132 90.1872C166.9 88.993 166.796 87.4559 166.624 86.0467C165.228 74.5764 161.027 63.3301 153.778 54.3318C146.528 45.3336 136.129 38.7166 124.72 36.8872C113.31 35.0578 100.999 38.2917 92.5549 46.1791C87.4438 50.9531 83.8987 57.1463 80.7838 63.4082C75.3587 74.3144 70.9177 86.2209 71.794 98.3703C75.4351 93.9643 79.3906 89.3414 84.8518 87.6543C86.1559 87.2514 87.5848 86.9926 88.5746 86.0528C93.8212 81.0707 101.278 78.5074 108.479 79.2108ZM114.314 154.383C114.294 157.312 114.733 160.244 115.61 163.039C115.684 163.277 115.777 163.534 115.989 163.666C116.195 163.795 116.458 163.77 116.7 163.742C119.635 163.391 122.57 163.04 125.505 162.689C125.613 162.676 125.733 162.656 125.797 162.569C125.864 162.478 125.844 162.353 125.82 162.243C125.292 159.76 124.763 157.277 124.235 154.794C124.205 154.654 124.172 154.507 124.073 154.403C123.952 154.276 123.764 154.246 123.59 154.224C120.706 153.859 117.794 153.724 114.89 153.819C114.72 153.824 114.529 153.84 114.418 153.968C114.322 154.078 114.315 154.237 114.314 154.383ZM123.629 144.033C123.533 143.901 123.35 143.875 123.187 143.861C120.227 143.599 117.241 143.642 114.291 143.988C114.12 144.009 113.939 144.034 113.807 144.144C113.59 144.324 113.588 144.651 113.605 144.932C113.703 146.603 113.802 148.275 113.9 149.946C113.924 150.354 114.083 150.893 114.491 150.872C117.385 150.727 120.291 150.833 123.167 151.189C123.562 151.238 123.715 150.692 123.714 150.293C123.711 148.324 123.708 146.354 123.704 144.385C123.704 144.263 123.701 144.132 123.629 144.033ZM105.284 155.389C105.061 155.49 104.833 155.604 104.681 155.797C104.44 156.104 104.451 156.532 104.472 156.922C104.548 158.29 104.624 159.658 104.7 161.026C104.738 161.718 104.779 162.422 105.013 163.074C105.248 163.727 105.709 164.332 106.359 164.574C106.894 164.773 107.487 164.706 108.054 164.636C109.127 164.504 110.2 164.373 111.273 164.241C111.713 164.187 112.17 164.127 112.547 163.893C111.541 160.839 110.873 157.673 110.558 154.473C110.536 154.249 110.235 154.196 110.01 154.21C108.381 154.313 106.771 154.715 105.284 155.389ZM134.156 151.726C134.473 149.762 134.791 147.799 135.109 145.835C135.137 145.663 135.16 145.471 135.059 145.329C134.956 145.185 134.763 145.146 134.588 145.118C132.262 144.744 129.93 144.407 127.593 144.106C127.418 144.083 127.205 144.077 127.104 144.222C127.044 144.308 127.046 144.422 127.05 144.528C127.135 146.575 127.219 148.622 127.304 150.669C127.311 150.856 127.329 151.064 127.469 151.189C127.568 151.276 127.706 151.301 127.836 151.322C129.797 151.639 131.759 151.955 133.721 152.272C133.978 152.314 134.114 151.983 134.156 151.726ZM113.764 140.143C113.722 140.369 113.707 140.658 113.909 140.769C114.005 140.823 114.123 140.814 114.232 140.803C117.309 140.508 120.385 140.212 123.461 139.917C123.619 139.901 123.787 139.883 123.915 139.788C124.089 139.658 124.142 139.425 124.183 139.212C124.434 137.914 124.685 136.617 124.936 135.32C124.971 135.135 124.993 134.91 124.847 134.793C124.744 134.711 124.599 134.718 124.468 134.729C121.52 134.975 118.571 135.222 115.622 135.469C115.381 135.489 115.13 135.513 114.926 135.643C114.581 135.863 114.477 136.31 114.402 136.712C114.189 137.856 113.977 138.999 113.764 140.143ZM127.622 135.876C127.507 137 127.391 138.125 127.276 139.25C127.257 139.435 127.241 139.634 127.331 139.796C127.464 140.037 127.772 140.107 128.043 140.153C130.511 140.568 132.979 140.984 135.448 141.4C135.55 141.417 135.659 141.434 135.754 141.393C135.936 141.315 135.977 141.079 135.99 140.882C136.088 139.43 136.11 137.974 136.056 136.52C136.047 136.27 136.033 136.012 135.931 135.783C135.622 135.088 134.701 134.973 133.941 134.958C132.159 134.921 130.377 134.885 128.596 134.849C128.411 134.845 128.217 134.843 128.054 134.929C127.733 135.097 127.659 135.515 127.622 135.876ZM153.898 88.0333C152.625 89.6937 152.275 91.8612 151.952 93.9287C150.316 104.387 148.194 115.087 142.439 123.972C140.468 127.015 138.011 130.02 137.732 133.636C138.818 129.872 141.824 127.024 143.888 123.694C145.402 121.251 146.412 118.534 147.338 115.813C149.572 109.244 151.37 102.528 152.717 95.7217C153.202 93.2749 153.679 90.701 155.255 88.7673C154.72 88.762 154.196 88.4781 153.898 88.0333ZM109.739 151.262C109.91 151.218 110.094 151.166 110.205 151.028C110.324 150.881 110.329 150.675 110.329 150.485C110.327 148.681 110.325 146.876 110.323 145.071C110.322 144.941 110.318 144.8 110.236 144.699C110.118 144.555 109.899 144.56 109.714 144.58C108.282 144.737 106.863 145.019 105.48 145.422C105.318 145.469 105.148 145.523 105.033 145.647C104.9 145.789 104.866 145.994 104.84 146.186C104.571 148.135 104.464 150.106 104.519 152.072C104.524 152.232 104.547 152.422 104.69 152.496C104.788 152.547 104.907 152.52 105.014 152.492C106.589 152.082 108.164 151.672 109.739 151.262ZM132.806 160.985C133.849 159.731 133.858 157.942 133.815 156.312C133.807 155.994 133.433 155.837 133.125 155.761C131.477 155.355 129.803 155.055 128.116 154.863C127.968 154.846 127.806 154.833 127.683 154.917C127.496 155.044 127.497 155.316 127.522 155.542C127.75 157.647 128.187 159.729 128.825 161.748C128.899 161.983 128.996 162.241 129.218 162.346C129.338 162.403 129.475 162.405 129.608 162.401C130.809 162.366 132.037 161.909 132.806 160.985ZM107.605 136.708C107.195 136.826 106.777 136.964 106.455 137.243C106.148 137.508 105.954 137.878 105.802 138.253C105.32 139.445 105.211 140.749 105.107 142.03C105.099 142.128 105.094 142.236 105.153 142.314C105.243 142.431 105.42 142.415 105.565 142.388C106.814 142.154 108.062 141.92 109.31 141.686C109.666 141.619 110.059 141.529 110.261 141.229C110.398 141.024 110.415 140.765 110.428 140.52C110.504 139.045 110.581 137.57 110.657 136.095C109.625 136.216 108.603 136.421 107.605 136.708ZM114.613 143.024C117.339 142.728 120.093 142.692 122.826 142.915C123.136 142.941 123.477 142.961 123.728 142.778C124.121 142.49 124.068 141.898 123.974 141.42C123.95 141.295 123.921 141.163 123.834 141.071C123.695 140.924 123.463 140.93 123.261 140.947C120.532 141.176 117.804 141.404 115.076 141.633C114.699 141.665 114.297 141.706 114.005 141.945C113.713 142.185 113.618 142.698 113.919 142.926C114.11 143.07 114.375 143.049 114.613 143.024ZM135.385 142.806C135.057 142.471 134.563 142.373 134.102 142.291C132.06 141.928 130.018 141.565 127.976 141.203C127.71 141.155 127.383 141.13 127.223 141.349C127.153 141.444 127.133 141.565 127.116 141.682C127.029 142.263 127.1 143.072 127.683 143.149C130.004 143.454 132.325 143.76 134.646 144.066C134.876 144.096 135.123 144.124 135.328 144.016C135.744 143.798 135.713 143.142 135.385 142.806ZM111.863 154.326C111.725 154.705 111.794 155.126 111.866 155.523C112.306 157.956 112.784 160.382 113.331 162.793C113.405 163.117 113.487 163.455 113.702 163.709C113.918 163.963 114.312 164.098 114.593 163.92C115.016 163.652 114.86 163.012 114.678 162.545C113.739 160.137 113.472 157.523 113.343 154.941C113.32 154.488 113.233 153.935 112.807 153.778C112.427 153.639 112.002 153.946 111.863 154.326ZM133.615 154.774C134.109 154.586 133.767 153.743 134.121 153.349C132.068 152.837 129.976 152.486 127.869 152.3C127.372 152.256 127.141 153.005 127.437 153.407C127.733 153.808 128.274 153.923 128.766 154.008C129.209 154.084 129.652 154.161 130.095 154.237C131.135 154.417 132.176 154.597 133.216 154.777C133.349 154.8 133.489 154.822 133.615 154.774ZM115.097 152.929C117.644 152.78 120.206 152.875 122.735 153.215C123.24 153.283 123.941 153.223 124.009 152.718C124.079 152.195 123.374 151.966 122.847 151.939C120.288 151.812 117.723 151.794 115.163 151.886C114.709 151.902 114.087 152.132 114.207 152.57C114.299 152.905 114.75 152.949 115.097 152.929ZM124.876 144.342C124.757 144.592 124.754 144.879 124.753 145.155C124.747 146.715 124.741 148.276 124.736 149.836C124.735 150.182 124.736 150.541 124.882 150.855C125.027 151.169 125.36 151.424 125.701 151.364C126.266 151.264 126.371 150.507 126.339 149.934C126.249 148.274 126.158 146.614 126.067 144.954C126.045 144.546 125.939 144.033 125.538 143.95C125.268 143.893 124.996 144.093 124.876 144.342ZM126.617 155.137C126.504 154.81 126.242 154.509 125.9 154.462C125.558 154.415 125.18 154.722 125.246 155.061C125.647 157.127 126.048 159.193 126.449 161.259C126.543 161.743 126.673 162.281 127.09 162.543C127.507 162.806 128.233 162.454 128.077 161.986C127.443 160.09 126.805 158.16 126.737 156.162C126.726 155.816 126.73 155.463 126.617 155.137ZM112.655 150.73C112.842 150.397 112.827 149.993 112.807 149.612C112.738 148.283 112.668 146.954 112.599 145.625C112.578 145.212 112.542 144.763 112.263 144.459C111.983 144.154 111.371 144.151 111.237 144.542C111.201 144.646 111.205 144.759 111.208 144.869C111.272 146.647 111.335 148.424 111.399 150.202C111.41 150.511 111.443 150.863 111.693 151.044C112.002 151.268 112.469 151.062 112.655 150.73ZM111.7 136.187C111.347 136.675 111.331 137.321 111.328 137.924C111.325 138.754 111.322 139.584 111.319 140.414C111.318 140.859 111.481 141.466 111.923 141.423C112.27 141.389 112.408 140.966 112.466 140.623C112.725 139.082 112.984 137.541 113.243 135.999C112.879 135.519 112.053 135.699 111.7 136.187ZM109.269 153.499C109.634 153.467 110.04 153.435 110.287 153.165C110.533 152.894 110.379 152.316 110.016 152.366C108.897 152.52 107.778 152.673 106.659 152.826C106.078 152.906 105.462 153.001 105.02 153.385C104.577 153.77 104.431 154.551 104.884 154.923C106.214 154.127 107.726 153.637 109.269 153.499ZM105.189 143.477C104.855 143.796 104.795 144.436 105.191 144.675C106.472 144.247 107.799 143.957 109.142 143.81C109.473 143.774 109.824 143.739 110.089 143.538C110.354 143.337 110.471 142.902 110.231 142.671C110.042 142.489 109.741 142.516 109.482 142.555C108.477 142.706 107.473 142.856 106.469 143.007C106.012 143.075 105.524 143.158 105.189 143.477ZM126.125 134.901C126.007 135.027 125.971 135.207 125.94 135.377C125.704 136.675 125.468 137.972 125.232 139.269C125.19 139.504 125.163 139.787 125.346 139.94C125.533 140.096 125.838 140 125.985 139.806C126.133 139.612 126.165 139.357 126.192 139.116C126.338 137.815 126.484 136.515 126.631 135.214C126.644 135.097 126.653 134.967 126.58 134.875C126.473 134.739 126.243 134.775 126.125 134.901ZM125.683 152.082C125.192 152.022 124.717 152.649 125.023 153.037C125.237 153.309 125.488 153.586 125.825 153.66C126.163 153.734 126.583 153.488 126.551 153.144C126.505 152.651 126.174 152.142 125.683 152.082ZM125.878 142.123C126.044 141.726 126.083 141.09 125.656 141.04C125.489 141.021 125.33 141.124 125.216 141.247C124.683 141.819 124.958 142.911 125.698 143.162C125.936 142.888 126.019 142.489 125.912 142.143C125.794 141.765 125.726 142.489 125.878 142.123ZM112.629 142.851C112.529 142.485 112.225 142.141 111.846 142.137C111.354 142.132 111.032 142.83 111.355 143.201C111.678 143.572 112.414 143.348 112.476 142.861C112.531 142.428 112.743 143.272 112.629 142.851ZM112.928 152.915C113.045 152.816 113.129 152.678 113.164 152.529C112.84 152.167 112.273 152.05 111.832 152.254C111.734 152.299 111.64 152.362 111.584 152.454C111.426 152.717 111.689 153.072 111.993 153.122C112.296 153.172 112.594 153.024 112.866 152.881L112.928 152.915Z" fill="#22252F"/>
</svg>
