<svg width="16" height="16" viewBox="0 0 16 16" fill="none" xmlns="http://www.w3.org/2000/svg">
<path fill-rule="evenodd" clip-rule="evenodd" d="M7.33301 2.66668C4.75568 2.66668 2.66634 4.75601 2.66634 7.33334C2.66634 9.91067 4.75568 12 7.33301 12C9.91034 12 11.9997 9.91067 11.9997 7.33334C11.9997 4.75601 9.91034 2.66668 7.33301 2.66668ZM1.33301 7.33334C1.33301 4.01963 4.0193 1.33334 7.33301 1.33334C10.6467 1.33334 13.333 4.01963 13.333 7.33334C13.333 10.6471 10.6467 13.3333 7.33301 13.3333C4.0193 13.3333 1.33301 10.6471 1.33301 7.33334Z" fill="#22252F"/>
<path fill-rule="evenodd" clip-rule="evenodd" d="M10.6289 10.6286C10.8892 10.3683 11.3113 10.3683 11.5717 10.6286L14.4717 13.5286C14.732 13.789 14.732 14.2111 14.4717 14.4714C14.2113 14.7318 13.7892 14.7318 13.5289 14.4714L10.6289 11.5714C10.3685 11.3111 10.3685 10.889 10.6289 10.6286Z" fill="#22252F"/>
</svg>
